<svg width="370" height="410" viewBox="0 0 370 410" fill="none" xmlns="http://www.w3.org/2000/svg">
<path d="M230.842 391.533L216.568 399.774L216.068 398.908L212.5 400.968C211.106 401.773 209.686 402.512 208.243 403.185L208.666 404.091C202.679 406.884 196.318 408.561 189.881 409.124L189.794 408.128C186.604 408.406 183.396 408.406 180.206 408.128L180.119 409.124C173.682 408.561 167.321 406.884 161.334 404.091L161.757 403.185C160.314 402.512 158.894 401.773 157.5 400.968L153.932 398.908L153.432 399.774L139.158 391.533L139.658 390.667L132.521 386.547L132.021 387.413L117.747 379.172L118.247 378.306L111.11 374.185L110.61 375.051L96.3367 366.81L96.8367 365.944L89.6999 361.824L89.1999 362.69L74.9261 354.449L75.4261 353.583L68.2893 349.462L67.7893 350.328L53.5156 342.087L54.0156 341.221L46.8787 337.101L46.3787 337.967L32.105 329.726L32.605 328.86L29.0366 326.8C27.6426 325.995 26.2926 325.134 24.9887 324.222L24.4153 325.041C19.0032 321.253 14.3695 316.582 10.6638 311.289L11.483 310.715C9.64692 308.092 8.04273 305.314 6.6894 302.412L5.78315 302.835C3.05183 296.979 1.32396 290.631 0.749188 284.05L1.74537 283.963C1.60691 282.377 1.53657 280.778 1.53657 279.168L1.53657 275.048L0.536573 275.048L0.536574 258.566L1.53657 258.566L1.53657 250.325L0.536575 250.325L0.536576 233.843L1.53658 233.843L1.53658 225.602L0.536577 225.602L0.536578 209.12L1.53658 209.12L1.53658 200.88L0.536579 200.88L0.53658 184.398L1.53658 184.398L1.53658 176.157L0.536581 176.157L0.536583 159.675L1.53658 159.675L1.53658 151.434L0.536583 151.434L0.536585 134.952L1.53658 134.952L1.53659 130.832C1.53659 129.222 1.60693 127.623 1.74539 126.037L0.749202 125.95C1.32397 119.369 3.05185 113.021 5.78317 107.165L6.68942 107.588C8.04275 104.686 9.64694 101.908 11.483 99.2848L10.6638 98.7113C14.3696 93.4179 19.0033 88.7474 24.4153 84.9591L24.9887 85.7784C26.2927 84.8656 27.6427 84.005 29.0366 83.2002L32.605 81.14L32.105 80.274L46.3788 72.033L46.8788 72.899L54.0156 68.7786L53.5156 67.9126L67.7893 59.6716L68.2893 60.5377L75.4261 56.4172L74.9261 55.5512L89.1999 47.3102L89.6999 48.1763L96.8367 44.0558L96.3367 43.1898L110.61 34.9488L111.11 35.8149L118.247 31.6944L117.747 30.8284L132.021 22.5874L132.521 23.4535L139.658 19.333L139.158 18.467L153.432 10.2261L153.932 11.0921L157.5 9.03184C158.894 8.22706 160.314 7.48823 161.757 6.81535L161.334 5.90913C167.321 3.11634 173.682 1.43864 180.119 0.87608L180.206 1.8723C183.396 1.59355 186.604 1.59355 189.794 1.8723L189.881 0.87608C196.318 1.43864 202.679 3.11632 208.666 5.9091L208.243 6.81535C209.686 7.48823 211.106 8.22706 212.5 9.03184L216.068 11.0921L216.568 10.2261L230.842 18.467L230.342 19.333L237.479 23.4535L237.979 22.5874L252.253 30.8284L251.753 31.6944L258.89 35.8149L259.39 34.9488L273.663 43.1898L273.163 44.0558L280.3 48.1763L280.8 47.3103L295.074 55.5512L294.574 56.4172L301.711 60.5377L302.211 59.6717L316.484 67.9126L315.984 68.7786L323.121 72.8991L323.621 72.033L337.895 80.274L337.395 81.14L340.963 83.2003C342.357 84.005 343.707 84.8657 345.011 85.7784L345.585 84.9592C350.997 88.7475 355.63 93.4179 359.336 98.7113L358.517 99.2848C360.353 101.908 361.957 104.686 363.311 107.588L364.217 107.165C366.948 113.021 368.676 119.369 369.251 125.95L368.255 126.037C368.393 127.623 368.463 129.222 368.463 130.832L368.463 134.952L369.463 134.952L369.463 151.434L368.463 151.434L368.463 159.675L369.463 159.675L369.463 176.157L368.463 176.157L368.463 184.398L369.463 184.398L369.463 200.88L368.463 200.88L368.463 209.12L369.463 209.12L369.463 225.602L368.463 225.602L368.463 233.843L369.463 233.843L369.463 250.325L368.463 250.325L368.463 258.566L369.463 258.566L369.463 275.048L368.463 275.048L368.463 279.168C368.463 280.778 368.393 282.377 368.255 283.963L369.251 284.05C368.676 290.631 366.948 296.979 364.217 302.835L363.311 302.412C361.957 305.314 360.353 308.092 358.517 310.715L359.336 311.289C355.63 316.582 350.997 321.253 345.585 325.041L345.011 324.222C343.707 325.134 342.357 325.995 340.963 326.8L337.395 328.86L337.895 329.726L323.621 337.967L323.121 337.101L315.984 341.221L316.484 342.087L302.211 350.328L301.711 349.462L294.574 353.583L295.074 354.449L280.8 362.69L280.3 361.824L273.163 365.944L273.663 366.81L259.39 375.051L258.89 374.185L251.753 378.306L252.253 379.172L237.979 387.413L237.479 386.547L230.342 390.667L230.842 391.533Z" stroke="#CECFDB" stroke-width="2" stroke-dasharray="8 16"/>
</svg>
