<svg width="127" height="40" viewBox="0 0 127 40" fill="none" xmlns="http://www.w3.org/2000/svg">
<path fill-rule="evenodd" clip-rule="evenodd" d="M7.40668 36.7442H10.6875H11.8181H14.5669L17.8593 18.997L21.1729 36.7442H23.9661H25.0523H28.3331L33.9416 3.25586H27.0252L24.2454 22.5141L20.8182 3.25586H18.4463H17.3157H14.8994L11.5338 22.4694L8.75892 3.25586H1.79822L7.40668 36.7442ZM44.3938 16.688V9.18993H56.1947V3.25586H44.3938H42.0559H37.3133V31.1628V36.7442H44.3938H54.846L55.7451 31.1628H44.3938V22.3921H54.3243V16.688H44.3938ZM72.7729 9.18993V29.4187L71.4796 36.7442H65.738V9.18993H57.9929V3.25586H65.738H72.7729H80.6956V9.18993H72.7729ZM89.5743 9.18993V16.688H99.5049V22.3921H89.5743V31.1628H95.1938L94.1823 36.7442H89.5743H83.8425H82.4938V3.25586H87.2364H89.5743H101.375V9.18993H89.5743ZM35.515 36.7442V29.3024H29.6708V36.7442H35.515ZM62.0389 29.3024V36.7442H56.1947V29.3024H62.0389ZM78.6726 36.7442V29.3024H72.8283V36.7442H78.6726ZM101.375 29.3024V36.7442H95.531V29.3024H101.375ZM113.877 3.25586H103.173V36.7442H110.221V24.6921H112.947L117.667 36.7442H125.202V36.3992L119.623 22.7741C120.341 22.3519 120.99 21.8566 121.567 21.2881C122.424 20.4447 123.089 19.3867 123.562 18.114C124.035 16.826 124.271 15.2467 124.271 13.376C124.271 11.1679 123.85 9.31259 123.008 7.80991C122.18 6.30723 120.991 5.17255 119.44 4.40587C117.889 3.6392 116.034 3.25586 113.877 3.25586ZM110.221 18.781H113.7C114.498 18.781 115.155 18.5894 115.672 18.206C116.189 17.8227 116.574 17.2783 116.825 16.573C117.091 15.8523 117.224 15.0013 117.224 14.02C117.224 13.008 117.098 12.1416 116.847 11.421C116.611 10.7003 116.249 10.1483 115.761 9.76493C115.288 9.38159 114.66 9.18993 113.877 9.18993H110.221V18.781Z" fill="#CECFDB"/>
</svg>
