<svg width="240" height="225" viewBox="0 0 240 225" fill="none" xmlns="http://www.w3.org/2000/svg">
<rect y="3.67188" width="240" height="160" fill="url(#paint0_radial_3_443)"/>
<path d="M81.7699 158.587L88.2501 165.3C88.4382 165.495 88.9793 165.601 89.4937 165.544C89.9448 165.494 90.2338 165.335 90.2389 165.164C90.2404 165.114 90.2381 47.4579 90.2381 45.8553L86.0548 42.4332C84.7214 41.8489 82.1501 39.0841 81.7148 39.1445C81.7148 42.767 81.7148 158.333 81.7149 158.47C81.7149 158.509 81.7326 158.549 81.7699 158.587Z" fill="#000002"/>
<path d="M90.2344 46.2305V164.588" stroke="url(#paint1_linear_3_443)" stroke-width="0.8" stroke-linecap="round"/>
<path d="M81.6992 39.4199V157.777" stroke="url(#paint2_linear_3_443)" stroke-width="0.8" stroke-linecap="round"/>
<path d="M81.7699 39.2685L88.25 45.9813C88.4381 46.1762 88.9792 46.2822 89.4936 46.225C90.0778 46.1601 90.3902 45.9132 90.1662 45.6935L83.3701 39.0281C83.1997 38.861 82.7195 38.7764 82.2843 38.8369C81.8331 38.8996 81.6014 39.094 81.7699 39.2685Z" fill="#8C8EA5"/>
<path fill-rule="evenodd" clip-rule="evenodd" d="M89.2543 50.3121L23.1328 47.9082V168.41C23.1536 168.045 23.553 167.694 24.2601 167.442C29.6687 165.512 37.2842 164.828 44.3203 165.64L89.2139 170.821L89.2543 170.823V50.3121Z" fill="#000002"/>
<path fill-rule="evenodd" clip-rule="evenodd" d="M23.2041 168.713C24.6806 171.51 29.8218 173.8 36.7468 174.746L91.0825 182.166C86.8258 178.911 85.753 175.024 88.872 171.275C88.9972 171.124 89.1281 170.975 89.2647 170.828L44.3211 165.64C37.285 164.828 29.6696 165.512 24.261 167.442C23.3592 167.764 22.9579 168.247 23.2041 168.713Z" fill="#CECFDB"/>
<path d="M36.8009 53.8292C33.3653 53.36 30.3873 52.5591 28.095 51.5379C25.7895 50.5109 24.2338 49.2864 23.5578 48.0059C23.5323 47.9576 23.5306 47.9254 23.5342 47.901C23.5384 47.873 23.5545 47.8251 23.6095 47.7589C23.7263 47.6186 23.9754 47.4486 24.3954 47.2988C29.7344 45.3935 37.2861 44.7106 44.2753 45.5173L88.4668 50.618C86.9203 52.531 86.3874 54.5209 86.8209 56.4722C87.1814 58.0949 88.1994 59.6402 89.7565 61.0608L36.8009 53.8292Z" fill="#000002" stroke="#8C8EA5" stroke-width="0.8" stroke-linejoin="round"/>
<path fill-rule="evenodd" clip-rule="evenodd" d="M36.7467 54.2252C29.8217 53.2796 24.6804 50.9893 23.2039 48.1923C23.1582 48.1056 23.1348 48.0183 23.1328 47.9316C23.1328 48.5194 23.1329 54.1395 23.133 62.6599C23.1336 94.7853 23.1349 168.14 23.1333 168.436C23.1328 168.528 23.1562 168.62 23.2045 168.712C24.681 171.508 29.8223 173.799 36.7473 174.744L91.0829 182.165L91.0829 61.6472C91.0799 61.6462 91.0768 61.6452 91.0738 61.6442L36.7467 54.2252Z" fill="#000002"/>
<path d="M23.1328 48.1338V166.491" stroke="url(#paint3_linear_3_443)" stroke-width="0.8" stroke-linecap="round"/>
<path d="M90.2344 61.3223V179.68" stroke="url(#paint4_linear_3_443)" stroke-width="0.4" stroke-linecap="round"/>
<path d="M88.668 50.6045L88.668 60.5205" stroke="url(#paint5_linear_3_443)" stroke-width="0.8" stroke-linecap="round"/>
<path d="M99.7172 22.6527C99.7956 21.4124 100.717 20.1429 102.501 18.9853C104.272 17.8352 106.823 16.8453 109.988 16.1477C110.996 15.9255 112.24 15.9255 113.248 16.1477C116.412 16.8453 118.963 17.8352 120.735 18.9853C122.518 20.1429 123.44 21.4124 123.518 22.6527L124.644 40.4561C124.382 40.454 124.119 40.4529 123.856 40.4529C113.981 40.4529 104.994 41.9613 98.3407 44.4305L99.7172 22.6527Z" fill="#000002" stroke="#8C8EA5" stroke-width="0.8" stroke-linejoin="round"/>
<path fill-rule="evenodd" clip-rule="evenodd" d="M97.9032 45.0239C97.9029 45.0281 97.9026 45.0323 97.9023 45.0364L97.9023 165.543C104.553 162.965 113.726 161.372 123.856 161.372C124.262 161.372 124.667 161.374 125.07 161.379V40.863C125.07 40.8621 125.07 40.8612 125.07 40.8603C124.667 40.8552 124.262 40.8527 123.856 40.8527C113.726 40.8527 104.553 42.4462 97.9032 45.0239ZM125.067 40.8037L124.831 37.0771C125.024 37.9271 125.032 38.8121 125.039 39.6613C125.042 40.052 125.045 40.4351 125.067 40.8037Z" fill="#000002"/>
<path d="M97.8984 44.9617V163.319" stroke="url(#paint6_linear_3_443)" stroke-width="0.8" stroke-linecap="round"/>
<path d="M125.066 40.8887V159.246" stroke="url(#paint7_linear_3_443)" stroke-width="0.8" stroke-linecap="round"/>
<path fill-rule="evenodd" clip-rule="evenodd" d="M109.901 136.276C103.516 137.683 99.4984 140.292 99.318 143.146L97.9023 165.543C104.553 162.965 113.726 161.371 123.856 161.371C124.262 161.371 124.667 161.374 125.07 161.379L123.918 143.146C123.737 140.292 119.719 137.683 113.334 136.276C112.269 136.041 110.966 136.041 109.901 136.276Z" fill="#CECFDB"/>
<path d="M149.088 35.116L134.438 39.4112C134.437 42.7332 134.438 159.806 134.438 159.922C134.437 160.001 134.497 160.08 134.619 160.149C134.964 160.344 135.666 160.38 136.129 160.227L150.185 155.589C150.385 155.523 150.488 155.429 150.488 155.334C150.488 155.262 150.488 37.3578 150.488 34.8204C150.191 34.6742 149.459 34.998 149.088 35.116Z" fill="#000002"/>
<path d="M150.5 35.1123V153.47" stroke="url(#paint8_linear_3_443)" stroke-width="0.8" stroke-linecap="round"/>
<path d="M134.664 39.9209V158.278" stroke="url(#paint9_linear_3_443)" stroke-width="0.8" stroke-linecap="round"/>
<path d="M149.091 34.5572L134.818 39.0941C134.404 39.2258 134.319 39.4591 134.622 39.6304C134.967 39.825 135.669 39.8611 136.132 39.7082L150.188 35.0701C150.541 34.9538 150.593 34.7498 150.307 34.6087C150.01 34.4625 149.462 34.4393 149.091 34.5572Z" fill="#8C8EA5"/>
<path fill-rule="evenodd" clip-rule="evenodd" d="M216.88 38.6582C216.895 38.7698 216.874 38.883 216.816 38.9953C215.367 41.7944 210.248 44.0922 203.332 45.0482L159.158 51.154C159.157 51.1534 159.157 51.1528 159.156 51.1521V171.67L159.158 171.673L203.333 165.567C210.248 164.611 215.367 162.313 216.817 159.514C216.861 159.428 216.884 159.341 216.885 159.254C216.89 158.927 216.886 72.5191 216.885 46.1339L216.885 44.6516C216.885 41.2442 216.885 39.1072 216.885 38.66L216.88 38.6582Z" fill="#000002"/>
<path fill-rule="evenodd" clip-rule="evenodd" d="M140.523 42.4072C148.892 44.0627 155.642 46.9575 158.797 50.7024C158.923 50.852 159.043 51.0019 159.155 51.1519V171.67C159.043 171.52 158.924 171.371 158.798 171.221C155.642 167.476 148.892 164.582 140.524 162.926L140.523 42.4158L140.567 42.4158C140.552 42.4129 140.538 42.4101 140.523 42.4072V42.4072Z" fill="#000002"/>
<path d="M216.898 39.0859V157.443" stroke="url(#paint10_linear_3_443)" stroke-width="0.8" stroke-linecap="round"/>
<path d="M159.367 50.9053V169.263" stroke="url(#paint11_linear_3_443)" stroke-width="0.8" stroke-linecap="round"/>
<path d="M140.535 42.6914V161.049" stroke="url(#paint12_linear_3_443)" stroke-width="0.8" stroke-linecap="round"/>
<path d="M195.715 36.3513C202.696 35.5343 210.254 36.206 215.612 38.1035C216.034 38.2528 216.286 38.4227 216.405 38.5638C216.461 38.6306 216.478 38.679 216.482 38.7075C216.486 38.7321 216.485 38.764 216.46 38.8115C215.797 40.0916 214.255 41.3178 211.959 42.3482C209.678 43.3725 206.708 44.1778 203.277 44.6521L159.332 50.7262C159.258 50.6323 159.182 50.5386 159.103 50.4451C157.472 48.509 154.936 46.8184 151.778 45.4065C149.219 44.2622 146.236 43.2938 142.962 42.525L195.715 36.3513Z" fill="#000002" stroke="#8C8EA5" stroke-width="0.8" stroke-linejoin="round"/>
<path d="M182.312 58.6927L171.873 56.3389C169.623 55.5543 165.288 54.6226 164.958 54.7864C164.958 57.9916 164.956 175.22 164.958 175.307C164.96 175.438 165.126 175.566 165.434 175.642L180.995 179.485C181.385 179.582 181.901 179.54 182.162 179.392C182.264 179.334 182.312 179.269 182.312 179.204C182.312 179.095 182.312 61.2635 182.312 58.6927Z" fill="#000002"/>
<path d="M182.301 58.9843V177.342" stroke="url(#paint13_linear_3_443)" stroke-width="0.8" stroke-linecap="round"/>
<path d="M164.969 55.1786V173.536" stroke="url(#paint14_linear_3_443)" stroke-width="0.8" stroke-linecap="round"/>
<path d="M181.927 58.4061L166.551 54.4525C166.104 54.3377 165.506 54.3755 165.176 54.5393C164.801 54.7252 164.921 54.9965 165.434 55.1231L180.994 58.9662C181.385 59.0626 181.901 59.0214 182.162 58.873C182.433 58.7192 182.327 58.5089 181.927 58.4061Z" fill="#8C8EA5"/>
<path d="M130.613 145.482C131.177 144.581 131.924 143.978 132.412 144.029C132.412 145.298 132.412 165.48 132.412 165.609C132.411 165.638 132.401 165.667 132.38 165.697L127.008 173.498C126.877 173.688 126.375 173.8 125.887 173.75C125.482 173.707 125.214 173.566 125.209 173.41C125.208 173.378 125.207 151.892 125.207 151.825L130.613 145.482Z" fill="url(#paint15_radial_3_443)"/>
<path d="M130.611 143.936C130.742 143.746 131.244 143.633 131.732 143.684C132.22 143.735 132.51 143.93 132.379 144.12L127.006 151.921C126.875 152.111 126.374 152.224 125.885 152.173C125.397 152.122 125.108 151.927 125.238 151.737L130.611 143.936Z" fill="#CECFDB"/>
<path d="M108.275 166.932C108.192 166.876 108.153 166.815 108.152 166.755C108.152 165.498 108.153 148.169 108.153 145.181C108.59 145.083 111.66 147.031 111.913 147.201L120.362 152.176C120.362 152.56 120.362 173.143 120.362 173.751C120.359 173.873 120.195 173.991 119.904 174.056C119.467 174.154 118.907 174.096 118.654 173.926L108.275 166.932Z" fill="url(#paint16_radial_3_443)"/>
<path d="M108.274 145.355C108.021 145.185 108.171 144.967 108.609 144.869C109.046 144.771 109.606 144.829 109.859 144.999L120.238 151.993C120.491 152.164 120.341 152.381 119.903 152.48C119.465 152.578 118.906 152.52 118.653 152.349L108.274 145.355Z" fill="#CECFDB"/>
<path d="M95.0495 174.077C94.6396 174.034 94.3697 173.89 94.3711 173.732C94.3714 173.702 94.3725 152.326 94.3725 152.159C94.5033 151.969 99.2042 152.642 99.6924 152.693L116.252 154.245C116.252 154.562 116.252 175.546 116.252 175.83C116.251 175.858 116.241 175.887 116.221 175.916C116.09 176.106 115.589 176.218 115.101 176.167L95.0495 174.077Z" fill="url(#paint17_radial_3_443)"/>
<path d="M95.0518 152.505C94.5637 152.454 94.274 152.259 94.4048 152.069C94.5356 151.879 95.0373 151.767 95.5254 151.818L115.577 153.908C116.065 153.959 116.354 154.154 116.224 154.344C116.093 154.534 115.591 154.646 115.103 154.596L95.0518 152.505Z" fill="#CECFDB"/>
<path d="M98.6959 182.774C98.2583 182.872 97.6987 182.814 97.446 182.644C97.3665 182.59 97.3269 182.532 97.3235 182.474C97.3163 182.348 97.3235 161.39 97.3235 160.889L115.758 157.083C116.196 156.985 116.878 156.679 117.131 156.849C117.131 157.784 117.132 178.369 117.131 178.43C117.128 178.552 116.965 178.671 116.673 178.736L98.6959 182.774Z" fill="url(#paint18_radial_3_443)"/>
<path d="M98.6947 161.198C98.2571 161.296 97.6975 161.238 97.4449 161.068C97.1922 160.897 97.3421 160.68 97.7798 160.581L115.757 156.543C116.195 156.445 116.754 156.503 117.007 156.674C117.26 156.844 117.11 157.062 116.672 157.16L98.6947 161.198Z" fill="#CECFDB"/>
<path d="M117.076 187.918C116.946 188.108 116.444 188.22 115.956 188.17C115.546 188.127 115.276 187.982 115.277 187.825C115.278 187.795 115.277 167.884 115.277 166.248L120.66 159.571C120.791 159.381 121.992 158.401 122.48 158.452C122.48 158.536 122.48 179.837 122.48 180.031C122.479 180.059 122.469 180.088 122.449 180.117L117.076 187.918Z" fill="url(#paint19_radial_3_443)"/>
<path d="M117.077 166.342C116.946 166.532 116.444 166.644 115.956 166.593C115.468 166.543 115.178 166.347 115.309 166.157L120.682 158.357C120.813 158.167 121.314 158.054 121.802 158.105C122.29 158.156 122.58 158.351 122.449 158.541L117.077 166.342Z" fill="#CECFDB"/>
<path d="M145.692 150.255C146.129 150.157 150.11 149.217 150.363 149.387C150.363 150.021 150.365 170.905 150.362 170.967C150.358 171.089 150.194 171.206 149.905 171.271L131.928 175.309C131.49 175.408 130.93 175.349 130.678 175.179C130.595 175.123 130.555 175.062 130.555 175.002C130.554 174.879 130.555 154.028 130.555 153.427L145.692 150.255Z" fill="url(#paint20_radial_3_443)"/>
<path d="M148.993 149.078C149.43 148.98 149.99 149.038 150.243 149.209C150.495 149.379 150.345 149.597 149.908 149.695L131.93 153.733C131.493 153.831 130.933 153.773 130.68 153.603C130.428 153.432 130.578 153.215 131.015 153.116L148.993 149.078Z" fill="#CECFDB"/>
<path d="M153.319 158.119C153.319 159.821 153.322 179.537 153.319 179.695C153.319 179.725 153.309 179.755 153.288 179.785C153.157 179.974 152.655 180.087 152.167 180.036L132.116 177.946C131.71 177.904 131.441 177.761 131.438 177.605C131.437 177.574 131.438 158.102 131.438 156.032C131.861 155.915 135.311 156.282 137.311 156.666L153.319 158.119Z" fill="url(#paint21_radial_3_443)"/>
<path d="M152.64 157.772C153.128 157.823 153.417 158.018 153.287 158.208C153.156 158.398 152.654 158.511 152.166 158.46L132.115 156.37C131.627 156.319 131.337 156.123 131.468 155.934C131.599 155.744 132.1 155.631 132.588 155.682L152.64 157.772Z" fill="#CECFDB"/>
<path d="M139.542 165.096C139.542 165.647 139.544 186.618 139.542 186.681C139.537 186.802 139.374 186.919 139.084 186.984C138.647 187.082 138.087 187.024 137.834 186.854L127.455 179.86C127.372 179.804 127.333 179.743 127.332 179.683C127.332 179.56 127.332 158.902 127.332 158.101C127.77 158.003 131.597 159.235 132.26 161.139L139.542 165.096Z" fill="url(#paint22_radial_3_443)"/>
<path d="M139.418 164.921C139.67 165.091 139.52 165.309 139.083 165.407C138.645 165.506 138.085 165.447 137.833 165.277L127.453 158.283C127.201 158.113 127.351 157.895 127.788 157.797C128.226 157.699 128.786 157.757 129.038 157.927L139.418 164.921Z" fill="#CECFDB"/>
<path d="M130.613 146.011C131.177 145.111 131.924 144.508 132.412 144.559C132.412 145.827 132.412 166.01 132.412 166.138C132.411 166.167 132.401 166.197 132.38 166.226L127.008 174.027C126.877 174.217 126.375 174.33 125.887 174.279C125.482 174.237 125.214 174.095 125.209 173.939C125.208 173.907 125.207 152.421 125.207 152.354L130.613 146.011Z" fill="url(#paint23_radial_3_443)"/>
<path d="M130.611 144.465C130.742 144.275 131.244 144.163 131.732 144.213C132.22 144.264 132.51 144.459 132.379 144.649L127.006 152.45C126.875 152.64 126.374 152.753 125.885 152.702C125.397 152.651 125.108 152.456 125.238 152.266L130.611 144.465Z" fill="#CECFDB"/>
<path d="M108.275 167.461C108.192 167.405 108.153 167.344 108.152 167.284C108.152 166.027 108.153 148.699 108.153 145.711C108.59 145.612 111.66 147.56 111.913 147.731L120.362 152.705C120.362 153.089 120.362 173.672 120.362 174.28C120.359 174.402 120.195 174.52 119.904 174.585C119.467 174.684 118.907 174.625 118.654 174.455L108.275 167.461Z" fill="url(#paint24_radial_3_443)"/>
<path d="M108.274 145.884C108.021 145.714 108.171 145.496 108.609 145.398C109.046 145.3 109.606 145.358 109.859 145.528L120.238 152.523C120.491 152.693 120.341 152.911 119.903 153.009C119.465 153.107 118.906 153.049 118.653 152.879L108.274 145.884Z" fill="#CECFDB"/>
<path d="M95.0495 174.606C94.6396 174.564 94.3697 174.419 94.3711 174.262C94.3714 174.232 94.3725 152.855 94.3725 152.688C94.5033 152.498 99.2042 153.171 99.6924 153.222L116.252 154.775C116.252 155.092 116.252 176.076 116.252 176.359C116.251 176.388 116.241 176.416 116.221 176.445C116.09 176.635 115.589 176.748 115.101 176.697L95.0495 174.606Z" fill="url(#paint25_radial_3_443)"/>
<path d="M95.0518 153.035C94.5637 152.984 94.274 152.789 94.4048 152.599C94.5356 152.409 95.0373 152.296 95.5254 152.347L115.577 154.437C116.065 154.488 116.354 154.683 116.224 154.873C116.093 155.063 115.591 155.176 115.103 155.125L95.0518 153.035Z" fill="#CECFDB"/>
<path d="M98.6959 183.303C98.2583 183.402 97.6987 183.343 97.446 183.173C97.3665 183.119 97.3269 183.061 97.3235 183.003C97.3163 182.878 97.3235 161.919 97.3235 161.419L115.758 157.612C116.196 157.514 116.878 157.208 117.131 157.379C117.131 158.314 117.132 178.898 117.131 178.959C117.128 179.081 116.965 179.2 116.673 179.265L98.6959 183.303Z" fill="url(#paint26_radial_3_443)"/>
<path d="M98.6947 161.727C98.2571 161.826 97.6975 161.767 97.4449 161.597C97.1922 161.427 97.3421 161.209 97.7798 161.111L115.757 157.073C116.195 156.974 116.754 157.033 117.007 157.203C117.26 157.373 117.11 157.591 116.672 157.689L98.6947 161.727Z" fill="#CECFDB"/>
<path d="M117.076 188.447C116.946 188.637 116.444 188.75 115.956 188.699C115.546 188.656 115.276 188.512 115.277 188.354C115.278 188.324 115.277 168.413 115.277 166.777L120.66 160.1C120.791 159.91 121.992 158.931 122.48 158.981C122.48 159.065 122.48 180.366 122.48 180.56C122.479 180.588 122.469 180.617 122.449 180.646L117.076 188.447Z" fill="url(#paint27_radial_3_443)"/>
<path d="M117.077 166.871C116.946 167.061 116.444 167.174 115.956 167.123C115.468 167.072 115.178 166.877 115.309 166.687L120.682 158.886C120.813 158.696 121.314 158.583 121.802 158.634C122.29 158.685 122.58 158.88 122.449 159.07L117.077 166.871Z" fill="#CECFDB"/>
<path d="M145.692 150.784C146.129 150.686 150.11 149.746 150.363 149.916C150.363 150.55 150.365 171.435 150.362 171.497C150.358 171.618 150.194 171.735 149.905 171.8L131.928 175.839C131.49 175.937 130.93 175.878 130.678 175.708C130.595 175.652 130.555 175.591 130.555 175.531C130.554 175.408 130.555 154.557 130.555 153.956L145.692 150.784Z" fill="url(#paint28_radial_3_443)"/>
<path d="M148.993 149.608C149.43 149.509 149.99 149.568 150.243 149.738C150.495 149.908 150.345 150.126 149.908 150.224L131.93 154.262C131.493 154.361 130.933 154.302 130.68 154.132C130.428 153.962 130.578 153.744 131.015 153.646L148.993 149.608Z" fill="#CECFDB"/>
<path d="M153.319 158.648C153.319 160.351 153.322 180.066 153.319 180.224C153.319 180.254 153.309 180.284 153.288 180.314C153.157 180.504 152.655 180.616 152.167 180.566L132.116 178.475C131.71 178.433 131.441 178.291 131.438 178.135C131.437 178.103 131.438 158.631 131.438 156.561C131.861 156.444 135.311 156.812 137.311 157.195L153.319 158.648Z" fill="url(#paint29_radial_3_443)"/>
<path d="M152.64 158.301C153.128 158.352 153.417 158.547 153.287 158.737C153.156 158.927 152.654 159.04 152.166 158.989L132.115 156.899C131.627 156.848 131.337 156.653 131.468 156.463C131.599 156.273 132.1 156.16 132.588 156.211L152.64 158.301Z" fill="#CECFDB"/>
<path d="M139.542 165.625C139.542 166.176 139.544 187.148 139.542 187.21C139.537 187.331 139.374 187.448 139.084 187.513C138.647 187.612 138.087 187.553 137.834 187.383L127.455 180.389C127.372 180.333 127.333 180.272 127.332 180.212C127.332 180.089 127.332 159.432 127.332 158.63C127.77 158.532 131.597 159.764 132.26 161.669L139.542 165.625Z" fill="url(#paint30_radial_3_443)"/>
<path d="M139.418 165.451C139.67 165.621 139.52 165.838 139.083 165.937C138.645 166.035 138.085 165.977 137.833 165.806L127.453 158.812C127.201 158.642 127.351 158.424 127.788 158.326C128.226 158.228 128.786 158.286 129.038 158.456L139.418 165.451Z" fill="#CECFDB"/>
<path d="M130.613 105.501C131.177 104.601 131.924 103.998 132.412 104.049C132.412 105.317 132.412 125.5 132.412 125.628C132.411 125.657 132.401 125.687 132.38 125.716L127.008 133.517C126.877 133.707 126.375 133.82 125.887 133.769C125.482 133.727 125.214 133.585 125.209 133.43C125.208 133.398 125.207 111.911 125.207 111.845L130.613 105.501Z" fill="url(#paint31_radial_3_443)"/>
<path d="M130.611 103.955C130.742 103.765 131.244 103.653 131.732 103.704C132.22 103.755 132.51 103.95 132.379 104.14L127.006 111.941C126.875 112.13 126.374 112.243 125.885 112.192C125.397 112.141 125.108 111.946 125.238 111.756L130.611 103.955Z" fill="#CECFDB"/>
<path d="M108.275 126.951C108.192 126.895 108.153 126.835 108.152 126.775C108.152 125.517 108.153 108.189 108.153 105.201C108.59 105.103 111.66 107.051 111.913 107.221L120.362 112.195C120.362 112.579 120.362 133.163 120.362 133.77C120.359 133.892 120.195 134.01 119.904 134.076C119.467 134.174 118.907 134.116 118.654 133.945L108.275 126.951Z" fill="url(#paint32_radial_3_443)"/>
<path d="M108.274 105.375C108.021 105.204 108.171 104.987 108.609 104.888C109.046 104.79 109.606 104.848 109.859 105.019L120.238 112.013C120.491 112.183 120.341 112.401 119.903 112.499C119.465 112.597 118.906 112.539 118.653 112.369L108.274 105.375Z" fill="#CECFDB"/>
<path d="M95.0495 134.097C94.6396 134.054 94.3697 133.91 94.3711 133.752C94.3714 133.722 94.3725 112.345 94.3725 112.178C94.5033 111.988 99.2042 112.662 99.6924 112.712L116.252 114.265C116.252 114.582 116.252 135.566 116.252 135.85C116.251 135.878 116.241 135.907 116.221 135.935C116.09 136.125 115.589 136.238 115.101 136.187L95.0495 134.097Z" fill="url(#paint33_radial_3_443)"/>
<path d="M95.0518 112.525C94.5637 112.474 94.274 112.279 94.4048 112.089C94.5356 111.899 95.0373 111.786 95.5254 111.837L115.577 113.927C116.065 113.978 116.354 114.173 116.224 114.363C116.093 114.553 115.591 114.666 115.103 114.615L95.0518 112.525Z" fill="#CECFDB"/>
<path d="M98.6959 142.794C98.2583 142.892 97.6987 142.834 97.446 142.663C97.3665 142.61 97.3269 142.551 97.3235 142.494C97.3163 142.368 97.3235 121.41 97.3235 120.909L115.758 117.103C116.196 117.004 116.878 116.699 117.131 116.869C117.131 117.804 117.132 138.388 117.131 138.45C117.128 138.572 116.965 138.69 116.673 138.756L98.6959 142.794Z" fill="url(#paint34_radial_3_443)"/>
<path d="M98.6947 121.218C98.2571 121.316 97.6975 121.257 97.4449 121.087C97.1922 120.917 97.3421 120.699 97.7798 120.601L115.757 116.563C116.195 116.465 116.754 116.523 117.007 116.693C117.26 116.863 117.11 117.081 116.672 117.179L98.6947 121.218Z" fill="#CECFDB"/>
<path d="M117.076 147.937C116.946 148.127 116.444 148.24 115.956 148.189C115.546 148.146 115.276 148.002 115.277 147.844C115.278 147.814 115.277 127.903 115.277 126.268L120.66 119.59C120.791 119.4 121.992 118.421 122.48 118.472C122.48 118.555 122.48 139.856 122.48 140.05C122.479 140.079 122.469 140.108 122.449 140.136L117.076 147.937Z" fill="url(#paint35_radial_3_443)"/>
<path d="M117.077 126.361C116.946 126.551 116.444 126.664 115.956 126.613C115.468 126.562 115.178 126.367 115.309 126.177L120.682 118.376C120.813 118.186 121.314 118.073 121.802 118.124C122.29 118.175 122.58 118.37 122.449 118.56L117.077 126.361Z" fill="#CECFDB"/>
<path d="M145.692 110.274C146.129 110.176 150.11 109.236 150.363 109.406C150.363 110.041 150.365 130.925 150.362 130.987C150.358 131.108 150.194 131.226 149.905 131.291L131.928 135.329C131.49 135.427 130.93 135.369 130.678 135.198C130.595 135.143 130.555 135.082 130.555 135.022C130.554 134.898 130.555 114.047 130.555 113.446L145.692 110.274Z" fill="url(#paint36_radial_3_443)"/>
<path d="M148.993 109.098C149.43 109 149.99 109.058 150.243 109.228C150.495 109.398 150.345 109.616 149.908 109.714L131.93 113.753C131.493 113.851 130.933 113.792 130.68 113.622C130.428 113.452 130.578 113.234 131.015 113.136L148.993 109.098Z" fill="#CECFDB"/>
<path d="M153.319 118.138C153.319 119.841 153.322 139.556 153.319 139.714C153.319 139.744 153.309 139.774 153.288 139.804C153.157 139.994 152.655 140.107 152.167 140.056L132.116 137.966C131.71 137.923 131.441 137.781 131.438 137.625C131.437 137.593 131.438 118.121 131.438 116.051C131.861 115.934 135.311 116.302 137.311 116.686L153.319 118.138Z" fill="url(#paint37_radial_3_443)"/>
<path d="M152.64 117.792C153.128 117.843 153.417 118.038 153.287 118.228C153.156 118.418 152.654 118.53 152.166 118.479L132.115 116.389C131.627 116.338 131.337 116.143 131.468 115.953C131.599 115.763 132.1 115.651 132.588 115.701L152.64 117.792Z" fill="#CECFDB"/>
<path d="M139.542 125.115C139.542 125.666 139.544 146.638 139.542 146.7C139.537 146.821 139.374 146.939 139.084 147.004C138.647 147.102 138.087 147.044 137.834 146.873L127.455 139.879C127.372 139.823 127.333 139.763 127.332 139.702C127.332 139.579 127.332 118.922 127.332 118.121C127.77 118.022 131.597 119.254 132.26 121.159L139.542 125.115Z" fill="url(#paint38_radial_3_443)"/>
<path d="M139.418 124.941C139.67 125.111 139.52 125.329 139.083 125.427C138.645 125.525 138.085 125.467 137.833 125.297L127.453 118.303C127.201 118.132 127.351 117.915 127.788 117.816C128.226 117.718 128.786 117.776 129.038 117.947L139.418 124.941Z" fill="#CECFDB"/>
<path d="M130.613 64.9913C131.177 64.0911 131.924 63.4881 132.412 63.539C132.412 64.8077 132.412 84.9902 132.412 85.1185C132.411 85.1476 132.401 85.1772 132.38 85.2067L127.008 93.0076C126.877 93.1975 126.375 93.3101 125.887 93.2593C125.482 93.217 125.214 93.0753 125.209 92.9198C125.208 92.888 125.207 71.4016 125.207 71.3348L130.613 64.9913Z" fill="url(#paint39_radial_3_443)"/>
<path d="M130.611 63.4456C130.742 63.2557 131.244 63.143 131.732 63.1939C132.22 63.2447 132.51 63.4399 132.379 63.6298L127.006 71.4307C126.875 71.6206 126.374 71.7333 125.885 71.6825C125.397 71.6316 125.108 71.4364 125.238 71.2465L130.611 63.4456Z" fill="#CECFDB"/>
<path d="M108.275 86.4415C108.192 86.3857 108.153 86.3249 108.152 86.2648C108.152 85.0073 108.153 67.6792 108.153 64.6911C108.59 64.5928 111.66 66.5408 111.913 66.711L120.362 71.6857C120.362 72.0696 120.362 92.6528 120.362 93.2607C120.359 93.3825 120.195 93.5005 119.904 93.5659C119.467 93.6642 118.907 93.6058 118.654 93.4356L108.275 86.4415Z" fill="url(#paint40_radial_3_443)"/>
<path d="M108.274 64.8649C108.021 64.6947 108.171 64.477 108.609 64.3787C109.046 64.2804 109.606 64.3387 109.859 64.5089L120.238 71.5031C120.491 71.6733 120.341 71.891 119.903 71.9893C119.465 72.0876 118.906 72.0293 118.653 71.859L108.274 64.8649Z" fill="#CECFDB"/>
<path d="M95.0495 93.587C94.6396 93.5442 94.3697 93.3998 94.3711 93.2421C94.3714 93.212 94.3725 71.8354 94.3725 71.6685C94.5033 71.4786 99.2042 72.1518 99.6924 72.2027L116.252 73.7551C116.252 74.0722 116.252 95.056 116.252 95.3398C116.251 95.3682 116.241 95.3969 116.221 95.4255C116.09 95.6154 115.589 95.7281 115.101 95.6772L95.0495 93.587Z" fill="url(#paint41_radial_3_443)"/>
<path d="M95.0518 72.015C94.5637 71.9642 94.274 71.769 94.4048 71.5791C94.5356 71.3892 95.0373 71.2765 95.5254 71.3274L115.577 73.4176C116.065 73.4685 116.354 73.6637 116.224 73.8536C116.093 74.0435 115.591 74.1562 115.103 74.1053L95.0518 72.015Z" fill="#CECFDB"/>
<path d="M98.6959 102.284C98.2583 102.382 97.6987 102.324 97.446 102.154C97.3665 102.1 97.3269 102.042 97.3235 101.984C97.3163 101.858 97.3235 80.8999 97.3235 80.3991L115.758 76.5929C116.196 76.4946 116.878 76.189 117.131 76.3592C117.131 77.2941 117.132 97.8786 117.131 97.9399C117.128 98.062 116.965 98.1803 116.673 98.2457L98.6959 102.284Z" fill="url(#paint42_radial_3_443)"/>
<path d="M98.6947 80.7078C98.2571 80.8061 97.6975 80.7477 97.4449 80.5775C97.1922 80.4072 97.3421 80.1895 97.7798 80.0912L115.757 76.0531C116.195 75.9548 116.754 76.0132 117.007 76.1834C117.26 76.3537 117.11 76.5714 116.672 76.6697L98.6947 80.7078Z" fill="#CECFDB"/>
<path d="M117.076 107.428C116.946 107.618 116.444 107.73 115.956 107.679C115.546 107.637 115.276 107.492 115.277 107.335C115.278 107.304 115.277 87.3937 115.277 85.7578L120.66 79.0803C120.791 78.8904 121.992 77.911 122.48 77.9619C122.48 78.0453 122.48 99.3463 122.48 99.5404C122.479 99.5689 122.469 99.5979 122.449 99.6267L117.076 107.428Z" fill="url(#paint43_radial_3_443)"/>
<path d="M117.077 85.8515C116.946 86.0414 116.444 86.1541 115.956 86.1032C115.468 86.0523 115.178 85.8571 115.309 85.6672L120.682 77.8663C120.813 77.6764 121.314 77.5637 121.802 77.6146C122.29 77.6655 122.58 77.8607 122.449 78.0506L117.077 85.8515Z" fill="#CECFDB"/>
<path d="M145.692 69.7646C146.129 69.6663 150.11 68.7263 150.363 68.8965C150.363 69.5309 150.365 90.4152 150.362 90.4772C150.358 90.5985 150.194 90.7159 149.905 90.781L131.928 94.819C131.49 94.9173 130.93 94.859 130.678 94.6887C130.595 94.6329 130.555 94.5719 130.555 94.5118C130.554 94.3885 130.555 73.5375 130.555 72.9365L145.692 69.7646Z" fill="url(#paint44_radial_3_443)"/>
<path d="M148.993 68.5881C149.43 68.4898 149.99 68.5482 150.243 68.7184C150.495 68.8887 150.345 69.1064 149.908 69.2047L131.93 73.2428C131.493 73.3411 130.933 73.2827 130.68 73.1125C130.428 72.9422 130.578 72.7245 131.015 72.6262L148.993 68.5881Z" fill="#CECFDB"/>
<path d="M153.319 77.6283C153.319 79.331 153.322 99.0464 153.319 99.2047C153.319 99.2343 153.309 99.2644 153.288 99.2943C153.157 99.4842 152.655 99.5969 152.167 99.546L132.116 97.4558C131.71 97.4134 131.441 97.2711 131.438 97.115C131.437 97.0836 131.438 77.6116 131.438 75.5416C131.861 75.4247 135.311 75.792 137.311 76.1759L153.319 77.6283Z" fill="url(#paint45_radial_3_443)"/>
<path d="M152.64 77.2819C153.128 77.3328 153.417 77.528 153.287 77.7179C153.156 77.9078 152.654 78.0205 152.166 77.9696L132.115 75.8793C131.627 75.8284 131.337 75.6333 131.468 75.4434C131.599 75.2535 132.1 75.1408 132.588 75.1916L152.64 77.2819Z" fill="#CECFDB"/>
<path d="M139.542 84.6055C139.542 85.1563 139.544 106.128 139.542 106.19C139.537 106.312 139.374 106.429 139.084 106.494C138.647 106.592 138.087 106.534 137.834 106.364L127.455 99.3695C127.372 99.3137 127.333 99.2528 127.332 99.1927C127.332 99.0693 127.332 78.4122 127.332 77.6109C127.77 77.5127 131.597 78.7447 132.26 80.6492L139.542 84.6055Z" fill="url(#paint46_radial_3_443)"/>
<path d="M139.418 84.431C139.67 84.6012 139.52 84.8189 139.083 84.9172C138.645 85.0155 138.085 84.9572 137.833 84.7869L127.453 77.7928C127.201 77.6226 127.351 77.4049 127.788 77.3066C128.226 77.2083 128.786 77.2666 129.038 77.4369L139.418 84.431Z" fill="#CECFDB"/>
<path d="M130.613 24.4815C131.177 23.5813 131.924 22.9784 132.412 23.0292C132.412 24.2979 132.412 44.4805 132.412 44.6087C132.411 44.6379 132.401 44.6674 132.38 44.6969L127.008 52.4978C126.877 52.6877 126.375 52.8004 125.887 52.7495C125.482 52.7073 125.214 52.5656 125.209 52.41C125.208 52.3782 125.207 30.8918 125.207 30.8251L130.613 24.4815Z" fill="url(#paint47_radial_3_443)"/>
<path d="M130.611 22.9358C130.742 22.7459 131.244 22.6332 131.732 22.6841C132.22 22.735 132.51 22.9302 132.379 23.1201L127.006 30.921C126.875 31.1109 126.374 31.2236 125.885 31.1727C125.397 31.1218 125.108 30.9266 125.238 30.7367L130.611 22.9358Z" fill="#CECFDB"/>
<path d="M108.275 45.9317C108.192 45.876 108.153 45.8151 108.152 45.7551C108.152 44.4975 108.153 27.1695 108.153 24.1813C108.59 24.083 111.66 26.031 111.913 26.2013L120.362 31.1759C120.362 31.5599 120.362 52.143 120.362 52.7509C120.359 52.8727 120.195 52.9908 119.904 53.0561C119.467 53.1544 118.907 53.0961 118.654 52.9258L108.275 45.9317Z" fill="url(#paint48_radial_3_443)"/>
<path d="M108.274 24.3552C108.021 24.1849 108.171 23.9672 108.609 23.8689C109.046 23.7706 109.606 23.8289 109.859 23.9992L120.238 30.9933C120.491 31.1636 120.341 31.3813 119.903 31.4796C119.465 31.5779 118.906 31.5195 118.653 31.3493L108.274 24.3552Z" fill="#CECFDB"/>
<path d="M95.0495 53.0772C94.6396 53.0345 94.3697 52.8901 94.3711 52.7324C94.3714 52.7023 94.3725 31.3257 94.3725 31.1588C94.5033 30.9689 99.2042 31.6421 99.6924 31.693L116.252 33.2454C116.252 33.5625 116.252 54.5463 116.252 54.8301C116.251 54.8585 116.241 54.8872 116.221 54.9158C116.09 55.1057 115.589 55.2184 115.101 55.1675L95.0495 53.0772Z" fill="url(#paint49_radial_3_443)"/>
<path d="M95.0518 31.5053C94.5637 31.4545 94.274 31.2593 94.4048 31.0694C94.5356 30.8795 95.0373 30.7668 95.5254 30.8177L115.577 32.9079C116.065 32.9588 116.354 33.154 116.224 33.3439C116.093 33.5338 115.591 33.6465 115.103 33.5956L95.0518 31.5053Z" fill="#CECFDB"/>
<path d="M98.6959 61.774C98.2583 61.8723 97.6987 61.814 97.446 61.6437C97.3665 61.5901 97.3269 61.5318 97.3235 61.4741C97.3163 61.3482 97.3235 40.3901 97.3235 39.8893L115.758 36.0832C116.196 35.9849 116.878 35.6792 117.131 35.8495C117.131 36.7843 117.132 57.3689 117.131 57.4301C117.128 57.5522 116.965 57.6705 116.673 57.736L98.6959 61.774Z" fill="url(#paint50_radial_3_443)"/>
<path d="M98.6947 40.198C98.2571 40.2963 97.6975 40.238 97.4449 40.0677C97.1922 39.8974 97.3421 39.6797 97.7798 39.5814L115.757 35.5434C116.195 35.4451 116.754 35.5034 117.007 35.6737C117.26 35.8439 117.11 36.0616 116.672 36.1599L98.6947 40.198Z" fill="#CECFDB"/>
<path d="M117.076 66.9179C116.946 67.1078 116.444 67.2205 115.956 67.1696C115.546 67.1269 115.276 66.9824 115.277 66.8248C115.278 66.7947 115.277 46.884 115.277 45.248L120.66 38.5706C120.791 38.3807 121.992 37.4012 122.48 37.4521C122.48 37.5355 122.48 58.8365 122.48 59.0306C122.479 59.0592 122.469 59.0881 122.449 59.1169L117.076 66.9179Z" fill="url(#paint51_radial_3_443)"/>
<path d="M117.077 45.3417C116.946 45.5316 116.444 45.6443 115.956 45.5934C115.468 45.5425 115.178 45.3473 115.309 45.1574L120.682 37.3565C120.813 37.1666 121.314 37.0539 121.802 37.1048C122.29 37.1557 122.58 37.3509 122.449 37.5408L117.077 45.3417Z" fill="#CECFDB"/>
<path d="M145.692 29.2548C146.129 29.1565 150.11 28.2165 150.363 28.3868C150.363 29.0211 150.365 49.9055 150.362 49.9674C150.358 50.0887 150.194 50.2061 149.905 50.2712L131.928 54.3092C131.49 54.4075 130.93 54.3492 130.678 54.1789C130.595 54.1231 130.555 54.0622 130.555 54.002C130.554 53.8787 130.555 33.0277 130.555 32.4267L145.692 29.2548Z" fill="url(#paint52_radial_3_443)"/>
<path d="M148.993 28.0784C149.43 27.9801 149.99 28.0384 150.243 28.2087C150.495 28.3789 150.345 28.5966 149.908 28.6949L131.93 32.733C131.493 32.8313 130.933 32.773 130.68 32.6027C130.428 32.4324 130.578 32.2147 131.015 32.1164L148.993 28.0784Z" fill="#CECFDB"/>
<path d="M153.319 37.1185C153.319 38.8213 153.322 58.5367 153.319 58.6949C153.319 58.7245 153.309 58.7546 153.288 58.7845C153.157 58.9744 152.655 59.0871 152.167 59.0363L132.116 56.946C131.71 56.9037 131.441 56.7613 131.438 56.6053C131.437 56.5738 131.438 37.1018 131.438 35.0318C131.861 34.915 135.311 35.2822 137.311 35.6662L153.319 37.1185Z" fill="url(#paint53_radial_3_443)"/>
<path d="M152.64 36.7721C153.128 36.823 153.417 37.0182 153.287 37.2081C153.156 37.398 152.654 37.5107 152.166 37.4598L132.115 35.3696C131.627 35.3187 131.337 35.1235 131.468 34.9336C131.599 34.7437 132.1 34.631 132.588 34.6819L152.64 36.7721Z" fill="#CECFDB"/>
<path d="M139.542 44.0957C139.542 44.6466 139.544 65.6185 139.542 65.6805C139.537 65.8018 139.374 65.9191 139.084 65.9841C138.647 66.0824 138.087 66.0241 137.834 65.8538L127.455 58.8597C127.372 58.8039 127.333 58.743 127.332 58.6829C127.332 58.5596 127.332 37.9025 127.332 37.1012C127.77 37.0029 131.597 38.2349 132.26 40.1394L139.542 44.0957Z" fill="url(#paint54_radial_3_443)"/>
<path d="M139.418 43.9212C139.67 44.0915 139.52 44.3092 139.083 44.4075C138.645 44.5058 138.085 44.4474 137.833 44.2772L127.453 37.2831C127.201 37.1128 127.351 36.8951 127.788 36.7968C128.226 36.6985 128.786 36.7568 129.038 36.9271L139.418 43.9212Z" fill="#CECFDB"/>
<rect x="94.168" y="59.9863" width="59.3667" height="127.639" fill="url(#paint55_radial_3_443)"/>
<path d="M74.7343 186.006L90.1928 185.802C90.6415 185.796 91.0053 185.632 91.0289 185.424C91.0297 185.416 91.0301 185.409 91.0301 185.402C91.0299 185.176 91.0289 77.4727 91.0289 64.8857L73.9943 65.1528C73.9943 67.4732 73.9896 185.497 73.9943 185.676C73.9992 185.863 74.3325 186.011 74.7343 186.006Z" fill="#000002"/>
<path d="M91.0352 65.3613V183.719" stroke="url(#paint56_linear_3_443)" stroke-width="0.8" stroke-linecap="round"/>
<path d="M74 65.8281V184.185" stroke="url(#paint57_linear_3_443)" stroke-width="0.8" stroke-linecap="round"/>
<path d="M74.7359 65.4866L90.1943 65.2829C90.643 65.277 91.0068 65.1123 91.0304 64.9045C91.0572 64.6685 90.6387 64.4733 90.1295 64.4844L74.6818 64.8198C74.2944 64.8282 73.9911 64.9774 73.9958 65.1572C74.0007 65.3436 74.334 65.4919 74.7359 65.4866Z" fill="#8C8EA5"/>
<path fill-rule="evenodd" clip-rule="evenodd" d="M194.886 204.284C197.906 201.682 197.193 198.653 193.009 196.308L160.179 177.901C158.721 181.509 153.733 184.902 145.555 187.228C145.227 187.321 144.896 187.412 144.562 187.5L173.149 201.955C177.625 204.218 184.825 205.402 192.115 205.072C193.33 205.017 194.382 204.718 194.886 204.284Z" fill="#CECFDB"/>
<path opacity="0.5" fill-rule="evenodd" clip-rule="evenodd" d="M144.562 66.9808L144.652 66.9569V187.475C144.622 187.483 144.592 187.491 144.562 187.499L144.563 66.9892L144.579 66.9892L144.562 66.9808ZM144.652 187.545V187.545L144.562 187.5V187.499L144.652 187.545ZM160.186 195.399V195.4L173.149 201.955C177.625 204.218 184.825 205.401 192.115 205.072C193.33 205.017 194.382 204.717 194.886 204.283C195.692 203.589 196.232 202.864 196.511 202.13C196.232 202.864 195.692 203.589 194.886 204.283C194.382 204.717 193.33 205.016 192.115 205.071C184.825 205.401 177.625 204.218 173.149 201.955L160.186 195.399ZM196.736 200.938C196.735 199.594 196.735 126.045 196.735 94.0925V93.1764L196.735 80.4784C196.765 78.829 195.504 77.1873 193.009 75.7882L160.186 57.3853V177.904L193.009 196.307C195.475 197.689 196.735 199.309 196.736 200.938Z" fill="#CECFDB"/>
<path fill-rule="evenodd" clip-rule="evenodd" d="M196.735 80.4608C196.721 81.5828 196.111 82.7087 194.885 83.7646C194.382 84.1985 193.33 84.4977 192.114 84.5527C184.824 84.8822 177.624 83.699 173.149 81.436L144.579 66.9893C144.573 66.9893 144.568 66.9893 144.563 66.9893L144.562 187.5L173.149 201.955C177.625 204.218 184.825 205.401 192.115 205.072C193.33 205.017 194.382 204.717 194.886 204.284C196.126 203.215 196.737 202.074 196.736 200.938C196.735 199.581 196.735 124.65 196.735 93.1992C196.735 86.8845 196.735 82.3226 196.735 80.4608L196.735 80.4608Z" fill="#000002"/>
<path d="M196.73 80.9531V199.31" stroke="url(#paint58_linear_3_443)" stroke-width="0.8" stroke-linecap="round"/>
<path d="M144.566 67.165V185.522" stroke="url(#paint59_linear_3_443)" stroke-width="0.8" stroke-linecap="round"/>
<path d="M192.813 76.1372C194.866 77.2881 195.974 78.557 196.26 79.7719C196.537 80.9525 196.067 82.2192 194.625 83.4617C194.435 83.6252 194.108 83.788 193.658 83.9161C193.214 84.0423 192.678 84.1269 192.097 84.1532C184.846 84.4809 177.722 83.3001 173.33 81.0791L145.668 67.0917C149.781 65.9217 153.111 64.4785 155.604 62.8615C157.914 61.3638 159.53 59.7011 160.368 57.946L192.813 76.1372Z" fill="#000002" stroke="#8C8EA5" stroke-width="0.8" stroke-linejoin="round"/>
<path d="M132.931 198.223L138.131 191.344C138.159 191.307 138.173 191.269 138.173 191.232C138.174 191.07 138.173 72.4648 138.173 70.6953C136.369 71.7136 135.952 71.8138 135.585 72.8488L131.25 77.6064C131.25 81.663 131.25 198.101 131.25 198.131C131.252 198.273 131.488 198.403 131.853 198.447C132.31 198.503 132.796 198.402 132.931 198.223Z" fill="#000002"/>
<path d="M138.164 71.0039V189.361" stroke="url(#paint60_linear_3_443)" stroke-width="0.8" stroke-linecap="round"/>
<path d="M131.43 78.082V196.439" stroke="url(#paint61_linear_3_443)" stroke-width="0.8" stroke-linecap="round"/>
<path d="M132.931 77.7039L138.131 70.8245C138.282 70.6249 138.013 70.4135 137.514 70.3388C136.947 70.254 136.316 70.3782 136.155 70.6061L131.281 77.5215C131.158 77.6949 131.411 77.8748 131.853 77.9283C132.31 77.9838 132.796 77.8827 132.931 77.7039Z" fill="#8C8EA5"/>
<path opacity="0.5" fill-rule="evenodd" clip-rule="evenodd" d="M101.21 66.4298L101.222 66.4219V66.4335V83.5968V186.978L101.208 186.974L74.5071 201.965C72.0848 203.325 70.8286 204.914 70.7888 206.516V86.1282V86.0201V85.971C70.8286 84.3691 72.0848 82.7803 74.5071 81.4204L101.208 66.4292L101.21 66.4298ZM70.7888 206.673L70.789 206.681L70.7888 206.681V206.673Z" fill="#CECFDB"/>
<path d="M94.1967 86.7067C89.8083 88.9288 82.6864 90.1114 75.4352 89.7855C74.8533 89.7594 74.3174 89.6749 73.8734 89.5488C73.4226 89.4208 73.0957 89.2581 72.9055 89.0945C71.4615 87.8521 70.9886 86.5854 71.2644 85.4047C71.5482 84.19 72.6534 82.921 74.7041 81.7696L101.257 66.8618C101.524 66.9422 101.795 67.0213 102.069 67.0992C109.75 69.2805 118.855 70.1396 127.603 69.7915L94.1967 86.7067Z" fill="#000002" stroke="#8C8EA5" stroke-width="0.8" stroke-linejoin="round"/>
<path fill-rule="evenodd" clip-rule="evenodd" d="M94.3764 87.0629C89.9048 89.327 82.7069 90.512 75.4162 90.1844C74.2005 90.1297 73.1478 89.8308 72.6436 89.397C71.4141 88.3392 70.8015 87.2109 70.7882 86.0865L70.788 86.0866C70.788 87.5236 70.7878 92.5692 70.7875 99.836C70.7861 131.482 70.7828 205.253 70.788 206.581C70.7924 207.713 71.405 208.85 72.6436 209.916C73.1478 210.35 74.2004 210.649 75.4161 210.703C82.7068 211.031 89.9047 209.846 94.3763 207.582L129.462 189.816L129.462 69.3096C129.449 69.3123 129.435 69.315 129.422 69.3178L94.3764 87.0629Z" fill="#000002"/>
<path d="M129.469 69.6689V188.026" stroke="url(#paint62_linear_3_443)" stroke-width="0.8" stroke-linecap="round"/>
<path d="M70.8008 86.3955V204.753" stroke="url(#paint63_linear_3_443)" stroke-width="0.8" stroke-linecap="round"/>
<path d="M160.475 40.0298C154.51 41.8653 147.136 43.228 139.002 43.9872C130.871 44.7462 122.253 44.8766 113.916 44.3663C105.578 43.8559 97.7945 42.7215 91.2564 41.0705C84.699 39.4146 79.6744 37.3096 76.5546 34.9921C73.4267 32.6685 72.5572 30.4254 73.2028 28.4085C73.9045 26.2161 76.4785 23.8569 81.1819 21.6911C85.8233 19.5537 92.1597 17.7797 99.6497 16.5479C107.132 15.3173 115.497 14.6719 124 14.6719" stroke="#64A2FF" stroke-width="2" stroke-linecap="round" stroke-linejoin="round"/>
<path d="M124 14.6719H155" stroke="#64A2FF" stroke-width="2" stroke-linecap="round" stroke-linejoin="round"/>
<path d="M163.524 14.0181C163.985 14.1173 163.633 14.7649 163.059 14.8745L146.593 18.018C146.246 18.0844 146.061 17.8784 146.214 17.596L149.467 11.6093C149.62 11.327 150.033 11.115 150.311 11.175L163.524 14.0181Z" fill="#64A2FF" stroke="#64A2FF"/>
<defs>
<radialGradient id="paint0_radial_3_443" cx="0" cy="0" r="1" gradientUnits="userSpaceOnUse" gradientTransform="translate(120 83.6719) rotate(90) scale(80 120)">
<stop stop-color="#347DFE"/>
<stop offset="0.229167" stop-color="#347DFE"/>
<stop offset="1" stop-color="#347DFE" stop-opacity="0"/>
</radialGradient>
<linearGradient id="paint1_linear_3_443" x1="90.7344" y1="46.7565" x2="90.7344" y2="164.587" gradientUnits="userSpaceOnUse">
<stop stop-color="#8C8EA5"/>
<stop offset="1" stop-color="#8C8EA5" stop-opacity="0"/>
</linearGradient>
<linearGradient id="paint2_linear_3_443" x1="82.1992" y1="39.946" x2="82.1992" y2="157.777" gradientUnits="userSpaceOnUse">
<stop stop-color="#8C8EA5"/>
<stop offset="1" stop-color="#8C8EA5" stop-opacity="0"/>
</linearGradient>
<linearGradient id="paint3_linear_3_443" x1="23.6328" y1="48.6598" x2="23.6328" y2="166.491" gradientUnits="userSpaceOnUse">
<stop stop-color="#8C8EA5"/>
<stop offset="1" stop-color="#8C8EA5" stop-opacity="0"/>
</linearGradient>
<linearGradient id="paint4_linear_3_443" x1="90.7344" y1="61.8483" x2="90.7344" y2="179.679" gradientUnits="userSpaceOnUse">
<stop stop-color="#8C8EA5"/>
<stop offset="1" stop-color="#8C8EA5" stop-opacity="0"/>
</linearGradient>
<linearGradient id="paint5_linear_3_443" x1="89.168" y1="50.6486" x2="89.168" y2="60.5204" gradientUnits="userSpaceOnUse">
<stop stop-color="#8C8EA5"/>
<stop offset="1" stop-color="#8C8EA5" stop-opacity="0"/>
</linearGradient>
<linearGradient id="paint6_linear_3_443" x1="98.3984" y1="45.4878" x2="98.3984" y2="163.319" gradientUnits="userSpaceOnUse">
<stop stop-color="#8C8EA5"/>
<stop offset="1" stop-color="#8C8EA5" stop-opacity="0"/>
</linearGradient>
<linearGradient id="paint7_linear_3_443" x1="125.566" y1="41.4147" x2="125.566" y2="159.246" gradientUnits="userSpaceOnUse">
<stop stop-color="#8C8EA5"/>
<stop offset="1" stop-color="#8C8EA5" stop-opacity="0"/>
</linearGradient>
<linearGradient id="paint8_linear_3_443" x1="151" y1="35.6383" x2="151" y2="153.469" gradientUnits="userSpaceOnUse">
<stop stop-color="#8C8EA5"/>
<stop offset="1" stop-color="#8C8EA5" stop-opacity="0"/>
</linearGradient>
<linearGradient id="paint9_linear_3_443" x1="135.164" y1="40.4469" x2="135.164" y2="158.278" gradientUnits="userSpaceOnUse">
<stop stop-color="#8C8EA5"/>
<stop offset="1" stop-color="#8C8EA5" stop-opacity="0"/>
</linearGradient>
<linearGradient id="paint10_linear_3_443" x1="217.398" y1="39.612" x2="217.398" y2="157.443" gradientUnits="userSpaceOnUse">
<stop stop-color="#8C8EA5"/>
<stop offset="1" stop-color="#8C8EA5" stop-opacity="0"/>
</linearGradient>
<linearGradient id="paint11_linear_3_443" x1="159.867" y1="51.4313" x2="159.867" y2="169.262" gradientUnits="userSpaceOnUse">
<stop stop-color="#8C8EA5"/>
<stop offset="1" stop-color="#8C8EA5" stop-opacity="0"/>
</linearGradient>
<linearGradient id="paint12_linear_3_443" x1="141.035" y1="43.2174" x2="141.035" y2="161.048" gradientUnits="userSpaceOnUse">
<stop stop-color="#8C8EA5"/>
<stop offset="1" stop-color="#8C8EA5" stop-opacity="0"/>
</linearGradient>
<linearGradient id="paint13_linear_3_443" x1="182.801" y1="59.5103" x2="182.801" y2="177.341" gradientUnits="userSpaceOnUse">
<stop stop-color="#8C8EA5"/>
<stop offset="1" stop-color="#8C8EA5" stop-opacity="0"/>
</linearGradient>
<linearGradient id="paint14_linear_3_443" x1="165.469" y1="55.7047" x2="165.469" y2="173.535" gradientUnits="userSpaceOnUse">
<stop stop-color="#8C8EA5"/>
<stop offset="1" stop-color="#8C8EA5" stop-opacity="0"/>
</linearGradient>
<radialGradient id="paint15_radial_3_443" cx="0" cy="0" r="1" gradientUnits="userSpaceOnUse" gradientTransform="translate(125.204 151.925) rotate(90) scale(24.2557 5.87719)">
<stop stop-color="#8C8EA5"/>
<stop offset="1" stop-color="#000002"/>
</radialGradient>
<radialGradient id="paint16_radial_3_443" cx="0" cy="0" r="1" gradientUnits="userSpaceOnUse" gradientTransform="translate(108.141 145.165) rotate(90) scale(28.9466 12.2181)">
<stop stop-color="#8C8EA5"/>
<stop offset="1" stop-color="#000002"/>
</radialGradient>
<radialGradient id="paint17_radial_3_443" cx="0" cy="0" r="1" gradientUnits="userSpaceOnUse" gradientTransform="translate(95.9872 152.109) rotate(90) scale(34.2218 31.13)">
<stop stop-color="#8C8EA5"/>
<stop offset="1" stop-color="#000002"/>
</radialGradient>
<radialGradient id="paint18_radial_3_443" cx="0" cy="0" r="1" gradientUnits="userSpaceOnUse" gradientTransform="translate(97.3042 160.956) rotate(90) scale(26.9267 20.4991)">
<stop stop-color="#8C8EA5"/>
<stop offset="1" stop-color="#000002"/>
</radialGradient>
<radialGradient id="paint19_radial_3_443" cx="0" cy="0" r="1" gradientUnits="userSpaceOnUse" gradientTransform="translate(115.272 166.265) rotate(90) scale(26.0753 6.31717)">
<stop stop-color="#8C8EA5"/>
<stop offset="1" stop-color="#000002"/>
</radialGradient>
<radialGradient id="paint20_radial_3_443" cx="0" cy="0" r="1" gradientUnits="userSpaceOnUse" gradientTransform="translate(130.57 153.427) rotate(90) scale(24.2891 18.5118)">
<stop stop-color="#8C8EA5"/>
<stop offset="1" stop-color="#000002"/>
</radialGradient>
<radialGradient id="paint21_radial_3_443" cx="0" cy="0" r="1" gradientUnits="userSpaceOnUse" gradientTransform="translate(135.289 156.716) rotate(90) scale(24.4894 22.2935)">
<stop stop-color="#8C8EA5"/>
<stop offset="1" stop-color="#000002"/>
</radialGradient>
<radialGradient id="paint22_radial_3_443" cx="0" cy="0" r="1" gradientUnits="userSpaceOnUse" gradientTransform="translate(127.339 158.084) rotate(90) scale(28.9466 12.2153)">
<stop stop-color="#8C8EA5"/>
<stop offset="1" stop-color="#000002"/>
</radialGradient>
<radialGradient id="paint23_radial_3_443" cx="0" cy="0" r="1" gradientUnits="userSpaceOnUse" gradientTransform="translate(125.204 152.455) rotate(90) scale(24.2557 5.87719)">
<stop stop-color="#8C8EA5"/>
<stop offset="1" stop-color="#000002"/>
</radialGradient>
<radialGradient id="paint24_radial_3_443" cx="0" cy="0" r="1" gradientUnits="userSpaceOnUse" gradientTransform="translate(108.141 145.694) rotate(90) scale(28.9466 12.2181)">
<stop stop-color="#8C8EA5"/>
<stop offset="1" stop-color="#000002"/>
</radialGradient>
<radialGradient id="paint25_radial_3_443" cx="0" cy="0" r="1" gradientUnits="userSpaceOnUse" gradientTransform="translate(95.9872 152.638) rotate(90) scale(34.2218 31.13)">
<stop stop-color="#8C8EA5"/>
<stop offset="1" stop-color="#000002"/>
</radialGradient>
<radialGradient id="paint26_radial_3_443" cx="0" cy="0" r="1" gradientUnits="userSpaceOnUse" gradientTransform="translate(97.3042 161.485) rotate(90) scale(26.9267 20.4991)">
<stop stop-color="#8C8EA5"/>
<stop offset="1" stop-color="#000002"/>
</radialGradient>
<radialGradient id="paint27_radial_3_443" cx="0" cy="0" r="1" gradientUnits="userSpaceOnUse" gradientTransform="translate(115.272 166.794) rotate(90) scale(26.0753 6.31717)">
<stop stop-color="#8C8EA5"/>
<stop offset="1" stop-color="#000002"/>
</radialGradient>
<radialGradient id="paint28_radial_3_443" cx="0" cy="0" r="1" gradientUnits="userSpaceOnUse" gradientTransform="translate(130.57 153.956) rotate(90) scale(24.2891 18.5118)">
<stop stop-color="#8C8EA5"/>
<stop offset="1" stop-color="#000002"/>
</radialGradient>
<radialGradient id="paint29_radial_3_443" cx="0" cy="0" r="1" gradientUnits="userSpaceOnUse" gradientTransform="translate(135.289 157.246) rotate(90) scale(24.4894 22.2935)">
<stop stop-color="#8C8EA5"/>
<stop offset="1" stop-color="#000002"/>
</radialGradient>
<radialGradient id="paint30_radial_3_443" cx="0" cy="0" r="1" gradientUnits="userSpaceOnUse" gradientTransform="translate(127.339 158.614) rotate(90) scale(28.9466 12.2153)">
<stop stop-color="#8C8EA5"/>
<stop offset="1" stop-color="#000002"/>
</radialGradient>
<radialGradient id="paint31_radial_3_443" cx="0" cy="0" r="1" gradientUnits="userSpaceOnUse" gradientTransform="translate(125.204 111.945) rotate(90) scale(24.2557 5.87719)">
<stop stop-color="#8C8EA5"/>
<stop offset="1" stop-color="#000002"/>
</radialGradient>
<radialGradient id="paint32_radial_3_443" cx="0" cy="0" r="1" gradientUnits="userSpaceOnUse" gradientTransform="translate(108.141 105.184) rotate(90) scale(28.9466 12.2181)">
<stop stop-color="#8C8EA5"/>
<stop offset="1" stop-color="#000002"/>
</radialGradient>
<radialGradient id="paint33_radial_3_443" cx="0" cy="0" r="1" gradientUnits="userSpaceOnUse" gradientTransform="translate(95.9872 112.128) rotate(90) scale(34.2218 31.13)">
<stop stop-color="#8C8EA5"/>
<stop offset="1" stop-color="#000002"/>
</radialGradient>
<radialGradient id="paint34_radial_3_443" cx="0" cy="0" r="1" gradientUnits="userSpaceOnUse" gradientTransform="translate(97.3042 120.976) rotate(90) scale(26.9267 20.4991)">
<stop stop-color="#8C8EA5"/>
<stop offset="1" stop-color="#000002"/>
</radialGradient>
<radialGradient id="paint35_radial_3_443" cx="0" cy="0" r="1" gradientUnits="userSpaceOnUse" gradientTransform="translate(115.272 126.284) rotate(90) scale(26.0753 6.31717)">
<stop stop-color="#8C8EA5"/>
<stop offset="1" stop-color="#000002"/>
</radialGradient>
<radialGradient id="paint36_radial_3_443" cx="0" cy="0" r="1" gradientUnits="userSpaceOnUse" gradientTransform="translate(130.57 113.446) rotate(90) scale(24.2891 18.5118)">
<stop stop-color="#8C8EA5"/>
<stop offset="1" stop-color="#000002"/>
</radialGradient>
<radialGradient id="paint37_radial_3_443" cx="0" cy="0" r="1" gradientUnits="userSpaceOnUse" gradientTransform="translate(135.289 116.736) rotate(90) scale(24.4894 22.2935)">
<stop stop-color="#8C8EA5"/>
<stop offset="1" stop-color="#000002"/>
</radialGradient>
<radialGradient id="paint38_radial_3_443" cx="0" cy="0" r="1" gradientUnits="userSpaceOnUse" gradientTransform="translate(127.339 118.104) rotate(90) scale(28.9466 12.2153)">
<stop stop-color="#8C8EA5"/>
<stop offset="1" stop-color="#000002"/>
</radialGradient>
<radialGradient id="paint39_radial_3_443" cx="0" cy="0" r="1" gradientUnits="userSpaceOnUse" gradientTransform="translate(125.204 71.435) rotate(90) scale(24.2557 5.87719)">
<stop stop-color="#8C8EA5"/>
<stop offset="1" stop-color="#000002"/>
</radialGradient>
<radialGradient id="paint40_radial_3_443" cx="0" cy="0" r="1" gradientUnits="userSpaceOnUse" gradientTransform="translate(108.141 64.6744) rotate(90) scale(28.9466 12.2181)">
<stop stop-color="#8C8EA5"/>
<stop offset="1" stop-color="#000002"/>
</radialGradient>
<radialGradient id="paint41_radial_3_443" cx="0" cy="0" r="1" gradientUnits="userSpaceOnUse" gradientTransform="translate(95.9872 71.6184) rotate(90) scale(34.2218 31.13)">
<stop stop-color="#8C8EA5"/>
<stop offset="1" stop-color="#000002"/>
</radialGradient>
<radialGradient id="paint42_radial_3_443" cx="0" cy="0" r="1" gradientUnits="userSpaceOnUse" gradientTransform="translate(97.3042 80.4658) rotate(90) scale(26.9267 20.4991)">
<stop stop-color="#8C8EA5"/>
<stop offset="1" stop-color="#000002"/>
</radialGradient>
<radialGradient id="paint43_radial_3_443" cx="0" cy="0" r="1" gradientUnits="userSpaceOnUse" gradientTransform="translate(115.272 85.7745) rotate(90) scale(26.0753 6.31717)">
<stop stop-color="#8C8EA5"/>
<stop offset="1" stop-color="#000002"/>
</radialGradient>
<radialGradient id="paint44_radial_3_443" cx="0" cy="0" r="1" gradientUnits="userSpaceOnUse" gradientTransform="translate(130.57 72.9365) rotate(90) scale(24.2891 18.5118)">
<stop stop-color="#8C8EA5"/>
<stop offset="1" stop-color="#000002"/>
</radialGradient>
<radialGradient id="paint45_radial_3_443" cx="0" cy="0" r="1" gradientUnits="userSpaceOnUse" gradientTransform="translate(135.289 76.226) rotate(90) scale(24.4894 22.2935)">
<stop stop-color="#8C8EA5"/>
<stop offset="1" stop-color="#000002"/>
</radialGradient>
<radialGradient id="paint46_radial_3_443" cx="0" cy="0" r="1" gradientUnits="userSpaceOnUse" gradientTransform="translate(127.339 77.5942) rotate(90) scale(28.9466 12.2153)">
<stop stop-color="#8C8EA5"/>
<stop offset="1" stop-color="#000002"/>
</radialGradient>
<radialGradient id="paint47_radial_3_443" cx="0" cy="0" r="1" gradientUnits="userSpaceOnUse" gradientTransform="translate(125.204 30.9252) rotate(90) scale(24.2557 5.87719)">
<stop stop-color="#8C8EA5"/>
<stop offset="1" stop-color="#000002"/>
</radialGradient>
<radialGradient id="paint48_radial_3_443" cx="0" cy="0" r="1" gradientUnits="userSpaceOnUse" gradientTransform="translate(108.141 24.1647) rotate(90) scale(28.9466 12.2181)">
<stop stop-color="#8C8EA5"/>
<stop offset="1" stop-color="#000002"/>
</radialGradient>
<radialGradient id="paint49_radial_3_443" cx="0" cy="0" r="1" gradientUnits="userSpaceOnUse" gradientTransform="translate(95.9872 31.1087) rotate(90) scale(34.2218 31.13)">
<stop stop-color="#8C8EA5"/>
<stop offset="1" stop-color="#000002"/>
</radialGradient>
<radialGradient id="paint50_radial_3_443" cx="0" cy="0" r="1" gradientUnits="userSpaceOnUse" gradientTransform="translate(97.3042 39.9561) rotate(90) scale(26.9267 20.4991)">
<stop stop-color="#8C8EA5"/>
<stop offset="1" stop-color="#000002"/>
</radialGradient>
<radialGradient id="paint51_radial_3_443" cx="0" cy="0" r="1" gradientUnits="userSpaceOnUse" gradientTransform="translate(115.272 45.2647) rotate(90) scale(26.0753 6.31717)">
<stop stop-color="#8C8EA5"/>
<stop offset="1" stop-color="#000002"/>
</radialGradient>
<radialGradient id="paint52_radial_3_443" cx="0" cy="0" r="1" gradientUnits="userSpaceOnUse" gradientTransform="translate(130.57 32.4268) rotate(90) scale(24.2891 18.5118)">
<stop stop-color="#8C8EA5"/>
<stop offset="1" stop-color="#000002"/>
</radialGradient>
<radialGradient id="paint53_radial_3_443" cx="0" cy="0" r="1" gradientUnits="userSpaceOnUse" gradientTransform="translate(135.289 35.7163) rotate(90) scale(24.4894 22.2935)">
<stop stop-color="#8C8EA5"/>
<stop offset="1" stop-color="#000002"/>
</radialGradient>
<radialGradient id="paint54_radial_3_443" cx="0" cy="0" r="1" gradientUnits="userSpaceOnUse" gradientTransform="translate(127.339 37.0844) rotate(90) scale(28.9466 12.2153)">
<stop stop-color="#8C8EA5"/>
<stop offset="1" stop-color="#000002"/>
</radialGradient>
<radialGradient id="paint55_radial_3_443" cx="0" cy="0" r="1" gradientUnits="userSpaceOnUse" gradientTransform="translate(123.851 59.9863) rotate(90) scale(122.264 3527.76)">
<stop stop-color="#000002" stop-opacity="0"/>
<stop offset="1" stop-color="#000002"/>
</radialGradient>
<linearGradient id="paint56_linear_3_443" x1="91.5352" y1="65.8874" x2="91.5352" y2="183.718" gradientUnits="userSpaceOnUse">
<stop stop-color="#8C8EA5"/>
<stop offset="1" stop-color="#8C8EA5" stop-opacity="0"/>
</linearGradient>
<linearGradient id="paint57_linear_3_443" x1="74.5" y1="66.3542" x2="74.5" y2="184.185" gradientUnits="userSpaceOnUse">
<stop stop-color="#8C8EA5"/>
<stop offset="1" stop-color="#8C8EA5" stop-opacity="0"/>
</linearGradient>
<linearGradient id="paint58_linear_3_443" x1="197.23" y1="81.4792" x2="197.23" y2="199.31" gradientUnits="userSpaceOnUse">
<stop stop-color="#8C8EA5"/>
<stop offset="1" stop-color="#8C8EA5" stop-opacity="0"/>
</linearGradient>
<linearGradient id="paint59_linear_3_443" x1="145.066" y1="67.6911" x2="145.066" y2="185.522" gradientUnits="userSpaceOnUse">
<stop stop-color="#8C8EA5"/>
<stop offset="1" stop-color="#8C8EA5" stop-opacity="0"/>
</linearGradient>
<linearGradient id="paint60_linear_3_443" x1="138.664" y1="71.5299" x2="138.664" y2="189.361" gradientUnits="userSpaceOnUse">
<stop stop-color="#8C8EA5"/>
<stop offset="1" stop-color="#8C8EA5" stop-opacity="0"/>
</linearGradient>
<linearGradient id="paint61_linear_3_443" x1="131.93" y1="78.6081" x2="131.93" y2="196.439" gradientUnits="userSpaceOnUse">
<stop stop-color="#8C8EA5"/>
<stop offset="1" stop-color="#8C8EA5" stop-opacity="0"/>
</linearGradient>
<linearGradient id="paint62_linear_3_443" x1="129.969" y1="70.195" x2="129.969" y2="188.026" gradientUnits="userSpaceOnUse">
<stop stop-color="#8C8EA5"/>
<stop offset="1" stop-color="#8C8EA5" stop-opacity="0"/>
</linearGradient>
<linearGradient id="paint63_linear_3_443" x1="71.3008" y1="86.9215" x2="71.3008" y2="204.752" gradientUnits="userSpaceOnUse">
<stop stop-color="#8C8EA5"/>
<stop offset="1" stop-color="#8C8EA5" stop-opacity="0"/>
</linearGradient>
</defs>
</svg>
