<svg width="240" height="225" viewBox="0 0 240 225" fill="none" xmlns="http://www.w3.org/2000/svg">
<rect y="3.67188" width="240" height="160" fill="url(#paint0_radial_3_273)"/>
<path d="M81.7699 158.347L88.2501 165.049C88.4382 165.244 88.9793 165.35 89.4937 165.292C89.9448 165.242 90.2338 165.084 90.2389 164.913C90.2404 164.863 90.2381 47.3967 90.2381 45.7967L86.0548 42.38C84.7214 41.7967 82.1501 39.0363 81.7148 39.0967C81.7148 42.7133 81.7148 158.093 81.7149 158.23C81.7149 158.269 81.7326 158.309 81.7699 158.347Z" fill="url(#paint1_radial_3_273)"/>
<path d="M90.2344 46.1719V164.339" stroke="url(#paint2_linear_3_273)" stroke-width="0.8" stroke-linecap="round"/>
<path d="M81.7699 39.2209L88.25 45.9229C88.4381 46.1174 88.9792 46.2233 89.4936 46.1662C90.0778 46.1014 90.3902 45.8549 90.1662 45.6355L83.3701 38.9809C83.1997 38.814 82.7195 38.7296 82.2843 38.79C81.8331 38.8526 81.6014 39.0466 81.7699 39.2209Z" fill="#CECFDB"/>
<path fill-rule="evenodd" clip-rule="evenodd" d="M89.2543 50.2467L23.1328 47.8467V168.155C23.1536 167.791 23.553 167.44 24.2601 167.188C29.6687 165.261 37.2842 164.578 44.3203 165.389L89.2085 170.562L89.2543 170.563V50.2467Z" fill="#8C8EA5"/>
<path fill-rule="evenodd" clip-rule="evenodd" d="M23.2041 168.457C24.6806 171.249 29.8218 173.536 36.7468 174.48L91.0825 181.888C86.8258 178.638 85.753 174.758 88.872 171.015C88.9972 170.864 89.1281 170.715 89.2647 170.568L44.3211 165.389C37.285 164.578 29.6696 165.261 24.261 167.188C23.3592 167.509 22.9579 167.991 23.2041 168.457Z" fill="#CECFDB"/>
<path fill-rule="evenodd" clip-rule="evenodd" d="M23.2041 48.1305C24.6806 50.9229 29.8218 53.2095 36.7468 54.1537L91.0825 61.5618C86.8258 58.3117 85.753 54.4319 88.872 50.6883C88.9972 50.5382 89.1281 50.3893 89.2647 50.2419L44.3211 45.0628C37.285 44.252 29.6696 44.935 24.261 46.862C23.3592 47.1833 22.9579 47.6649 23.2041 48.1305Z" fill="#CECFDB"/>
<path fill-rule="evenodd" clip-rule="evenodd" d="M36.7467 54.1536C29.8217 53.2094 24.6804 50.9228 23.2039 48.1304C23.1582 48.0438 23.1348 47.9567 23.1328 47.8701C23.1328 48.4569 23.1329 54.068 23.133 62.5746C23.1336 94.6483 23.1349 167.885 23.1333 168.181C23.1328 168.272 23.1562 168.364 23.2045 168.456C24.681 171.248 29.8223 173.535 36.7473 174.479L91.0829 181.887L91.0829 61.5636C91.0799 61.5626 91.0768 61.5616 91.0738 61.5606L36.7467 54.1536Z" fill="url(#paint3_radial_3_273)"/>
<path fill-rule="evenodd" clip-rule="evenodd" d="M109.901 15.748C103.516 17.1535 99.4984 19.7575 99.318 22.6074L97.9023 44.9683C104.553 42.3945 113.726 40.8034 123.856 40.8034C124.262 40.8034 124.667 40.806 125.07 40.8111L123.918 22.6073C123.737 19.7575 119.719 17.1535 113.334 15.748C112.269 15.5137 110.966 15.5137 109.901 15.748Z" fill="#CECFDB"/>
<path fill-rule="evenodd" clip-rule="evenodd" d="M97.9032 44.9682C97.9029 44.9723 97.9026 44.9765 97.9023 44.9806L97.9023 165.293C104.553 162.719 113.726 161.128 123.856 161.128C124.262 161.128 124.667 161.131 125.07 161.136V40.8139C125.07 40.813 125.07 40.8122 125.07 40.8113C124.667 40.8062 124.262 40.8036 123.856 40.8036C113.726 40.8036 104.553 42.3945 97.9032 44.9682ZM125.067 40.7548L124.831 37.0342C125.024 37.8828 125.032 38.7663 125.039 39.6142C125.042 40.0042 125.045 40.3867 125.067 40.7548Z" fill="url(#paint4_radial_3_273)"/>
<path fill-rule="evenodd" clip-rule="evenodd" d="M109.901 136.073C103.516 137.479 99.4984 140.083 99.318 142.933L97.9023 165.294C104.553 162.72 113.726 161.129 123.856 161.129C124.262 161.129 124.667 161.131 125.07 161.136L123.918 142.933C123.737 140.083 119.719 137.479 113.334 136.073C112.269 135.839 110.966 135.839 109.901 136.073Z" fill="#CECFDB"/>
<path d="M149.088 35.0744L134.438 39.3627C134.437 42.6793 134.438 159.564 134.438 159.679C134.437 159.758 134.497 159.837 134.619 159.906C134.964 160.1 135.666 160.137 136.129 159.984L150.185 155.353C150.385 155.287 150.488 155.194 150.488 155.099C150.488 155.027 150.488 37.3127 150.488 34.7793C150.191 34.6333 149.459 34.9567 149.088 35.0744Z" fill="url(#paint5_radial_3_273)"/>
<path d="M150.5 35.0713V153.238" stroke="url(#paint6_linear_3_273)" stroke-width="0.8" stroke-linecap="round"/>
<path d="M149.091 34.5169L134.818 39.0464C134.404 39.1779 134.319 39.4109 134.622 39.582C134.967 39.7762 135.669 39.8123 136.132 39.6596L150.188 35.029C150.541 34.9129 150.593 34.7092 150.307 34.5683C150.01 34.4223 149.462 34.3992 149.091 34.5169Z" fill="#CECFDB"/>
<path fill-rule="evenodd" clip-rule="evenodd" d="M215.746 158.013C210.319 156.094 202.696 155.422 195.668 156.243L140.523 162.687C148.892 164.34 155.642 167.23 158.797 170.969C158.924 171.119 159.044 171.269 159.157 171.419L203.331 165.323C210.247 164.369 215.366 162.075 216.815 159.28C217.057 158.814 216.651 158.333 215.746 158.013Z" fill="#CECFDB"/>
<path fill-rule="evenodd" clip-rule="evenodd" d="M216.88 38.6113C216.895 38.7227 216.874 38.8357 216.816 38.9479C215.367 41.7425 210.248 44.0366 203.332 44.991L159.158 51.087C159.157 51.0864 159.157 51.0858 159.156 51.0851V171.409L159.158 171.412L203.333 165.316C210.248 164.362 215.367 162.067 216.817 159.273C216.861 159.186 216.884 159.099 216.885 159.013C216.89 158.687 216.886 72.4177 216.885 46.075L216.885 44.595C216.885 41.1932 216.885 39.0596 216.885 38.6131L216.88 38.6113Z" fill="url(#paint7_radial_3_273)"/>
<path fill-rule="evenodd" clip-rule="evenodd" d="M140.523 42.3545C148.892 44.0073 155.642 46.8975 158.797 50.6363C158.923 50.7857 159.043 50.9353 159.155 51.0851V171.409C159.043 171.26 158.924 171.11 158.798 170.961C155.642 167.222 148.892 164.332 140.524 162.679L140.523 42.3631L140.567 42.3631C140.552 42.3602 140.538 42.3573 140.523 42.3545V42.3545Z" fill="url(#paint8_radial_3_273)"/>
<path d="M216.898 39.0381V157.205" stroke="url(#paint9_linear_3_273)" stroke-width="0.4" stroke-linecap="round"/>
<path fill-rule="evenodd" clip-rule="evenodd" d="M215.746 37.681C210.319 35.762 202.696 35.0903 195.668 35.9114L140.523 42.3547C148.892 44.0075 155.642 46.8976 158.797 50.6365C158.924 50.7865 159.044 50.9368 159.157 51.0872L203.331 44.9911C210.247 44.0367 215.366 41.7426 216.815 38.948C217.057 38.482 216.651 38.001 215.746 37.681Z" fill="#CECFDB"/>
<path d="M182.312 58.6142L171.873 56.2642C169.623 55.4809 165.288 54.5507 164.958 54.7142C164.958 57.9142 164.956 174.954 164.958 175.04C164.96 175.171 165.126 175.299 165.434 175.375L180.995 179.212C181.385 179.308 181.901 179.267 182.162 179.119C182.264 179.061 182.312 178.996 182.312 178.931C182.312 178.823 182.312 61.1809 182.312 58.6142Z" fill="url(#paint10_radial_3_273)"/>
<path d="M182.301 58.9053V177.072" stroke="url(#paint11_linear_3_273)" stroke-width="0.4" stroke-linecap="round"/>
<path d="M181.927 58.3277L166.551 54.3803C166.104 54.2658 165.506 54.3035 165.176 54.467C164.801 54.6527 164.921 54.9235 165.434 55.05L180.994 58.8869C181.385 58.9831 181.901 58.9419 182.162 58.7938C182.433 58.6402 182.327 58.4303 181.927 58.3277Z" fill="#CECFDB"/>
<path d="M130.613 145.871C131.177 144.972 131.924 144.37 132.412 144.421C132.412 145.688 132.412 165.838 132.412 165.966C132.411 165.995 132.401 166.024 132.38 166.054L127.008 173.842C126.877 174.032 126.375 174.144 125.887 174.093C125.482 174.051 125.214 173.91 125.209 173.754C125.208 173.723 125.207 152.271 125.207 152.204L130.613 145.871Z" fill="url(#paint12_radial_3_273)"/>
<path d="M130.611 144.328C130.742 144.138 131.244 144.026 131.732 144.077C132.22 144.127 132.51 144.322 132.379 144.512L127.006 152.3C126.875 152.49 126.374 152.602 125.885 152.552C125.397 152.501 125.108 152.306 125.238 152.116L130.611 144.328Z" fill="#CECFDB"/>
<path d="M108.275 167.286C108.192 167.231 108.153 167.17 108.152 167.11C108.152 165.854 108.153 148.554 108.153 145.571C108.59 145.473 111.66 147.418 111.913 147.588L120.362 152.554C120.362 152.938 120.362 173.488 120.362 174.095C120.359 174.216 120.195 174.334 119.904 174.399C119.467 174.497 118.907 174.439 118.654 174.269L108.275 167.286Z" fill="url(#paint13_radial_3_273)"/>
<path d="M108.274 145.744C108.021 145.574 108.171 145.357 108.609 145.259C109.046 145.161 109.606 145.219 109.859 145.389L120.238 152.372C120.491 152.542 120.341 152.759 119.903 152.857C119.465 152.955 118.906 152.897 118.653 152.727L108.274 145.744Z" fill="#CECFDB"/>
<path d="M95.0495 174.421C94.6396 174.378 94.3697 174.234 94.3711 174.076C94.3714 174.046 94.3725 152.704 94.3725 152.538C94.5033 152.348 99.2042 153.02 99.6924 153.071L116.252 154.621C116.252 154.937 116.252 175.887 116.252 176.171C116.251 176.199 116.241 176.228 116.221 176.256C116.09 176.446 115.589 176.558 115.101 176.508L95.0495 174.421Z" fill="url(#paint14_radial_3_273)"/>
<path d="M95.0518 152.884C94.5637 152.833 94.274 152.638 94.4048 152.449C94.5356 152.259 95.0373 152.147 95.5254 152.197L115.577 154.284C116.065 154.335 116.354 154.53 116.224 154.72C116.093 154.909 115.591 155.022 115.103 154.971L95.0518 152.884Z" fill="#CECFDB"/>
<path d="M98.6959 183.104C98.2583 183.202 97.6987 183.144 97.446 182.974C97.3665 182.921 97.3269 182.862 97.3235 182.805C97.3163 182.679 97.3235 161.755 97.3235 161.255L115.758 157.455C116.196 157.357 116.878 157.051 117.131 157.221C117.131 158.155 117.132 178.706 117.131 178.767C117.128 178.889 116.965 179.007 116.673 179.073L98.6959 183.104Z" fill="url(#paint15_radial_3_273)"/>
<path d="M98.6947 161.563C98.2571 161.661 97.6975 161.602 97.4449 161.432C97.1922 161.262 97.3421 161.045 97.7798 160.947L115.757 156.915C116.195 156.817 116.754 156.876 117.007 157.046C117.26 157.215 117.11 157.433 116.672 157.531L98.6947 161.563Z" fill="#CECFDB"/>
<path d="M117.076 188.24C116.946 188.429 116.444 188.542 115.956 188.491C115.546 188.448 115.276 188.304 115.277 188.147C115.278 188.117 115.277 168.238 115.277 166.605L120.66 159.938C120.791 159.748 121.992 158.77 122.48 158.821C122.48 158.905 122.48 180.171 122.48 180.365C122.479 180.394 122.469 180.422 122.449 180.451L117.076 188.24Z" fill="url(#paint16_radial_3_273)"/>
<path d="M117.077 166.698C116.946 166.887 116.444 167 115.956 166.949C115.468 166.898 115.178 166.703 115.309 166.514L120.682 158.725C120.813 158.536 121.314 158.423 121.802 158.474C122.29 158.525 122.58 158.72 122.449 158.909L117.077 166.698Z" fill="#CECFDB"/>
<path d="M145.692 150.638C146.129 150.54 150.11 149.602 150.363 149.772C150.363 150.405 150.365 171.256 150.362 171.317C150.358 171.439 150.194 171.556 149.905 171.621L131.928 175.652C131.49 175.75 130.93 175.692 130.678 175.522C130.595 175.466 130.555 175.406 130.555 175.346C130.554 175.222 130.555 154.405 130.555 153.805L145.692 150.638Z" fill="url(#paint17_radial_3_273)"/>
<path d="M148.993 149.463C149.43 149.365 149.99 149.423 150.243 149.593C150.495 149.763 150.345 149.98 149.908 150.078L131.93 154.11C131.493 154.208 130.933 154.15 130.68 153.98C130.428 153.81 130.578 153.593 131.015 153.494L148.993 149.463Z" fill="#CECFDB"/>
<path d="M153.319 158.488C153.319 160.188 153.322 179.872 153.319 180.03C153.319 180.059 153.309 180.089 153.288 180.119C153.157 180.309 152.655 180.421 152.167 180.371L132.116 178.284C131.71 178.241 131.441 178.099 131.438 177.944C131.437 177.912 131.438 158.472 131.438 156.405C131.861 156.288 135.311 156.655 137.311 157.038L153.319 158.488Z" fill="url(#paint18_radial_3_273)"/>
<path d="M152.64 158.141C153.128 158.192 153.417 158.387 153.287 158.577C153.156 158.766 152.654 158.879 152.166 158.828L132.115 156.741C131.627 156.69 131.337 156.495 131.468 156.306C131.599 156.116 132.1 156.004 132.588 156.055L152.64 158.141Z" fill="#CECFDB"/>
<path d="M139.542 165.455C139.542 166.005 139.544 186.943 139.542 187.005C139.537 187.126 139.374 187.243 139.084 187.308C138.647 187.406 138.087 187.348 137.834 187.178L127.455 180.195C127.372 180.139 127.333 180.078 127.332 180.018C127.332 179.895 127.332 159.271 127.332 158.471C127.77 158.373 131.597 159.603 132.26 161.505L139.542 165.455Z" fill="url(#paint19_radial_3_273)"/>
<path d="M139.418 165.28C139.67 165.45 139.52 165.667 139.083 165.766C138.645 165.864 138.085 165.805 137.833 165.636L127.453 158.653C127.201 158.483 127.351 158.265 127.788 158.167C128.226 158.069 128.786 158.127 129.038 158.297L139.418 165.28Z" fill="#CECFDB"/>
<path d="M130.613 112.098C131.177 111.2 131.924 110.598 132.412 110.648C132.412 111.915 132.412 132.065 132.412 132.193C132.411 132.222 132.401 132.252 132.38 132.281L127.008 140.07C126.877 140.259 126.375 140.372 125.887 140.321C125.482 140.279 125.214 140.137 125.209 139.982C125.208 139.95 125.207 118.498 125.207 118.432L130.613 112.098Z" fill="url(#paint20_radial_3_273)"/>
<path d="M130.611 110.555C130.742 110.366 131.244 110.253 131.732 110.304C132.22 110.355 132.51 110.55 132.379 110.739L127.006 118.528C126.875 118.717 126.374 118.83 125.885 118.779C125.397 118.728 125.108 118.533 125.238 118.344L130.611 110.555Z" fill="#CECFDB"/>
<path d="M108.275 133.514C108.192 133.458 108.153 133.397 108.152 133.337C108.152 132.082 108.153 114.782 108.153 111.799C108.59 111.7 111.66 113.645 111.913 113.815L120.362 118.782C120.362 119.165 120.362 139.715 120.362 140.322C120.359 140.444 120.195 140.562 119.904 140.627C119.467 140.725 118.907 140.667 118.654 140.497L108.275 133.514Z" fill="url(#paint21_radial_3_273)"/>
<path d="M108.274 111.972C108.021 111.802 108.171 111.585 108.609 111.486C109.046 111.388 109.606 111.446 109.859 111.616L120.238 118.599C120.491 118.769 120.341 118.987 119.903 119.085C119.465 119.183 118.906 119.125 118.653 118.955L108.274 111.972Z" fill="#CECFDB"/>
<path d="M95.0495 140.648C94.6396 140.606 94.3697 140.461 94.3711 140.304C94.3714 140.274 94.3725 118.932 94.3725 118.765C94.5033 118.575 99.2042 119.248 99.6924 119.298L116.252 120.848C116.252 121.165 116.252 142.115 116.252 142.398C116.251 142.427 116.241 142.455 116.221 142.484C116.09 142.673 115.589 142.786 115.101 142.735L95.0495 140.648Z" fill="url(#paint22_radial_3_273)"/>
<path d="M95.0518 119.112C94.5637 119.061 94.274 118.866 94.4048 118.676C94.5356 118.487 95.0373 118.374 95.5254 118.425L115.577 120.512C116.065 120.563 116.354 120.758 116.224 120.947C116.093 121.137 115.591 121.249 115.103 121.198L95.0518 119.112Z" fill="#CECFDB"/>
<path d="M98.6959 149.332C98.2583 149.43 97.6987 149.372 97.446 149.202C97.3665 149.148 97.3269 149.09 97.3235 149.032C97.3163 148.907 97.3235 127.982 97.3235 127.482L115.758 123.682C116.196 123.584 116.878 123.279 117.131 123.449C117.131 124.382 117.132 144.934 117.131 144.995C117.128 145.117 116.965 145.235 116.673 145.3L98.6959 149.332Z" fill="url(#paint23_radial_3_273)"/>
<path d="M98.6947 127.79C98.2571 127.888 97.6975 127.83 97.4449 127.66C97.1922 127.49 97.3421 127.273 97.7798 127.175L115.757 123.143C116.195 123.045 116.754 123.103 117.007 123.273C117.26 123.443 117.11 123.66 116.672 123.759L98.6947 127.79Z" fill="#CECFDB"/>
<path d="M117.076 154.467C116.946 154.657 116.444 154.769 115.956 154.718C115.546 154.676 115.276 154.532 115.277 154.374C115.278 154.344 115.277 134.465 115.277 132.832L120.66 126.165C120.791 125.976 121.992 124.998 122.48 125.049C122.48 125.132 122.48 146.399 122.48 146.593C122.479 146.621 122.469 146.65 122.449 146.679L117.076 154.467Z" fill="url(#paint24_radial_3_273)"/>
<path d="M117.077 132.925C116.946 133.115 116.444 133.227 115.956 133.177C115.468 133.126 115.178 132.931 115.309 132.741L120.682 124.953C120.813 124.763 121.314 124.651 121.802 124.702C122.29 124.752 122.58 124.947 122.449 125.137L117.077 132.925Z" fill="#CECFDB"/>
<path d="M145.692 116.866C146.129 116.768 150.11 115.829 150.363 115.999C150.363 116.632 150.365 137.483 150.362 137.545C150.358 137.666 150.194 137.783 149.905 137.848L131.928 141.88C131.49 141.978 130.93 141.92 130.678 141.75C130.595 141.694 130.555 141.633 130.555 141.573C130.554 141.45 130.555 120.632 130.555 120.032L145.692 116.866Z" fill="url(#paint25_radial_3_273)"/>
<path d="M148.993 115.69C149.43 115.592 149.99 115.65 150.243 115.82C150.495 115.99 150.345 116.208 149.908 116.306L131.93 120.338C131.493 120.436 130.933 120.377 130.68 120.207C130.428 120.037 130.578 119.82 131.015 119.722L148.993 115.69Z" fill="#CECFDB"/>
<path d="M153.319 124.716C153.319 126.416 153.322 146.099 153.319 146.257C153.319 146.287 153.309 146.317 153.288 146.347C153.157 146.536 152.655 146.649 152.167 146.598L132.116 144.511C131.71 144.469 131.441 144.327 131.438 144.171C131.437 144.14 131.438 124.699 131.438 122.632C131.861 122.516 135.311 122.882 137.311 123.266L153.319 124.716Z" fill="url(#paint26_radial_3_273)"/>
<path d="M152.64 124.369C153.128 124.42 153.417 124.615 153.287 124.804C153.156 124.994 152.654 125.106 152.166 125.056L132.115 122.969C131.627 122.918 131.337 122.723 131.468 122.533C131.599 122.344 132.1 122.231 132.588 122.282L152.64 124.369Z" fill="#CECFDB"/>
<path d="M139.542 131.682C139.542 132.232 139.544 153.17 139.542 153.232C139.537 153.353 139.374 153.47 139.084 153.535C138.647 153.633 138.087 153.575 137.834 153.405L127.455 146.422C127.372 146.367 127.333 146.306 127.332 146.246C127.332 146.123 127.332 125.499 127.332 124.699C127.77 124.601 131.597 125.831 132.26 127.732L139.542 131.682Z" fill="url(#paint27_radial_3_273)"/>
<path d="M139.418 131.508C139.67 131.678 139.52 131.895 139.083 131.993C138.645 132.091 138.085 132.033 137.833 131.863L127.453 124.88C127.201 124.71 127.351 124.493 127.788 124.395C128.226 124.297 128.786 124.355 129.038 124.525L139.418 131.508Z" fill="#CECFDB"/>
<path d="M130.613 78.327C131.177 77.4282 131.924 76.8262 132.412 76.877C132.412 78.1437 132.412 98.2937 132.412 98.4218C132.411 98.4508 132.401 98.4804 132.38 98.5098L127.008 106.298C126.877 106.488 126.375 106.6 125.887 106.549C125.482 106.507 125.214 106.366 125.209 106.21C125.208 106.179 125.207 84.727 125.207 84.6603L130.613 78.327Z" fill="url(#paint28_radial_3_273)"/>
<path d="M130.611 76.784C130.742 76.5944 131.244 76.4819 131.732 76.5327C132.22 76.5835 132.51 76.7784 132.379 76.968L127.006 84.7563C126.875 84.9459 126.374 85.0584 125.885 85.0076C125.397 84.9568 125.108 84.762 125.238 84.5724L130.611 76.784Z" fill="#CECFDB"/>
<path d="M108.275 99.7424C108.192 99.6867 108.153 99.626 108.152 99.566C108.152 98.3105 108.153 81.0104 108.153 78.027C108.59 77.9289 111.66 79.8737 111.913 80.0437L120.362 85.0104C120.362 85.3937 120.362 105.944 120.362 106.551C120.359 106.672 120.195 106.79 119.904 106.855C119.467 106.953 118.907 106.895 118.654 106.725L108.275 99.7424Z" fill="url(#paint29_radial_3_273)"/>
<path d="M108.274 78.2004C108.021 78.0304 108.171 77.813 108.609 77.7149C109.046 77.6167 109.606 77.675 109.859 77.845L120.238 84.8278C120.491 84.9978 120.341 85.2152 119.903 85.3133C119.465 85.4114 118.906 85.3532 118.653 85.1832L108.274 78.2004Z" fill="#CECFDB"/>
<path d="M95.0495 106.877C94.6396 106.834 94.3697 106.69 94.3711 106.532C94.3714 106.502 94.3725 85.1602 94.3725 84.9936C94.5033 84.804 99.2042 85.4761 99.6924 85.5269L116.252 87.0768C116.252 87.3935 116.252 108.343 116.252 108.627C116.251 108.655 116.241 108.684 116.221 108.712C116.09 108.902 115.589 109.014 115.101 108.964L95.0495 106.877Z" fill="url(#paint30_radial_3_273)"/>
<path d="M95.0518 85.34C94.5637 85.2892 94.274 85.0944 94.4048 84.9048C94.5356 84.7152 95.0373 84.6027 95.5254 84.6535L115.577 86.7403C116.065 86.7911 116.354 86.986 116.224 87.1756C116.093 87.3652 115.591 87.4777 115.103 87.4269L95.0518 85.34Z" fill="#CECFDB"/>
<path d="M98.6959 115.56C98.2583 115.658 97.6987 115.6 97.446 115.43C97.3665 115.377 97.3269 115.319 97.3235 115.261C97.3163 115.135 97.3235 94.2108 97.3235 93.7108L115.758 89.9108C116.196 89.8127 116.878 89.5075 117.131 89.6775C117.131 90.6108 117.132 111.162 117.131 111.223C117.128 111.345 116.965 111.463 116.673 111.529L98.6959 115.56Z" fill="url(#paint31_radial_3_273)"/>
<path d="M98.6947 94.0186C98.2571 94.1167 97.6975 94.0585 97.4449 93.8885C97.1922 93.7185 97.3421 93.5012 97.7798 93.403L115.757 89.3715C116.195 89.2733 116.754 89.3316 117.007 89.5016C117.26 89.6715 117.11 89.8889 116.672 89.987L98.6947 94.0186Z" fill="#CECFDB"/>
<path d="M117.076 120.696C116.946 120.885 116.444 120.998 115.956 120.947C115.546 120.904 115.276 120.76 115.277 120.603C115.278 120.573 115.277 100.694 115.277 99.0606L120.66 92.394C120.791 92.2044 121.992 91.2265 122.48 91.2773C122.48 91.3606 122.48 112.627 122.48 112.821C122.479 112.85 122.469 112.878 122.449 112.907L117.076 120.696Z" fill="url(#paint32_radial_3_273)"/>
<path d="M117.077 99.1538C116.946 99.3434 116.444 99.4559 115.956 99.4051C115.468 99.3543 115.178 99.1594 115.309 98.9698L120.682 91.1815C120.813 90.9919 121.314 90.8794 121.802 90.9302C122.29 90.981 122.58 91.1758 122.449 91.3654L117.077 99.1538Z" fill="#CECFDB"/>
<path d="M145.692 83.0942C146.129 82.9961 150.11 82.0576 150.363 82.2276C150.363 82.8609 150.365 103.712 150.362 103.773C150.358 103.895 150.194 104.012 149.905 104.077L131.928 108.108C131.49 108.206 130.93 108.148 130.678 107.978C130.595 107.922 130.555 107.862 130.555 107.802C130.554 107.678 130.555 86.861 130.555 86.261L145.692 83.0942Z" fill="url(#paint33_radial_3_273)"/>
<path d="M148.993 81.9189C149.43 81.8208 149.99 81.879 150.243 82.049C150.495 82.219 150.345 82.4363 149.908 82.5345L131.93 86.566C131.493 86.6642 130.933 86.6059 130.68 86.4359C130.428 86.266 130.578 86.0486 131.015 85.9505L148.993 81.9189Z" fill="#CECFDB"/>
<path d="M153.319 90.9442C153.319 92.6442 153.322 112.328 153.319 112.486C153.319 112.515 153.309 112.545 153.288 112.575C153.157 112.765 152.655 112.877 152.167 112.827L132.116 110.74C131.71 110.697 131.441 110.555 131.438 110.4C131.437 110.368 131.438 90.9276 131.438 88.8609C131.861 88.7442 135.311 89.1109 137.311 89.4942L153.319 90.9442Z" fill="url(#paint34_radial_3_273)"/>
<path d="M152.64 90.5975C153.128 90.6483 153.417 90.8431 153.287 91.0327C153.156 91.2223 152.654 91.3348 152.166 91.284L132.115 89.1972C131.627 89.1464 131.337 88.9515 131.468 88.7619C131.599 88.5723 132.1 88.4598 132.588 88.5106L152.64 90.5975Z" fill="#CECFDB"/>
<path d="M139.542 97.9106C139.542 98.4606 139.544 119.399 139.542 119.461C139.537 119.582 139.374 119.699 139.084 119.764C138.647 119.862 138.087 119.804 137.834 119.634L127.455 112.651C127.372 112.595 127.333 112.534 127.332 112.474C127.332 112.351 127.332 91.7273 127.332 90.9273C127.77 90.8292 131.597 92.0593 132.26 93.9607L139.542 97.9106Z" fill="url(#paint35_radial_3_273)"/>
<path d="M139.418 97.7362C139.67 97.9061 139.52 98.1235 139.083 98.2216C138.645 98.3198 138.085 98.2615 137.833 98.0916L127.453 91.1087C127.201 90.9387 127.351 90.7214 127.788 90.6232C128.226 90.5251 128.786 90.5833 129.038 90.7533L139.418 97.7362Z" fill="#CECFDB"/>
<path d="M130.613 44.5545C131.177 43.6557 131.924 43.0537 132.412 43.1045C132.412 44.3712 132.412 64.5212 132.412 64.6493C132.411 64.6784 132.401 64.7079 132.38 64.7373L127.008 72.5257C126.877 72.7153 126.375 72.8278 125.887 72.777C125.482 72.7348 125.214 72.5933 125.209 72.438C125.208 72.4062 125.207 50.9545 125.207 50.8878L130.613 44.5545Z" fill="url(#paint36_radial_3_273)"/>
<path d="M130.611 43.0115C130.742 42.822 131.244 42.7094 131.732 42.7602C132.22 42.811 132.51 43.0059 132.379 43.1955L127.006 50.9839C126.875 51.1735 126.374 51.286 125.885 51.2352C125.397 51.1844 125.108 50.9895 125.238 50.7999L130.611 43.0115Z" fill="#CECFDB"/>
<path d="M108.275 65.9699C108.192 65.9143 108.153 65.8535 108.152 65.7935C108.152 64.538 108.153 47.2379 108.153 44.2546C108.59 44.1564 111.66 46.1013 111.913 46.2712L120.362 51.2379C120.362 51.6212 120.362 72.1712 120.362 72.7781C120.359 72.8998 120.195 73.0176 119.904 73.0828C119.467 73.181 118.907 73.1227 118.654 72.9528L108.275 65.9699Z" fill="url(#paint37_radial_3_273)"/>
<path d="M108.274 44.4279C108.021 44.2579 108.171 44.0406 108.609 43.9424C109.046 43.8443 109.606 43.9025 109.859 44.0725L120.238 51.0553C120.491 51.2253 120.341 51.4427 119.903 51.5408C119.465 51.639 118.906 51.5807 118.653 51.4107L108.274 44.4279Z" fill="#CECFDB"/>
<path d="M95.0495 73.1043C94.6396 73.0616 94.3697 72.9174 94.3711 72.76C94.3714 72.7299 94.3725 51.3878 94.3725 51.2211C94.5033 51.0315 99.2042 51.7036 99.6924 51.7544L116.252 53.3043C116.252 53.621 116.252 74.571 116.252 74.8543C116.251 74.8826 116.241 74.9113 116.221 74.9399C116.09 75.1295 115.589 75.242 115.101 75.1912L95.0495 73.1043Z" fill="url(#paint38_radial_3_273)"/>
<path d="M95.0518 51.5676C94.5637 51.5168 94.274 51.3219 94.4048 51.1323C94.5356 50.9427 95.0373 50.8302 95.5254 50.881L115.577 52.9679C116.065 53.0187 116.354 53.2136 116.224 53.4031C116.093 53.5927 115.591 53.7053 115.103 53.6545L95.0518 51.5676Z" fill="#CECFDB"/>
<path d="M98.6959 81.7879C98.2583 81.886 97.6987 81.8278 97.446 81.6578C97.3665 81.6043 97.3269 81.5461 97.3235 81.4884C97.3163 81.3628 97.3235 60.4384 97.3235 59.9384L115.758 56.1384C116.196 56.0402 116.878 55.7351 117.131 55.905C117.131 56.8384 117.132 77.3898 117.131 77.451C117.128 77.5728 116.965 77.691 116.673 77.7563L98.6959 81.7879Z" fill="url(#paint39_radial_3_273)"/>
<path d="M98.6947 60.2461C98.2571 60.3443 97.6975 60.286 97.4449 60.116C97.1922 59.9461 97.3421 59.7287 97.7798 59.6306L115.757 55.599C116.195 55.5009 116.754 55.5591 117.007 55.7291C117.26 55.8991 117.11 56.1164 116.672 56.2146L98.6947 60.2461Z" fill="#CECFDB"/>
<path d="M117.076 86.9231C116.946 87.1127 116.444 87.2253 115.956 87.1744C115.546 87.1318 115.276 86.9876 115.277 86.8303C115.278 86.8002 115.277 66.9215 115.277 65.2882L120.66 58.6215C120.791 58.4319 121.992 57.454 122.48 57.5048C122.48 57.5881 122.48 78.8548 122.48 79.0486C122.479 79.0771 122.469 79.106 122.449 79.1348L117.076 86.9231Z" fill="url(#paint40_radial_3_273)"/>
<path d="M117.077 65.3813C116.946 65.5709 116.444 65.6834 115.956 65.6326C115.468 65.5818 115.178 65.3869 115.309 65.1974L120.682 57.409C120.813 57.2194 121.314 57.1069 121.802 57.1577C122.29 57.2085 122.58 57.4034 122.449 57.593L117.077 65.3813Z" fill="#CECFDB"/>
<path d="M145.692 49.3217C146.129 49.2236 150.11 48.2851 150.363 48.4551C150.363 49.0884 150.365 69.9391 150.362 70.001C150.358 70.1221 150.194 70.2393 149.905 70.3043L131.928 74.3358C131.49 74.4339 130.93 74.3757 130.678 74.2057C130.595 74.15 130.555 74.0892 130.555 74.0291C130.554 73.906 130.555 53.0886 130.555 52.4886L145.692 49.3217Z" fill="url(#paint41_radial_3_273)"/>
<path d="M148.993 48.1464C149.43 48.0483 149.99 48.1065 150.243 48.2765C150.495 48.4465 150.345 48.6639 149.908 48.762L131.93 52.7936C131.493 52.8917 130.933 52.8335 130.68 52.6635C130.428 52.4935 130.578 52.2761 131.015 52.178L148.993 48.1464Z" fill="#CECFDB"/>
<path d="M153.319 57.1718C153.319 58.8718 153.322 78.5554 153.319 78.7134C153.319 78.743 153.309 78.773 153.288 78.8029C153.157 78.9925 152.655 79.105 152.167 79.0542L132.116 76.9673C131.71 76.925 131.441 76.7829 131.438 76.6271C131.437 76.5958 131.438 57.1551 131.438 55.0884C131.861 54.9718 135.311 55.3384 137.311 55.7218L153.319 57.1718Z" fill="url(#paint42_radial_3_273)"/>
<path d="M152.64 56.825C153.128 56.8758 153.417 57.0707 153.287 57.2603C153.156 57.4499 152.654 57.5624 152.166 57.5116L132.115 55.4247C131.627 55.3739 131.337 55.179 131.468 54.9894C131.599 54.7998 132.1 54.6873 132.588 54.7381L152.64 56.825Z" fill="#CECFDB"/>
<path d="M139.542 64.1381C139.542 64.6881 139.544 85.6263 139.542 85.6882C139.537 85.8092 139.374 85.9264 139.084 85.9913C138.647 86.0894 138.087 86.0312 137.834 85.8612L127.455 78.8784C127.372 78.8227 127.333 78.7619 127.332 78.7019C127.332 78.5787 127.332 57.9549 127.332 57.1549C127.77 57.0567 131.597 58.2868 132.26 60.1882L139.542 64.1381Z" fill="url(#paint43_radial_3_273)"/>
<path d="M139.418 63.9637C139.67 64.1337 139.52 64.351 139.083 64.4492C138.645 64.5473 138.085 64.4891 137.833 64.3191L127.453 57.3363C127.201 57.1663 127.351 56.9489 127.788 56.8508C128.226 56.7526 128.786 56.8109 129.038 56.9809L139.418 63.9637Z" fill="#CECFDB"/>
<rect x="94.168" y="59.9053" width="59.3667" height="127.433" fill="url(#paint44_radial_3_273)"/>
<path d="M74.7343 185.722L90.1928 185.518C90.6415 185.513 91.0053 185.348 91.0289 185.141C91.0297 185.133 91.0301 185.126 91.0301 185.119C91.0299 184.893 91.0289 77.3635 91.0289 64.7969L73.9943 65.0635C73.9943 67.3802 73.9896 185.213 73.9943 185.393C73.9992 185.579 74.3325 185.727 74.7343 185.722Z" fill="url(#paint45_radial_3_273)"/>
<path d="M91.0352 65.2725V183.439" stroke="url(#paint46_linear_3_273)" stroke-width="0.8" stroke-linecap="round"/>
<path d="M74.7359 65.3976L90.1943 65.1942C90.6431 65.1883 91.0068 65.0239 91.0304 64.8164C91.0572 64.5807 90.6387 64.3859 90.1295 64.3969L74.6818 64.7318C74.2944 64.7402 73.9911 64.8891 73.9958 65.0686C74.0007 65.2547 74.334 65.4029 74.7359 65.3976Z" fill="#CECFDB"/>
<path fill-rule="evenodd" clip-rule="evenodd" d="M194.886 203.97C197.906 201.372 197.193 198.349 193.009 196.007L160.179 177.63C158.721 181.232 153.733 184.619 145.555 186.941C145.227 187.034 144.896 187.125 144.562 187.213L173.149 201.645C177.625 203.905 184.825 205.086 192.115 204.757C193.33 204.702 194.382 204.403 194.886 203.97Z" fill="#CECFDB"/>
<path opacity="0.5" fill-rule="evenodd" clip-rule="evenodd" d="M144.562 66.8882L144.652 66.8643V187.19C144.623 187.197 144.593 187.205 144.563 187.213L144.562 187.213L144.563 66.8965L144.579 66.8965L144.562 66.8882ZM196.736 200.63C196.735 199.304 196.735 127.608 196.735 95.1218V94.3797L196.735 93.0889L196.735 80.3642C196.765 78.7175 195.504 77.0783 193.009 75.6815L160.186 57.3082V177.633L193.009 196.007C195.474 197.387 196.734 199.003 196.736 200.63Z" fill="#CECFDB"/>
<path fill-rule="evenodd" clip-rule="evenodd" d="M196.735 80.3463C196.721 81.4665 196.111 82.5906 194.885 83.6448C194.382 84.078 193.33 84.3768 192.114 84.4316C184.824 84.7606 177.624 83.5793 173.149 81.3199L144.579 66.8965C144.573 66.8965 144.568 66.8965 144.563 66.8965L144.562 187.213L173.149 201.645C177.625 203.904 184.825 205.085 192.115 204.756C193.33 204.702 194.382 204.403 194.886 203.97C196.126 202.903 196.737 201.764 196.736 200.63C196.735 199.275 196.735 124.465 196.735 93.0642C196.735 86.7597 196.735 82.2051 196.735 80.3464L196.735 80.3463Z" fill="url(#paint47_radial_3_273)"/>
<path d="M196.73 80.8389V199.006" stroke="url(#paint48_linear_3_273)" stroke-width="0.4" stroke-linecap="round"/>
<path fill-rule="evenodd" clip-rule="evenodd" d="M194.886 83.645C197.906 81.0468 197.193 78.0236 193.009 75.6815L160.179 57.3047C158.721 60.907 153.733 64.2941 145.555 66.616C145.227 66.7092 144.896 66.7999 144.562 66.8882L173.149 81.3202C177.625 83.5796 184.825 84.7609 192.115 84.4319C193.33 84.377 194.382 84.0783 194.886 83.645Z" fill="#CECFDB"/>
<path d="M132.931 197.919L138.131 191.051C138.159 191.014 138.173 190.976 138.173 190.939C138.174 190.778 138.173 72.3633 138.173 70.5967C136.369 71.6133 135.952 71.7133 135.585 72.7467L131.25 77.4967C131.25 81.5467 131.25 197.797 131.25 197.827C131.252 197.968 131.488 198.099 131.853 198.143C132.31 198.199 132.796 198.098 132.931 197.919Z" fill="url(#paint49_radial_3_273)"/>
<path d="M138.164 70.9053V189.072" stroke="url(#paint50_linear_3_273)" stroke-width="0.4" stroke-linecap="round"/>
<path d="M132.931 77.5941L138.131 70.7259C138.282 70.5265 138.013 70.3155 137.514 70.241C136.947 70.1563 136.316 70.2803 136.155 70.5078L131.281 77.412C131.158 77.5852 131.411 77.7648 131.853 77.8182C132.31 77.8736 132.796 77.7727 132.931 77.5941Z" fill="#CECFDB"/>
<path opacity="0.5" fill-rule="evenodd" clip-rule="evenodd" d="M101.21 66.338L101.222 66.3301V66.3417V83.4773V186.692L101.208 186.688L74.5073 201.655C72.0851 203.013 70.8289 204.599 70.7891 206.198V86.0047V85.8967V85.8477C70.8289 84.2484 72.0851 82.6622 74.5073 81.3044L101.208 66.3374L101.21 66.338ZM70.7891 206.355L70.7893 206.363L70.7891 206.363V206.355Z" fill="#CECFDB"/>
<path fill-rule="evenodd" clip-rule="evenodd" d="M75.4172 90.0551C82.7079 90.3822 89.9058 89.1991 94.3774 86.9386L129.463 69.2019C120.185 69.7578 110.36 68.9421 102.179 66.6222C101.85 66.5291 101.527 66.4343 101.209 66.3379L74.5083 81.3049C70.3281 83.6481 69.6206 86.6714 72.6447 89.2689C73.1489 89.702 74.2015 90.0005 75.4172 90.0551Z" fill="#CECFDB"/>
<path fill-rule="evenodd" clip-rule="evenodd" d="M94.3764 86.9386C89.9048 89.1991 82.7069 90.3822 75.4162 90.055C74.2005 90.0005 73.1478 89.702 72.6436 89.2689C71.4141 88.2128 70.8015 87.0863 70.7882 85.9638L70.788 85.9639C70.788 87.3986 70.7878 92.436 70.7875 99.6911C70.7861 131.286 70.7828 204.938 70.788 206.264C70.7924 207.395 71.405 208.53 72.6436 209.594C73.1478 210.027 74.2004 210.325 75.4161 210.38C82.7068 210.707 89.9047 209.524 94.3763 207.263L129.462 189.527L129.462 69.2139C129.449 69.2166 129.435 69.2193 129.422 69.2221L94.3764 86.9386Z" fill="url(#paint51_radial_3_273)"/>
<path d="M114.652 177.098L130.336 139.293" stroke="#64A2FF" stroke-width="2" stroke-linecap="round" stroke-linejoin="round"/>
<path d="M135.871 123.666C136.431 123.166 137.304 123.623 137.391 124.461L139.059 140.705C139.131 141.407 138.588 141.938 137.979 141.763L122.959 137.435C122.195 137.215 121.932 136.107 122.52 135.583L135.871 123.666Z" fill="#64A2FF"/>
<path d="M167.59 177.098L151.907 139.293" stroke="#64A2FF" stroke-width="2" stroke-linecap="round" stroke-linejoin="round"/>
<path d="M146.371 123.666C145.811 123.166 144.938 123.623 144.852 124.461L143.183 140.705C143.111 141.407 143.654 141.938 144.264 141.763L159.284 137.435C160.047 137.215 160.31 136.107 159.723 135.583L146.371 123.666Z" fill="#64A2FF"/>
<path d="M141.504 177.672L141.504 162.672" stroke="#64A2FF" stroke-width="2" stroke-linecap="round" stroke-linejoin="round"/>
<path d="M140.634 146.687C140.942 145.992 142.002 146.246 142.384 147.106L148.862 161.679C149.147 162.321 148.859 162.926 148.268 162.926L135.313 162.926C134.54 162.926 133.854 161.939 134.156 161.26L140.634 146.687Z" fill="#64A2FF"/>
<defs>
<radialGradient id="paint0_radial_3_273" cx="0" cy="0" r="1" gradientUnits="userSpaceOnUse" gradientTransform="translate(120 83.6719) rotate(90) scale(80 120)">
<stop stop-color="#347DFE"/>
<stop offset="0.229167" stop-color="#347DFE"/>
<stop offset="1" stop-color="#347DFE" stop-opacity="0"/>
</radialGradient>
<radialGradient id="paint1_radial_3_273" cx="0" cy="0" r="1" gradientUnits="userSpaceOnUse" gradientTransform="translate(83.7328 41.1718) rotate(91.2749) scale(91.3893 6.17259)">
<stop stop-color="#8C8EA5"/>
<stop offset="1" stop-color="#000002"/>
</radialGradient>
<linearGradient id="paint2_linear_3_273" x1="90.7344" y1="46.6971" x2="90.7344" y2="164.338" gradientUnits="userSpaceOnUse">
<stop stop-color="#8C8EA5"/>
<stop offset="1" stop-color="#8C8EA5" stop-opacity="0"/>
</linearGradient>
<radialGradient id="paint3_radial_3_273" cx="0" cy="0" r="1" gradientUnits="userSpaceOnUse" gradientTransform="translate(30.9827 53.1221) rotate(90) scale(120.8 61.2489)">
<stop stop-color="#8C8EA5"/>
<stop offset="1" stop-color="#000002"/>
</radialGradient>
<radialGradient id="paint4_radial_3_273" cx="0" cy="0" r="1" gradientUnits="userSpaceOnUse" gradientTransform="translate(111.486 41.7391) rotate(90) scale(123.554 26.1712)">
<stop stop-color="#8C8EA5"/>
<stop offset="1" stop-color="#000002"/>
</radialGradient>
<radialGradient id="paint5_radial_3_273" cx="0" cy="0" r="1" gradientUnits="userSpaceOnUse" gradientTransform="translate(134.431 38.4712) rotate(90) scale(70.3833 9.0134)">
<stop stop-color="#8C8EA5"/>
<stop offset="1" stop-color="#000002"/>
</radialGradient>
<linearGradient id="paint6_linear_3_273" x1="151" y1="35.5965" x2="151" y2="153.238" gradientUnits="userSpaceOnUse">
<stop stop-color="#8C8EA5"/>
<stop offset="1" stop-color="#8C8EA5" stop-opacity="0"/>
</linearGradient>
<radialGradient id="paint7_radial_3_273" cx="0" cy="0" r="1" gradientUnits="userSpaceOnUse" gradientTransform="translate(159.168 51.2383) rotate(90) scale(120.167 52.239)">
<stop stop-color="#8C8EA5"/>
<stop offset="1" stop-color="#000002"/>
</radialGradient>
<radialGradient id="paint8_radial_3_273" cx="0" cy="0" r="1" gradientUnits="userSpaceOnUse" gradientTransform="translate(149.839 45.2716) rotate(90) scale(126.138 18.2108)">
<stop stop-color="#8C8EA5"/>
<stop offset="1" stop-color="#000002"/>
</radialGradient>
<linearGradient id="paint9_linear_3_273" x1="217.398" y1="39.5633" x2="217.398" y2="157.204" gradientUnits="userSpaceOnUse">
<stop stop-color="#8C8EA5"/>
<stop offset="1" stop-color="#8C8EA5" stop-opacity="0"/>
</linearGradient>
<radialGradient id="paint10_radial_3_273" cx="0" cy="0" r="1" gradientUnits="userSpaceOnUse" gradientTransform="translate(164.968 54.7058) rotate(90) scale(83.4333 11.6241)">
<stop stop-color="#8C8EA5"/>
<stop offset="1" stop-color="#000002"/>
</radialGradient>
<linearGradient id="paint11_linear_3_273" x1="182.801" y1="59.4305" x2="182.801" y2="177.072" gradientUnits="userSpaceOnUse">
<stop stop-color="#8C8EA5"/>
<stop offset="1" stop-color="#8C8EA5" stop-opacity="0"/>
</linearGradient>
<radialGradient id="paint12_radial_3_273" cx="0" cy="0" r="1" gradientUnits="userSpaceOnUse" gradientTransform="translate(125.204 152.304) rotate(90) scale(24.2167 5.87719)">
<stop stop-color="#8C8EA5"/>
<stop offset="1" stop-color="#000002"/>
</radialGradient>
<radialGradient id="paint13_radial_3_273" cx="0" cy="0" r="1" gradientUnits="userSpaceOnUse" gradientTransform="translate(108.141 145.554) rotate(90) scale(28.9 12.2181)">
<stop stop-color="#8C8EA5"/>
<stop offset="1" stop-color="#000002"/>
</radialGradient>
<radialGradient id="paint14_radial_3_273" cx="0" cy="0" r="1" gradientUnits="userSpaceOnUse" gradientTransform="translate(95.9872 152.488) rotate(90) scale(34.1667 31.13)">
<stop stop-color="#8C8EA5"/>
<stop offset="1" stop-color="#000002"/>
</radialGradient>
<radialGradient id="paint15_radial_3_273" cx="0" cy="0" r="1" gradientUnits="userSpaceOnUse" gradientTransform="translate(97.3042 161.321) rotate(90) scale(26.8833 20.4991)">
<stop stop-color="#8C8EA5"/>
<stop offset="1" stop-color="#000002"/>
</radialGradient>
<radialGradient id="paint16_radial_3_273" cx="0" cy="0" r="1" gradientUnits="userSpaceOnUse" gradientTransform="translate(115.272 166.621) rotate(90) scale(26.0333 6.31717)">
<stop stop-color="#8C8EA5"/>
<stop offset="1" stop-color="#000002"/>
</radialGradient>
<radialGradient id="paint17_radial_3_273" cx="0" cy="0" r="1" gradientUnits="userSpaceOnUse" gradientTransform="translate(130.57 153.805) rotate(90) scale(24.25 18.5118)">
<stop stop-color="#8C8EA5"/>
<stop offset="1" stop-color="#000002"/>
</radialGradient>
<radialGradient id="paint18_radial_3_273" cx="0" cy="0" r="1" gradientUnits="userSpaceOnUse" gradientTransform="translate(135.289 157.088) rotate(90) scale(24.45 22.2935)">
<stop stop-color="#8C8EA5"/>
<stop offset="1" stop-color="#000002"/>
</radialGradient>
<radialGradient id="paint19_radial_3_273" cx="0" cy="0" r="1" gradientUnits="userSpaceOnUse" gradientTransform="translate(127.339 158.455) rotate(90) scale(28.9 12.2153)">
<stop stop-color="#8C8EA5"/>
<stop offset="1" stop-color="#000002"/>
</radialGradient>
<radialGradient id="paint20_radial_3_273" cx="0" cy="0" r="1" gradientUnits="userSpaceOnUse" gradientTransform="translate(125.204 118.532) rotate(90) scale(24.2167 5.87719)">
<stop stop-color="#8C8EA5"/>
<stop offset="1" stop-color="#000002"/>
</radialGradient>
<radialGradient id="paint21_radial_3_273" cx="0" cy="0" r="1" gradientUnits="userSpaceOnUse" gradientTransform="translate(108.141 111.782) rotate(90) scale(28.9 12.2181)">
<stop stop-color="#8C8EA5"/>
<stop offset="1" stop-color="#000002"/>
</radialGradient>
<radialGradient id="paint22_radial_3_273" cx="0" cy="0" r="1" gradientUnits="userSpaceOnUse" gradientTransform="translate(95.9872 118.715) rotate(90) scale(34.1667 31.13)">
<stop stop-color="#8C8EA5"/>
<stop offset="1" stop-color="#000002"/>
</radialGradient>
<radialGradient id="paint23_radial_3_273" cx="0" cy="0" r="1" gradientUnits="userSpaceOnUse" gradientTransform="translate(97.3042 127.549) rotate(90) scale(26.8833 20.4991)">
<stop stop-color="#8C8EA5"/>
<stop offset="1" stop-color="#000002"/>
</radialGradient>
<radialGradient id="paint24_radial_3_273" cx="0" cy="0" r="1" gradientUnits="userSpaceOnUse" gradientTransform="translate(115.272 132.849) rotate(90) scale(26.0333 6.31717)">
<stop stop-color="#8C8EA5"/>
<stop offset="1" stop-color="#000002"/>
</radialGradient>
<radialGradient id="paint25_radial_3_273" cx="0" cy="0" r="1" gradientUnits="userSpaceOnUse" gradientTransform="translate(130.57 120.033) rotate(90) scale(24.25 18.5118)">
<stop stop-color="#8C8EA5"/>
<stop offset="1" stop-color="#000002"/>
</radialGradient>
<radialGradient id="paint26_radial_3_273" cx="0" cy="0" r="1" gradientUnits="userSpaceOnUse" gradientTransform="translate(135.289 123.316) rotate(90) scale(24.45 22.2935)">
<stop stop-color="#8C8EA5"/>
<stop offset="1" stop-color="#000002"/>
</radialGradient>
<radialGradient id="paint27_radial_3_273" cx="0" cy="0" r="1" gradientUnits="userSpaceOnUse" gradientTransform="translate(127.339 124.682) rotate(90) scale(28.9 12.2153)">
<stop stop-color="#8C8EA5"/>
<stop offset="1" stop-color="#000002"/>
</radialGradient>
<radialGradient id="paint28_radial_3_273" cx="0" cy="0" r="1" gradientUnits="userSpaceOnUse" gradientTransform="translate(125.204 84.7603) rotate(90) scale(24.2167 5.87719)">
<stop stop-color="#8C8EA5"/>
<stop offset="1" stop-color="#000002"/>
</radialGradient>
<radialGradient id="paint29_radial_3_273" cx="0" cy="0" r="1" gradientUnits="userSpaceOnUse" gradientTransform="translate(108.141 78.0104) rotate(90) scale(28.9 12.2181)">
<stop stop-color="#8C8EA5"/>
<stop offset="1" stop-color="#000002"/>
</radialGradient>
<radialGradient id="paint30_radial_3_273" cx="0" cy="0" r="1" gradientUnits="userSpaceOnUse" gradientTransform="translate(95.9872 84.9436) rotate(90) scale(34.1667 31.13)">
<stop stop-color="#8C8EA5"/>
<stop offset="1" stop-color="#000002"/>
</radialGradient>
<radialGradient id="paint31_radial_3_273" cx="0" cy="0" r="1" gradientUnits="userSpaceOnUse" gradientTransform="translate(97.3042 93.7775) rotate(90) scale(26.8833 20.4991)">
<stop stop-color="#8C8EA5"/>
<stop offset="1" stop-color="#000002"/>
</radialGradient>
<radialGradient id="paint32_radial_3_273" cx="0" cy="0" r="1" gradientUnits="userSpaceOnUse" gradientTransform="translate(115.272 99.0773) rotate(90) scale(26.0333 6.31717)">
<stop stop-color="#8C8EA5"/>
<stop offset="1" stop-color="#000002"/>
</radialGradient>
<radialGradient id="paint33_radial_3_273" cx="0" cy="0" r="1" gradientUnits="userSpaceOnUse" gradientTransform="translate(130.57 86.261) rotate(90) scale(24.25 18.5118)">
<stop stop-color="#8C8EA5"/>
<stop offset="1" stop-color="#000002"/>
</radialGradient>
<radialGradient id="paint34_radial_3_273" cx="0" cy="0" r="1" gradientUnits="userSpaceOnUse" gradientTransform="translate(135.289 89.5442) rotate(90) scale(24.45 22.2935)">
<stop stop-color="#8C8EA5"/>
<stop offset="1" stop-color="#000002"/>
</radialGradient>
<radialGradient id="paint35_radial_3_273" cx="0" cy="0" r="1" gradientUnits="userSpaceOnUse" gradientTransform="translate(127.339 90.9106) rotate(90) scale(28.9 12.2153)">
<stop stop-color="#8C8EA5"/>
<stop offset="1" stop-color="#000002"/>
</radialGradient>
<radialGradient id="paint36_radial_3_273" cx="0" cy="0" r="1" gradientUnits="userSpaceOnUse" gradientTransform="translate(125.204 50.9878) rotate(90) scale(24.2167 5.87719)">
<stop stop-color="#8C8EA5"/>
<stop offset="1" stop-color="#000002"/>
</radialGradient>
<radialGradient id="paint37_radial_3_273" cx="0" cy="0" r="1" gradientUnits="userSpaceOnUse" gradientTransform="translate(108.141 44.2379) rotate(90) scale(28.9 12.2181)">
<stop stop-color="#8C8EA5"/>
<stop offset="1" stop-color="#000002"/>
</radialGradient>
<radialGradient id="paint38_radial_3_273" cx="0" cy="0" r="1" gradientUnits="userSpaceOnUse" gradientTransform="translate(95.9872 51.1711) rotate(90) scale(34.1667 31.13)">
<stop stop-color="#8C8EA5"/>
<stop offset="1" stop-color="#000002"/>
</radialGradient>
<radialGradient id="paint39_radial_3_273" cx="0" cy="0" r="1" gradientUnits="userSpaceOnUse" gradientTransform="translate(97.3042 60.005) rotate(90) scale(26.8833 20.4991)">
<stop stop-color="#8C8EA5"/>
<stop offset="1" stop-color="#000002"/>
</radialGradient>
<radialGradient id="paint40_radial_3_273" cx="0" cy="0" r="1" gradientUnits="userSpaceOnUse" gradientTransform="translate(115.272 65.3049) rotate(90) scale(26.0333 6.31717)">
<stop stop-color="#8C8EA5"/>
<stop offset="1" stop-color="#000002"/>
</radialGradient>
<radialGradient id="paint41_radial_3_273" cx="0" cy="0" r="1" gradientUnits="userSpaceOnUse" gradientTransform="translate(130.57 52.4886) rotate(90) scale(24.25 18.5118)">
<stop stop-color="#8C8EA5"/>
<stop offset="1" stop-color="#000002"/>
</radialGradient>
<radialGradient id="paint42_radial_3_273" cx="0" cy="0" r="1" gradientUnits="userSpaceOnUse" gradientTransform="translate(135.289 55.7718) rotate(90) scale(24.45 22.2935)">
<stop stop-color="#8C8EA5"/>
<stop offset="1" stop-color="#000002"/>
</radialGradient>
<radialGradient id="paint43_radial_3_273" cx="0" cy="0" r="1" gradientUnits="userSpaceOnUse" gradientTransform="translate(127.339 57.1381) rotate(90) scale(28.9 12.2153)">
<stop stop-color="#8C8EA5"/>
<stop offset="1" stop-color="#000002"/>
</radialGradient>
<radialGradient id="paint44_radial_3_273" cx="0" cy="0" r="1" gradientUnits="userSpaceOnUse" gradientTransform="translate(123.851 59.9053) rotate(90) scale(122.067 3527.76)">
<stop stop-color="#000002" stop-opacity="0"/>
<stop offset="1" stop-color="#000002"/>
</radialGradient>
<radialGradient id="paint45_radial_3_273" cx="0" cy="0" r="1" gradientUnits="userSpaceOnUse" gradientTransform="translate(73.9992 64.8051) rotate(90) scale(91.8167 12.9366)">
<stop stop-color="#8C8EA5"/>
<stop offset="1" stop-color="#000002"/>
</radialGradient>
<linearGradient id="paint46_linear_3_273" x1="91.5352" y1="65.7976" x2="91.5352" y2="183.439" gradientUnits="userSpaceOnUse">
<stop stop-color="#8C8EA5"/>
<stop offset="1" stop-color="#8C8EA5" stop-opacity="0"/>
</linearGradient>
<radialGradient id="paint47_radial_3_273" cx="0" cy="0" r="1" gradientUnits="userSpaceOnUse" gradientTransform="translate(144.565 66.9049) rotate(90) scale(120.967 45.7621)">
<stop stop-color="#8C8EA5"/>
<stop offset="1" stop-color="#000002"/>
</radialGradient>
<linearGradient id="paint48_linear_3_273" x1="197.23" y1="81.3641" x2="197.23" y2="199.005" gradientUnits="userSpaceOnUse">
<stop stop-color="#8C8EA5"/>
<stop offset="1" stop-color="#8C8EA5" stop-opacity="0"/>
</linearGradient>
<radialGradient id="paint49_radial_3_273" cx="0" cy="0" r="1" gradientUnits="userSpaceOnUse" gradientTransform="translate(131.264 77.3049) rotate(90) scale(105.683 5.73605)">
<stop stop-color="#8C8EA5"/>
<stop offset="1" stop-color="#000002"/>
</radialGradient>
<linearGradient id="paint50_linear_3_273" x1="138.664" y1="71.4305" x2="138.664" y2="189.072" gradientUnits="userSpaceOnUse">
<stop stop-color="#8C8EA5"/>
<stop offset="1" stop-color="#8C8EA5" stop-opacity="0"/>
</linearGradient>
<radialGradient id="paint51_radial_3_273" cx="0" cy="0" r="1" gradientUnits="userSpaceOnUse" gradientTransform="translate(87.6339 89.6391) rotate(90) scale(120.8 50.1924)">
<stop stop-color="#8C8EA5"/>
<stop offset="1" stop-color="#000002"/>
</radialGradient>
</defs>
</svg>
