<svg width="40" height="40" viewBox="0 0 40 40" fill="none" xmlns="http://www.w3.org/2000/svg">
<path d="M14 8.75C9.3652 8.75 5.41663 12.2155 5.41663 16.7163C5.41663 19.8212 6.87054 22.4353 8.79744 24.6007C10.7177 26.7587 13.1952 28.57 15.4349 30.0861L19.2993 32.7018C19.7225 32.9883 20.2774 32.9883 20.7006 32.7018L24.565 30.0861C26.8047 28.57 29.2822 26.7587 31.2025 24.6007C33.1294 22.4353 34.5833 19.8212 34.5833 16.7163C34.5833 12.2155 30.6347 8.75 26 8.75C23.6108 8.75 21.5086 9.87023 20 11.3197C18.4914 9.87023 16.3891 8.75 14 8.75Z" fill="#CECFDB"/>
</svg>
