<svg width="72" height="72" viewBox="0 0 72 72" fill="none" xmlns="http://www.w3.org/2000/svg">
<path fill-rule="evenodd" clip-rule="evenodd" d="M24.6546 27.9626C24.6552 28.2107 24.3854 28.3539 24.1978 28.1915C22.78 26.9645 18.8201 22.8105 21.8936 16.8189C23.7812 13.1393 26.4171 11.5754 28.9485 10.0735C30.7865 8.98303 32.5694 7.92523 33.9707 6.11396C34.5675 5.3426 35.8101 5.33465 36.1072 6.26355C37.5161 10.6693 36.2601 15.5871 34.9646 20.6595C33.7728 25.326 32.5475 30.1233 33.3331 34.7731C33.4223 35.3012 32.8497 35.7258 32.4004 35.4345C28.8147 33.1092 24.6045 29.1395 26.4438 21.6243C26.5296 21.2735 26.106 21.085 25.9649 21.4173C25.0982 23.4592 24.6492 25.6855 24.6546 27.9626ZM23.3421 42.3474C23.5766 42.2661 23.5875 41.9609 23.3723 41.8373C21.3976 40.7035 19.6941 39.2015 18.3591 37.43C18.1418 37.1416 18.5169 36.869 18.7777 37.1187C24.3665 42.4692 29.9094 40.8079 33.716 38.8652C34.193 38.6218 34.1115 37.9136 33.6096 37.7268C29.19 36.0822 25.648 32.6225 22.2027 29.2571C18.4576 25.599 14.8266 22.0523 10.3066 21.0696C9.35366 20.8624 8.73923 21.9426 9.10886 22.8451C9.97681 24.9643 10.0014 27.0372 10.0268 29.1742C10.0618 32.1174 10.0982 35.1821 12.3411 38.6566C15.9932 44.3142 21.5707 42.9617 23.3421 42.3474ZM48.6325 29.5828C48.398 29.6641 48.387 29.9694 48.6023 30.0929C50.577 31.2267 52.2805 32.7287 53.6155 34.5002C53.8328 34.7886 53.4576 35.0612 53.1968 34.8115C47.6081 29.461 42.0651 31.1224 38.2585 33.065C37.7816 33.3084 37.863 34.0167 38.3649 34.2034C42.7845 35.848 46.3265 39.3077 49.7719 42.6731C53.517 46.3313 57.148 49.8779 61.6679 50.8606C62.6209 51.0678 63.2353 49.9877 62.8657 49.0852C61.9977 46.966 61.9731 44.893 61.9477 42.756C61.9127 39.8128 61.8763 36.7481 59.6334 33.2736C55.9813 27.6161 50.4039 28.9685 48.6325 29.5828ZM47.7768 43.7388C47.5891 43.5764 47.3193 43.7195 47.3199 43.9677C47.3254 46.2447 46.8764 48.471 46.0097 50.5129C45.8686 50.8453 45.4449 50.6567 45.5308 50.306C47.3701 42.7907 43.1598 38.821 39.5742 36.4958C39.1249 36.2044 38.5523 36.6291 38.6415 37.1571C39.427 41.8069 38.2018 46.6042 37.01 51.2707C35.7145 56.3431 34.4585 61.2609 35.8674 65.6667C36.1645 66.5956 37.4071 66.5876 38.0039 65.8163C39.4052 64.005 41.1881 62.9472 43.0261 61.8567C45.5575 60.3548 48.1934 58.7909 50.0809 55.1113C53.1545 49.1197 49.1945 44.9657 47.7768 43.7388ZM34.6256 49.8163C34.8402 49.6917 35.0991 49.8538 35.0523 50.0975C34.6986 51.9387 33.0811 57.4452 26.3554 57.7792C22.225 57.9843 19.5527 56.4835 16.9863 55.0422C15.1229 53.9957 13.3154 52.9806 11.0461 52.6726C10.0797 52.5415 9.45151 51.4693 10.1074 50.7476C13.2184 47.3246 18.1054 45.9534 23.146 44.5391C27.7832 43.238 32.5504 41.9004 36.1845 38.8952C36.5972 38.554 37.2513 38.8375 37.2236 39.3723C37.0027 43.6402 35.6699 49.2712 28.2419 51.436C27.8952 51.537 27.9438 51.9982 28.3022 51.9542C30.5038 51.6838 32.6563 50.9595 34.6256 49.8163ZM36.9223 21.8327C36.8755 22.0765 37.1343 22.2386 37.3489 22.114C39.3182 20.9707 41.4707 20.2464 43.6724 19.976C44.0308 19.932 44.0793 20.3932 43.7327 20.4943C36.3046 22.659 34.9719 28.29 34.7509 32.5579C34.7233 33.0927 35.3774 33.3763 35.79 33.035C39.4241 30.0298 44.1913 28.6922 48.8285 27.3911C53.8691 25.9768 58.7561 24.6057 61.8671 21.1826C62.523 20.4609 61.8948 19.3887 60.9284 19.2576C58.6592 18.9497 56.8516 17.9345 54.9882 16.888C52.4219 15.4467 49.7495 13.9459 45.6191 14.151C38.8934 14.4851 37.276 19.9915 36.9223 21.8327Z" fill="#CECFDB"/>
</svg>
