<svg width="40" height="40" viewBox="0 0 40 40" fill="none" xmlns="http://www.w3.org/2000/svg">
<path d="M20 16.25C17.9289 16.25 16.25 17.929 16.25 20C16.25 22.0711 17.9289 23.75 20 23.75C22.071 23.75 23.75 22.0711 23.75 20C23.75 17.929 22.071 16.25 20 16.25Z" fill="#CECFDB"/>
<path fill-rule="evenodd" clip-rule="evenodd" d="M20 9.16669C15.637 9.16669 11.7133 10.919 8.88599 13.0889C7.47048 14.1753 6.30902 15.3819 5.49411 16.5562C4.69473 17.708 4.16663 18.9192 4.16663 20C4.16663 21.0808 4.69473 22.292 5.49411 23.4439C6.30902 24.6181 7.47048 25.8247 8.88599 26.9111C11.7133 29.081 15.637 30.8334 20 30.8334C24.3629 30.8334 28.2866 29.081 31.1139 26.9111C32.5294 25.8247 33.6909 24.6181 34.5058 23.4439C35.3052 22.292 35.8333 21.0808 35.8333 20C35.8333 18.9192 35.3052 17.708 34.5058 16.5562C33.6909 15.3819 32.5294 14.1753 31.1139 13.0889C28.2866 10.919 24.3629 9.16669 20 9.16669ZM13.75 20C13.75 16.5482 16.5482 13.75 20 13.75C23.4517 13.75 26.25 16.5482 26.25 20C26.25 23.4518 23.4517 26.25 20 26.25C16.5482 26.25 13.75 23.4518 13.75 20Z" fill="#CECFDB"/>
</svg>
