<svg width="240" height="225" viewBox="0 0 240 225" fill="none" xmlns="http://www.w3.org/2000/svg">
<rect y="3.67188" width="240" height="160" fill="url(#paint0_radial_3_88)"/>
<path d="M81.7699 158.587L88.2501 165.3C88.4382 165.495 88.9793 165.601 89.4937 165.544C89.9448 165.494 90.2338 165.335 90.2389 165.164C90.2404 165.114 90.2381 47.4579 90.2381 45.8553L86.0548 42.4332C84.7214 41.8489 82.1501 39.0841 81.7148 39.1445C81.7148 42.767 81.7148 158.333 81.7149 158.47C81.7149 158.509 81.7326 158.549 81.7699 158.587Z" fill="#000002"/>
<path d="M90.2344 46.2305V164.588" stroke="url(#paint1_linear_3_88)" stroke-width="0.8" stroke-linecap="round"/>
<path d="M81.6992 39.4199V157.777" stroke="url(#paint2_linear_3_88)" stroke-width="0.8" stroke-linecap="round"/>
<path d="M81.7699 39.2685L88.25 45.9813C88.4381 46.1762 88.9792 46.2822 89.4936 46.225C90.0778 46.1601 90.3902 45.9132 90.1662 45.6935L83.3701 39.0281C83.1997 38.861 82.7195 38.7764 82.2843 38.8369C81.8331 38.8996 81.6014 39.094 81.7699 39.2685Z" fill="#8C8EA5"/>
<path fill-rule="evenodd" clip-rule="evenodd" d="M89.2543 50.3121L23.1328 47.9082V168.41C23.1536 168.045 23.553 167.694 24.2601 167.442C29.6687 165.512 37.2842 164.828 44.3203 165.64L89.2139 170.821L89.2543 170.823V50.3121Z" fill="#000002"/>
<path fill-rule="evenodd" clip-rule="evenodd" d="M23.2041 168.713C24.6806 171.51 29.8218 173.8 36.7468 174.746L91.0825 182.166C86.8258 178.911 85.753 175.024 88.872 171.275C88.9972 171.124 89.1281 170.975 89.2647 170.828L44.3211 165.64C37.285 164.828 29.6696 165.512 24.261 167.442C23.3592 167.764 22.9579 168.247 23.2041 168.713Z" fill="#CECFDB"/>
<path d="M36.8009 53.8292C33.3653 53.36 30.3873 52.5591 28.095 51.5379C25.7895 50.5109 24.2338 49.2864 23.5578 48.0059C23.5323 47.9576 23.5306 47.9254 23.5342 47.901C23.5384 47.873 23.5545 47.8251 23.6095 47.7589C23.7263 47.6186 23.9754 47.4486 24.3954 47.2988C29.7344 45.3935 37.2861 44.7106 44.2753 45.5173L88.4668 50.618C86.9203 52.531 86.3874 54.5209 86.8209 56.4722C87.1814 58.0949 88.1994 59.6402 89.7565 61.0608L36.8009 53.8292Z" fill="#000002" stroke="#8C8EA5" stroke-width="0.8" stroke-linejoin="round"/>
<path fill-rule="evenodd" clip-rule="evenodd" d="M36.7467 54.2252C29.8217 53.2796 24.6804 50.9893 23.2039 48.1923C23.1582 48.1056 23.1348 48.0183 23.1328 47.9316C23.1328 48.5194 23.1329 54.1395 23.133 62.6599C23.1336 94.7853 23.1349 168.14 23.1333 168.436C23.1328 168.528 23.1562 168.62 23.2045 168.712C24.681 171.508 29.8223 173.799 36.7473 174.744L91.0829 182.165L91.0829 61.6472C91.0799 61.6462 91.0768 61.6452 91.0738 61.6442L36.7467 54.2252Z" fill="#000002"/>
<path d="M23.1328 48.1338V166.491" stroke="url(#paint3_linear_3_88)" stroke-width="0.8" stroke-linecap="round"/>
<path d="M90.2344 61.3223V179.68" stroke="url(#paint4_linear_3_88)" stroke-width="0.4" stroke-linecap="round"/>
<path d="M88.668 50.6045L88.668 60.5205" stroke="url(#paint5_linear_3_88)" stroke-width="0.8" stroke-linecap="round"/>
<path d="M99.7172 22.6527C99.7956 21.4124 100.717 20.1429 102.501 18.9853C104.272 17.8352 106.823 16.8453 109.988 16.1477C110.996 15.9255 112.24 15.9255 113.248 16.1477C116.412 16.8453 118.963 17.8352 120.735 18.9853C122.518 20.1429 123.44 21.4124 123.518 22.6527L124.644 40.4561C124.382 40.454 124.119 40.4529 123.856 40.4529C113.981 40.4529 104.994 41.9613 98.3407 44.4305L99.7172 22.6527Z" fill="#000002" stroke="#8C8EA5" stroke-width="0.8" stroke-linejoin="round"/>
<path fill-rule="evenodd" clip-rule="evenodd" d="M97.9032 45.0239C97.9029 45.0281 97.9026 45.0323 97.9023 45.0364L97.9023 165.543C104.553 162.965 113.726 161.372 123.856 161.372C124.262 161.372 124.667 161.374 125.07 161.379V40.863C125.07 40.8621 125.07 40.8612 125.07 40.8603C124.667 40.8552 124.262 40.8527 123.856 40.8527C113.726 40.8527 104.553 42.4462 97.9032 45.0239ZM125.067 40.8037L124.831 37.0771C125.024 37.9271 125.032 38.8121 125.039 39.6613C125.042 40.052 125.045 40.4351 125.067 40.8037Z" fill="#000002"/>
<path d="M97.8984 44.9617V163.319" stroke="url(#paint6_linear_3_88)" stroke-width="0.8" stroke-linecap="round"/>
<path d="M125.066 40.8887V159.246" stroke="url(#paint7_linear_3_88)" stroke-width="0.8" stroke-linecap="round"/>
<path fill-rule="evenodd" clip-rule="evenodd" d="M109.901 136.276C103.516 137.683 99.4984 140.292 99.318 143.146L97.9023 165.543C104.553 162.965 113.726 161.371 123.856 161.371C124.262 161.371 124.667 161.374 125.07 161.379L123.918 143.146C123.737 140.292 119.719 137.683 113.334 136.276C112.269 136.041 110.966 136.041 109.901 136.276Z" fill="#CECFDB"/>
<path d="M149.088 35.116L134.438 39.4112C134.437 42.7332 134.438 159.806 134.438 159.922C134.437 160.001 134.497 160.08 134.619 160.149C134.964 160.344 135.666 160.38 136.129 160.227L150.185 155.589C150.385 155.523 150.488 155.429 150.488 155.334C150.488 155.262 150.488 37.3578 150.488 34.8204C150.191 34.6742 149.459 34.998 149.088 35.116Z" fill="#000002"/>
<path d="M150.5 35.1123V153.47" stroke="url(#paint8_linear_3_88)" stroke-width="0.8" stroke-linecap="round"/>
<path d="M134.664 39.9209V158.278" stroke="url(#paint9_linear_3_88)" stroke-width="0.8" stroke-linecap="round"/>
<path d="M149.091 34.5572L134.818 39.0941C134.404 39.2258 134.319 39.4591 134.622 39.6304C134.967 39.825 135.669 39.8611 136.132 39.7082L150.188 35.0701C150.541 34.9538 150.593 34.7498 150.307 34.6087C150.01 34.4625 149.462 34.4393 149.091 34.5572Z" fill="#8C8EA5"/>
<path fill-rule="evenodd" clip-rule="evenodd" d="M216.88 38.6582C216.895 38.7698 216.874 38.883 216.816 38.9953C215.367 41.7944 210.248 44.0922 203.332 45.0482L159.158 51.154C159.157 51.1534 159.157 51.1528 159.156 51.1521V171.67L159.158 171.673L203.333 165.567C210.248 164.611 215.367 162.313 216.817 159.514C216.861 159.428 216.884 159.341 216.885 159.254C216.89 158.927 216.886 72.5191 216.885 46.1339L216.885 44.6516C216.885 41.2442 216.885 39.1072 216.885 38.66L216.88 38.6582Z" fill="#000002"/>
<path fill-rule="evenodd" clip-rule="evenodd" d="M140.523 42.4072C148.892 44.0627 155.642 46.9575 158.797 50.7024C158.923 50.852 159.043 51.0019 159.155 51.1519V171.67C159.043 171.52 158.924 171.371 158.798 171.221C155.642 167.476 148.892 164.582 140.524 162.926L140.523 42.4158L140.567 42.4158C140.552 42.4129 140.538 42.4101 140.523 42.4072V42.4072Z" fill="#000002"/>
<path d="M216.898 39.0859V157.443" stroke="url(#paint10_linear_3_88)" stroke-width="0.8" stroke-linecap="round"/>
<path d="M159.367 50.9053V169.263" stroke="url(#paint11_linear_3_88)" stroke-width="0.8" stroke-linecap="round"/>
<path d="M140.535 42.6914V161.049" stroke="url(#paint12_linear_3_88)" stroke-width="0.8" stroke-linecap="round"/>
<path d="M195.715 36.3513C202.696 35.5343 210.254 36.206 215.612 38.1035C216.034 38.2528 216.286 38.4227 216.405 38.5638C216.461 38.6306 216.478 38.679 216.482 38.7075C216.486 38.7321 216.485 38.764 216.46 38.8115C215.797 40.0916 214.255 41.3178 211.959 42.3482C209.678 43.3725 206.708 44.1778 203.277 44.6521L159.332 50.7262C159.258 50.6323 159.182 50.5386 159.103 50.4451C157.472 48.509 154.936 46.8184 151.778 45.4065C149.219 44.2622 146.236 43.2938 142.962 42.525L195.715 36.3513Z" fill="#000002" stroke="#8C8EA5" stroke-width="0.8" stroke-linejoin="round"/>
<path d="M182.312 58.6927L171.873 56.3389C169.623 55.5543 165.288 54.6226 164.958 54.7864C164.958 57.9916 164.956 175.22 164.958 175.307C164.96 175.438 165.126 175.566 165.434 175.642L180.995 179.485C181.385 179.582 181.901 179.54 182.162 179.392C182.264 179.334 182.312 179.269 182.312 179.204C182.312 179.095 182.312 61.2635 182.312 58.6927Z" fill="#000002"/>
<path d="M182.301 58.9843V177.342" stroke="url(#paint13_linear_3_88)" stroke-width="0.8" stroke-linecap="round"/>
<path d="M164.969 55.1786V173.536" stroke="url(#paint14_linear_3_88)" stroke-width="0.8" stroke-linecap="round"/>
<path d="M181.927 58.4061L166.551 54.4525C166.104 54.3377 165.506 54.3755 165.176 54.5393C164.801 54.7252 164.921 54.9965 165.434 55.1231L180.994 58.9662C181.385 59.0626 181.901 59.0214 182.162 58.873C182.433 58.7192 182.327 58.5089 181.927 58.4061Z" fill="#8C8EA5"/>
<path d="M130.613 144.87C131.177 143.971 131.924 143.369 132.412 143.42C132.412 144.687 132.412 164.837 132.412 164.965C132.411 164.994 132.401 165.023 132.38 165.053L127.008 172.841C126.877 173.031 126.375 173.143 125.887 173.092C125.482 173.05 125.214 172.909 125.209 172.753C125.208 172.722 125.207 151.27 125.207 151.203L130.613 144.87Z" fill="url(#paint15_radial_3_88)"/>
<path d="M130.611 143.327C130.742 143.137 131.244 143.025 131.732 143.076C132.22 143.126 132.51 143.321 132.379 143.511L127.006 151.299C126.875 151.489 126.374 151.601 125.885 151.551C125.397 151.5 125.108 151.305 125.238 151.115L130.611 143.327Z" fill="#CECFDB"/>
<path d="M108.275 166.285C108.192 166.23 108.153 166.169 108.152 166.109C108.152 164.853 108.153 147.553 108.153 144.57C108.59 144.472 111.66 146.417 111.913 146.587L120.362 151.553C120.362 151.937 120.362 172.487 120.362 173.094C120.359 173.215 120.195 173.333 119.904 173.398C119.467 173.496 118.907 173.438 118.654 173.268L108.275 166.285Z" fill="url(#paint16_radial_3_88)"/>
<path d="M108.274 144.743C108.021 144.573 108.171 144.356 108.609 144.258C109.046 144.16 109.606 144.218 109.859 144.388L120.238 151.371C120.491 151.541 120.341 151.758 119.903 151.856C119.465 151.954 118.906 151.896 118.653 151.726L108.274 144.743Z" fill="#CECFDB"/>
<path d="M95.0495 173.42C94.6396 173.377 94.3697 173.233 94.3711 173.075C94.3714 173.045 94.3725 151.703 94.3725 151.536C94.5033 151.347 99.2042 152.019 99.6924 152.07L116.252 153.62C116.252 153.936 116.252 174.886 116.252 175.17C116.251 175.198 116.241 175.227 116.221 175.255C116.09 175.445 115.589 175.557 115.101 175.506L95.0495 173.42Z" fill="url(#paint17_radial_3_88)"/>
<path d="M95.0518 151.883C94.5637 151.832 94.274 151.637 94.4048 151.448C94.5356 151.258 95.0373 151.145 95.5254 151.196L115.577 153.283C116.065 153.334 116.354 153.529 116.224 153.718C116.093 153.908 115.591 154.021 115.103 153.97L95.0518 151.883Z" fill="#CECFDB"/>
<path d="M98.6959 182.103C98.2583 182.201 97.6987 182.143 97.446 181.973C97.3665 181.92 97.3269 181.862 97.3235 181.804C97.3163 181.678 97.3235 160.754 97.3235 160.254L115.758 156.454C116.196 156.356 116.878 156.05 117.131 156.22C117.131 157.154 117.132 177.705 117.131 177.766C117.128 177.888 116.965 178.006 116.673 178.072L98.6959 182.103Z" fill="url(#paint18_radial_3_88)"/>
<path d="M98.6947 160.562C98.2571 160.66 97.6975 160.601 97.4449 160.431C97.1922 160.261 97.3421 160.044 97.7798 159.946L115.757 155.914C116.195 155.816 116.754 155.875 117.007 156.045C117.26 156.215 117.11 156.432 116.672 156.53L98.6947 160.562Z" fill="#CECFDB"/>
<path d="M117.076 187.239C116.946 187.428 116.444 187.541 115.956 187.49C115.546 187.447 115.276 187.303 115.277 187.146C115.278 187.116 115.277 167.237 115.277 165.604L120.66 158.937C120.791 158.747 121.992 157.769 122.48 157.82C122.48 157.904 122.48 179.17 122.48 179.364C122.479 179.393 122.469 179.421 122.449 179.45L117.076 187.239Z" fill="url(#paint19_radial_3_88)"/>
<path d="M117.077 165.697C116.946 165.886 116.444 165.999 115.956 165.948C115.468 165.897 115.178 165.702 115.309 165.513L120.682 157.724C120.813 157.535 121.314 157.422 121.802 157.473C122.29 157.524 122.58 157.719 122.449 157.908L117.077 165.697Z" fill="#CECFDB"/>
<path d="M145.692 149.637C146.129 149.539 150.11 148.601 150.363 148.771C150.363 149.404 150.365 170.255 150.362 170.316C150.358 170.438 150.194 170.555 149.905 170.62L131.928 174.651C131.49 174.749 130.93 174.691 130.678 174.521C130.595 174.465 130.555 174.405 130.555 174.345C130.554 174.221 130.555 153.404 130.555 152.804L145.692 149.637Z" fill="url(#paint20_radial_3_88)"/>
<path d="M148.993 148.462C149.43 148.364 149.99 148.422 150.243 148.592C150.495 148.762 150.345 148.979 149.908 149.077L131.93 153.109C131.493 153.207 130.933 153.149 130.68 152.979C130.428 152.809 130.578 152.592 131.015 152.493L148.993 148.462Z" fill="#9EC0F4"/>
<path d="M153.319 157.487C153.319 159.187 153.322 178.871 153.319 179.029C153.319 179.058 153.309 179.088 153.288 179.118C153.157 179.308 152.655 179.42 152.167 179.37L132.116 177.283C131.71 177.24 131.441 177.098 131.438 176.943C131.437 176.911 131.438 157.471 131.438 155.404C131.861 155.287 135.311 155.654 137.311 156.037L153.319 157.487Z" fill="url(#paint21_radial_3_88)"/>
<path d="M152.64 157.14C153.128 157.191 153.417 157.386 153.287 157.576C153.156 157.765 152.654 157.878 152.166 157.827L132.115 155.74C131.627 155.689 131.337 155.494 131.468 155.305C131.599 155.115 132.1 155.003 132.588 155.054L152.64 157.14Z" fill="#64A2FF"/>
<path d="M139.542 164.454C139.542 165.004 139.544 185.942 139.542 186.004C139.537 186.125 139.374 186.242 139.084 186.307C138.647 186.405 138.087 186.347 137.834 186.177L127.455 179.194C127.372 179.138 127.333 179.077 127.332 179.017C127.332 178.894 127.332 158.27 127.332 157.47C127.77 157.372 131.597 158.602 132.26 160.504L139.542 164.454Z" fill="url(#paint22_radial_3_88)"/>
<path d="M139.418 164.279C139.67 164.449 139.52 164.666 139.083 164.764C138.645 164.863 138.086 164.804 137.833 164.634L127.454 157.651C127.201 157.481 127.351 157.264 127.789 157.166C128.226 157.068 128.786 157.126 129.038 157.296L139.418 164.279Z" fill="url(#paint23_linear_3_88)"/>
<path d="M130.613 111.431C131.177 110.533 131.924 109.931 132.412 109.982C132.412 111.248 132.412 131.398 132.412 131.526C132.411 131.555 132.401 131.585 132.38 131.614L127.008 139.403C126.877 139.592 126.375 139.705 125.887 139.654C125.482 139.612 125.214 139.47 125.209 139.315C125.208 139.283 125.207 117.831 125.207 117.765L130.613 111.431Z" fill="url(#paint24_radial_3_88)"/>
<path d="M130.611 109.889C130.742 109.699 131.244 109.586 131.732 109.637C132.22 109.688 132.51 109.883 132.379 110.072L127.006 117.861C126.875 118.05 126.374 118.163 125.885 118.112C125.397 118.061 125.108 117.866 125.238 117.677L130.611 109.889Z" fill="#CECFDB"/>
<path d="M108.275 132.847C108.192 132.791 108.153 132.73 108.152 132.671C108.152 131.415 108.153 114.115 108.153 111.132C108.59 111.033 111.66 112.978 111.913 113.148L120.362 118.115C120.362 118.498 120.362 139.048 120.362 139.655C120.359 139.777 120.195 139.895 119.904 139.96C119.467 140.058 118.907 140 118.654 139.83L108.275 132.847Z" fill="url(#paint25_radial_3_88)"/>
<path d="M108.274 111.305C108.021 111.135 108.171 110.917 108.609 110.819C109.046 110.721 109.606 110.779 109.859 110.949L120.238 117.932C120.491 118.102 120.341 118.32 119.903 118.418C119.465 118.516 118.906 118.458 118.653 118.288L108.274 111.305Z" fill="#CECFDB"/>
<path d="M95.0495 139.981C94.6396 139.938 94.3697 139.794 94.3711 139.637C94.3714 139.607 94.3725 118.265 94.3725 118.098C94.5033 117.908 99.2042 118.58 99.6924 118.631L116.252 120.181C116.252 120.498 116.252 141.448 116.252 141.731C116.251 141.759 116.241 141.788 116.221 141.817C116.09 142.006 115.589 142.119 115.101 142.068L95.0495 139.981Z" fill="url(#paint26_radial_3_88)"/>
<path d="M95.0518 118.444C94.5637 118.394 94.274 118.199 94.4048 118.009C94.5356 117.82 95.0373 117.707 95.5254 117.758L115.577 119.845C116.065 119.896 116.354 120.09 116.224 120.28C116.093 120.47 115.591 120.582 115.103 120.531L95.0518 118.444Z" fill="#CECFDB"/>
<path d="M98.6959 148.665C98.2583 148.763 97.6987 148.705 97.446 148.535C97.3665 148.481 97.3269 148.423 97.3235 148.365C97.3163 148.24 97.3235 127.315 97.3235 126.815L115.758 123.015C116.196 122.917 116.878 122.612 117.131 122.782C117.131 123.715 117.132 144.267 117.131 144.328C117.128 144.45 116.965 144.568 116.673 144.633L98.6959 148.665Z" fill="url(#paint27_radial_3_88)"/>
<path d="M98.6947 127.123C98.2571 127.221 97.6975 127.163 97.4449 126.993C97.1922 126.823 97.3421 126.606 97.7798 126.508L115.757 122.476C116.195 122.378 116.754 122.436 117.007 122.606C117.26 122.776 117.11 122.993 116.672 123.092L98.6947 127.123Z" fill="#CECFDB"/>
<path d="M117.076 153.8C116.946 153.99 116.444 154.102 115.956 154.051C115.546 154.009 115.276 153.865 115.277 153.707C115.278 153.677 115.277 133.798 115.277 132.165L120.66 125.498C120.791 125.309 121.992 124.331 122.48 124.382C122.48 124.465 122.48 145.732 122.48 145.926C122.479 145.954 122.469 145.983 122.449 146.012L117.076 153.8Z" fill="url(#paint28_radial_3_88)"/>
<path d="M117.077 132.258C116.946 132.448 116.444 132.56 115.956 132.51C115.468 132.459 115.178 132.264 115.309 132.074L120.682 124.286C120.813 124.096 121.314 123.984 121.802 124.035C122.29 124.085 122.58 124.28 122.449 124.47L117.077 132.258Z" fill="#CECFDB"/>
<path d="M145.692 116.199C146.129 116.101 150.11 115.162 150.363 115.332C150.363 115.965 150.365 136.816 150.362 136.878C150.358 136.999 150.194 137.116 149.905 137.181L131.928 141.213C131.49 141.311 130.93 141.253 130.678 141.083C130.595 141.027 130.555 140.966 130.555 140.906C130.554 140.783 130.555 119.966 130.555 119.366L145.692 116.199Z" fill="url(#paint29_radial_3_88)"/>
<path d="M148.993 115.023C149.43 114.925 149.99 114.984 150.243 115.153C150.495 115.323 150.345 115.541 149.908 115.639L131.93 119.671C131.493 119.769 130.933 119.71 130.68 119.54C130.428 119.37 130.578 119.153 131.015 119.055L148.993 115.023Z" fill="#9EC0F4"/>
<path d="M153.319 124.049C153.319 125.749 153.322 145.432 153.319 145.59C153.319 145.62 153.309 145.65 153.288 145.68C153.157 145.869 152.655 145.982 152.167 145.931L132.116 143.844C131.71 143.802 131.441 143.66 131.438 143.504C131.437 143.473 131.438 124.032 131.438 121.965C131.861 121.849 135.311 122.215 137.311 122.599L153.319 124.049Z" fill="url(#paint30_radial_3_88)"/>
<path d="M152.64 123.702C153.128 123.753 153.417 123.948 153.287 124.137C153.156 124.327 152.654 124.439 152.166 124.389L132.115 122.302C131.627 122.251 131.337 122.056 131.468 121.866C131.599 121.677 132.1 121.564 132.588 121.615L152.64 123.702Z" fill="#64A2FF"/>
<path d="M139.542 131.015C139.542 131.565 139.544 152.503 139.542 152.565C139.537 152.686 139.374 152.803 139.084 152.868C138.647 152.966 138.087 152.908 137.834 152.738L127.455 145.755C127.372 145.7 127.333 145.639 127.332 145.579C127.332 145.456 127.332 124.832 127.332 124.032C127.77 123.934 131.597 125.164 132.26 127.065L139.542 131.015Z" fill="url(#paint31_radial_3_88)"/>
<path d="M139.418 130.84C139.67 131.01 139.52 131.228 139.083 131.326C138.645 131.424 138.086 131.366 137.833 131.196L127.454 124.213C127.201 124.043 127.351 123.826 127.789 123.727C128.226 123.629 128.786 123.688 129.038 123.858L139.418 130.84Z" fill="url(#paint32_linear_3_88)"/>
<path d="M130.613 77.993C131.177 77.0942 131.924 76.4922 132.412 76.543C132.412 77.8097 132.412 97.9597 132.412 98.0878C132.411 98.1169 132.401 98.1464 132.38 98.1758L127.008 105.964C126.877 106.154 126.375 106.266 125.887 106.215C125.482 106.173 125.214 106.032 125.209 105.876C125.208 105.845 125.207 84.393 125.207 84.3263L130.613 77.993Z" fill="url(#paint33_radial_3_88)"/>
<path d="M130.611 76.45C130.742 76.2604 131.244 76.1479 131.732 76.1987C132.22 76.2495 132.51 76.4444 132.379 76.634L127.006 84.4223C126.875 84.6119 126.374 84.7245 125.885 84.6736C125.397 84.6228 125.108 84.428 125.238 84.2384L130.611 76.45Z" fill="#CECFDB"/>
<path d="M108.275 99.4084C108.192 99.3527 108.153 99.292 108.152 99.232C108.152 97.9765 108.153 80.6764 108.153 77.693C108.59 77.5949 111.66 79.5397 111.913 79.7097L120.362 84.6764C120.362 85.0597 120.362 105.61 120.362 106.217C120.359 106.338 120.195 106.456 119.904 106.521C119.467 106.619 118.907 106.561 118.654 106.391L108.275 99.4084Z" fill="url(#paint34_radial_3_88)"/>
<path d="M108.274 77.8663C108.021 77.6963 108.171 77.479 108.609 77.3808C109.046 77.2827 109.606 77.3409 109.859 77.5109L120.238 84.4938C120.491 84.6637 120.341 84.8811 119.903 84.9792C119.465 85.0774 118.906 85.0191 118.653 84.8492L108.274 77.8663Z" fill="#CECFDB"/>
<path d="M95.0495 106.543C94.6396 106.5 94.3697 106.356 94.3711 106.198C94.3714 106.168 94.3725 84.8261 94.3725 84.6594C94.5033 84.4698 99.2042 85.1419 99.6924 85.1927L116.252 86.7426C116.252 87.0593 116.252 108.009 116.252 108.293C116.251 108.321 116.241 108.35 116.221 108.378C116.09 108.568 115.589 108.68 115.101 108.629L95.0495 106.543Z" fill="url(#paint35_radial_3_88)"/>
<path d="M95.0518 85.0059C94.5637 84.9551 94.274 84.7602 94.4048 84.5707C94.5356 84.3811 95.0373 84.2685 95.5254 84.3193L115.577 86.4062C116.065 86.457 116.354 86.6519 116.224 86.8415C116.093 87.0311 115.591 87.1436 115.103 87.0928L95.0518 85.0059Z" fill="#CECFDB"/>
<path d="M98.6959 115.226C98.2583 115.324 97.6987 115.266 97.446 115.096C97.3665 115.043 97.3269 114.985 97.3235 114.927C97.3163 114.801 97.3235 93.8768 97.3235 93.3768L115.758 89.5768C116.196 89.4787 116.878 89.1735 117.131 89.3435C117.131 90.2768 117.132 110.828 117.131 110.889C117.128 111.011 116.965 111.129 116.673 111.195L98.6959 115.226Z" fill="url(#paint36_radial_3_88)"/>
<path d="M98.6947 93.6846C98.2571 93.7827 97.6975 93.7245 97.4449 93.5545C97.1922 93.3845 97.3421 93.1672 97.7798 93.069L115.757 89.0375C116.195 88.9394 116.754 88.9976 117.007 89.1676C117.26 89.3376 117.11 89.5549 116.672 89.6531L98.6947 93.6846Z" fill="#CECFDB"/>
<path d="M117.076 120.362C116.946 120.551 116.444 120.664 115.956 120.613C115.546 120.57 115.276 120.426 115.277 120.269C115.278 120.239 115.277 100.36 115.277 98.7267L120.66 92.06C120.791 91.8704 121.992 90.8925 122.48 90.9433C122.48 91.0266 122.48 112.293 122.48 112.487C122.479 112.516 122.469 112.544 122.449 112.573L117.076 120.362Z" fill="url(#paint37_radial_3_88)"/>
<path d="M117.077 98.8198C116.946 99.0094 116.444 99.1219 115.956 99.0711C115.468 99.0203 115.178 98.8254 115.309 98.6358L120.682 90.8475C120.813 90.6579 121.314 90.5454 121.802 90.5962C122.29 90.647 122.58 90.8419 122.449 91.0314L117.077 98.8198Z" fill="#CECFDB"/>
<path d="M145.692 82.7602C146.129 82.6621 150.11 81.7236 150.363 81.8936C150.363 82.5269 150.365 103.378 150.362 103.439C150.358 103.561 150.194 103.678 149.905 103.743L131.928 107.774C131.49 107.872 130.93 107.814 130.678 107.644C130.595 107.588 130.555 107.528 130.555 107.468C130.554 107.344 130.555 86.527 130.555 85.927L145.692 82.7602Z" fill="url(#paint38_radial_3_88)"/>
<path d="M148.993 81.5849C149.43 81.4868 149.99 81.545 150.243 81.715C150.495 81.885 150.345 82.1024 149.908 82.2005L131.93 86.232C131.493 86.3302 130.933 86.2719 130.68 86.102C130.428 85.932 130.578 85.7146 131.015 85.6165L148.993 81.5849Z" fill="#9EC0F4"/>
<path d="M153.319 90.6102C153.319 92.3102 153.322 111.994 153.319 112.152C153.319 112.181 153.309 112.211 153.288 112.241C153.157 112.431 152.655 112.543 152.167 112.493L132.116 110.406C131.71 110.364 131.441 110.221 131.438 110.066C131.437 110.034 131.438 90.5936 131.438 88.5269C131.861 88.4102 135.311 88.7769 137.311 89.1602L153.319 90.6102Z" fill="url(#paint39_radial_3_88)"/>
<path d="M152.64 90.2635C153.128 90.3143 153.417 90.5092 153.287 90.6988C153.156 90.8883 152.654 91.0009 152.166 90.9501L132.115 88.8632C131.627 88.8124 131.337 88.6175 131.468 88.4279C131.599 88.2383 132.1 88.1258 132.588 88.1766L152.64 90.2635Z" fill="#64A2FF"/>
<path d="M139.542 97.5766C139.542 98.1266 139.544 119.065 139.542 119.127C139.537 119.248 139.374 119.365 139.084 119.43C138.647 119.528 138.087 119.47 137.834 119.3L127.455 112.317C127.372 112.261 127.333 112.2 127.332 112.14C127.332 112.017 127.332 91.3934 127.332 90.5934C127.77 90.4952 131.597 91.7253 132.26 93.6267L139.542 97.5766Z" fill="url(#paint40_radial_3_88)"/>
<path d="M139.418 97.4019C139.67 97.5719 139.52 97.7893 139.083 97.8874C138.645 97.9856 138.086 97.9273 137.833 97.7573L127.454 90.7745C127.201 90.6045 127.351 90.3871 127.789 90.289C128.226 90.1909 128.786 90.2491 129.038 90.4191L139.418 97.4019Z" fill="url(#paint41_linear_3_88)"/>
<path d="M130.613 44.5545C131.177 43.6557 131.924 43.0537 132.412 43.1045C132.412 44.3712 132.412 64.5212 132.412 64.6493C132.411 64.6784 132.401 64.7079 132.38 64.7373L127.008 72.5257C126.877 72.7153 126.375 72.8278 125.887 72.777C125.482 72.7348 125.214 72.5933 125.209 72.438C125.208 72.4062 125.207 50.9545 125.207 50.8878L130.613 44.5545Z" fill="url(#paint42_radial_3_88)"/>
<path d="M130.611 43.0115C130.742 42.822 131.244 42.7094 131.732 42.7602C132.22 42.811 132.51 43.0059 132.379 43.1955L127.006 50.9839C126.875 51.1735 126.374 51.286 125.885 51.2352C125.397 51.1844 125.108 50.9895 125.238 50.7999L130.611 43.0115Z" fill="#CECFDB"/>
<path d="M108.275 65.9699C108.192 65.9143 108.153 65.8535 108.152 65.7935C108.152 64.538 108.153 47.2379 108.153 44.2546C108.59 44.1564 111.66 46.1013 111.913 46.2712L120.362 51.2379C120.362 51.6212 120.362 72.1712 120.362 72.7781C120.359 72.8998 120.195 73.0176 119.904 73.0828C119.467 73.181 118.907 73.1227 118.654 72.9528L108.275 65.9699Z" fill="url(#paint43_radial_3_88)"/>
<path d="M108.274 44.4278C108.021 44.2579 108.171 44.0405 108.609 43.9424C109.046 43.8442 109.606 43.9025 109.859 44.0724L120.238 51.0553C120.491 51.2253 120.341 51.4426 119.903 51.5408C119.465 51.6389 118.906 51.5807 118.653 51.4107L108.274 44.4278Z" fill="#CECFDB"/>
<path d="M95.0495 73.1041C94.6396 73.0614 94.3697 72.9172 94.3711 72.7598C94.3714 72.7298 94.3725 51.3876 94.3725 51.2209C94.5033 51.0313 99.2042 51.7035 99.6924 51.7543L116.252 53.3041C116.252 53.6208 116.252 74.5708 116.252 74.8541C116.251 74.8824 116.241 74.9111 116.221 74.9397C116.09 75.1293 115.589 75.2418 115.101 75.191L95.0495 73.1041Z" fill="url(#paint44_radial_3_88)"/>
<path d="M95.0518 51.5674C94.5637 51.5166 94.274 51.3218 94.4048 51.1322C94.5356 50.9426 95.0373 50.8301 95.5254 50.8809L115.577 52.9678C116.065 53.0186 116.354 53.2134 116.224 53.403C116.093 53.5926 115.591 53.7051 115.103 53.6543L95.0518 51.5674Z" fill="#CECFDB"/>
<path d="M98.6959 81.7879C98.2583 81.886 97.6987 81.8278 97.446 81.6578C97.3665 81.6043 97.3269 81.5461 97.3235 81.4884C97.3163 81.3628 97.3235 60.4384 97.3235 59.9384L115.758 56.1384C116.196 56.0402 116.878 55.7351 117.131 55.905C117.131 56.8384 117.132 77.3898 117.131 77.451C117.128 77.5728 116.965 77.691 116.673 77.7563L98.6959 81.7879Z" fill="url(#paint45_radial_3_88)"/>
<path d="M98.6947 60.2461C98.2571 60.3443 97.6975 60.286 97.4449 60.116C97.1922 59.9461 97.3421 59.7287 97.7798 59.6306L115.757 55.599C116.195 55.5009 116.754 55.5591 117.007 55.7291C117.26 55.8991 117.11 56.1164 116.672 56.2146L98.6947 60.2461Z" fill="#CECFDB"/>
<path d="M117.076 86.9231C116.946 87.1127 116.444 87.2253 115.956 87.1744C115.546 87.1318 115.276 86.9876 115.277 86.8303C115.278 86.8002 115.277 66.9215 115.277 65.2882L120.66 58.6215C120.791 58.4319 121.992 57.454 122.48 57.5048C122.48 57.5881 122.48 78.8548 122.48 79.0486C122.479 79.0771 122.469 79.106 122.449 79.1348L117.076 86.9231Z" fill="url(#paint46_radial_3_88)"/>
<path d="M117.077 65.3813C116.946 65.5709 116.444 65.6834 115.956 65.6326C115.468 65.5818 115.178 65.3869 115.309 65.1974L120.682 57.409C120.813 57.2194 121.314 57.1069 121.802 57.1577C122.29 57.2085 122.58 57.4034 122.449 57.593L117.077 65.3813Z" fill="#CECFDB"/>
<path d="M145.692 49.3217C146.129 49.2236 150.11 48.2851 150.363 48.4551C150.363 49.0884 150.365 69.9391 150.362 70.001C150.358 70.1221 150.194 70.2393 149.905 70.3043L131.928 74.3358C131.49 74.4339 130.93 74.3757 130.678 74.2057C130.595 74.15 130.555 74.0892 130.555 74.0291C130.554 73.906 130.555 53.0886 130.555 52.4886L145.692 49.3217Z" fill="url(#paint47_radial_3_88)"/>
<path d="M148.993 48.1464C149.43 48.0483 149.99 48.1065 150.243 48.2765C150.495 48.4465 150.345 48.6639 149.908 48.762L131.93 52.7936C131.493 52.8917 130.933 52.8335 130.68 52.6635C130.428 52.4935 130.578 52.2761 131.015 52.178L148.993 48.1464Z" fill="#9EC0F4"/>
<path d="M153.319 57.1718C153.319 58.8718 153.322 78.5554 153.319 78.7134C153.319 78.743 153.309 78.773 153.288 78.8029C153.157 78.9925 152.655 79.105 152.167 79.0542L132.116 76.9673C131.71 76.925 131.441 76.7829 131.438 76.6271C131.437 76.5958 131.438 57.1551 131.438 55.0884C131.861 54.9718 135.311 55.3384 137.311 55.7218L153.319 57.1718Z" fill="url(#paint48_radial_3_88)"/>
<path d="M152.64 56.825C153.128 56.8758 153.417 57.0707 153.287 57.2603C153.156 57.4499 152.654 57.5624 152.166 57.5116L132.115 55.4247C131.627 55.3739 131.337 55.179 131.468 54.9894C131.599 54.7998 132.1 54.6873 132.588 54.7381L152.64 56.825Z" fill="#64A2FF"/>
<path d="M139.542 64.1381C139.542 64.6881 139.544 85.6263 139.542 85.6882C139.537 85.8092 139.374 85.9264 139.084 85.9913C138.647 86.0894 138.087 86.0312 137.834 85.8612L127.455 78.8784C127.372 78.8227 127.333 78.7619 127.332 78.7019C127.332 78.5787 127.332 57.9549 127.332 57.1549C127.77 57.0567 131.597 58.2868 132.26 60.1882L139.542 64.1381Z" fill="url(#paint49_radial_3_88)"/>
<path d="M139.418 63.9635C139.67 64.1334 139.52 64.3508 139.083 64.4489C138.645 64.5471 138.086 64.4888 137.833 64.3189L127.454 57.336C127.201 57.166 127.351 56.9487 127.789 56.8505C128.226 56.7524 128.786 56.8106 129.038 56.9806L139.418 63.9635Z" fill="url(#paint50_linear_3_88)"/>
<rect x="94.168" y="59.9863" width="59.3667" height="127.639" fill="url(#paint51_radial_3_88)"/>
<path d="M74.7343 186.006L90.1928 185.802C90.6415 185.796 91.0053 185.632 91.0289 185.424C91.0297 185.416 91.0301 185.409 91.0301 185.402C91.0299 185.176 91.0289 77.4727 91.0289 64.8857L73.9943 65.1528C73.9943 67.4732 73.9896 185.497 73.9943 185.676C73.9992 185.863 74.3325 186.011 74.7343 186.006Z" fill="#000002"/>
<path d="M91.0352 65.3613V183.719" stroke="url(#paint52_linear_3_88)" stroke-width="0.8" stroke-linecap="round"/>
<path d="M74 65.8281V184.185" stroke="url(#paint53_linear_3_88)" stroke-width="0.8" stroke-linecap="round"/>
<path d="M74.7359 65.4866L90.1943 65.2829C90.643 65.277 91.0068 65.1123 91.0304 64.9045C91.0572 64.6685 90.6387 64.4733 90.1295 64.4844L74.6818 64.8198C74.2944 64.8282 73.9911 64.9774 73.9958 65.1572C74.0007 65.3436 74.334 65.4919 74.7359 65.4866Z" fill="#8C8EA5"/>
<path fill-rule="evenodd" clip-rule="evenodd" d="M194.886 204.284C197.906 201.682 197.193 198.653 193.009 196.308L160.179 177.901C158.721 181.509 153.733 184.902 145.555 187.228C145.227 187.321 144.896 187.412 144.562 187.5L173.149 201.955C177.625 204.218 184.825 205.402 192.115 205.072C193.33 205.017 194.382 204.718 194.886 204.284Z" fill="#CECFDB"/>
<path opacity="0.5" fill-rule="evenodd" clip-rule="evenodd" d="M144.562 66.9808L144.652 66.9569V187.475C144.622 187.483 144.592 187.491 144.562 187.499L144.563 66.9892L144.579 66.9892L144.562 66.9808ZM144.652 187.545V187.545L144.562 187.5V187.499L144.652 187.545ZM160.186 195.399V195.4L173.149 201.955C177.625 204.218 184.825 205.401 192.115 205.072C193.33 205.017 194.382 204.717 194.886 204.283C195.692 203.589 196.232 202.864 196.511 202.13C196.232 202.864 195.692 203.589 194.886 204.283C194.382 204.717 193.33 205.016 192.115 205.071C184.825 205.401 177.625 204.218 173.149 201.955L160.186 195.399ZM196.736 200.938C196.735 199.594 196.735 126.045 196.735 94.0925V93.1764L196.735 80.4784C196.765 78.829 195.504 77.1873 193.009 75.7882L160.186 57.3853V177.904L193.009 196.307C195.475 197.689 196.735 199.309 196.736 200.938Z" fill="#CECFDB"/>
<path fill-rule="evenodd" clip-rule="evenodd" d="M196.735 80.4608C196.721 81.5828 196.111 82.7087 194.885 83.7646C194.382 84.1985 193.33 84.4977 192.114 84.5527C184.824 84.8822 177.624 83.699 173.149 81.436L144.579 66.9893C144.573 66.9893 144.568 66.9893 144.563 66.9893L144.562 187.5L173.149 201.955C177.625 204.218 184.825 205.401 192.115 205.072C193.33 205.017 194.382 204.717 194.886 204.284C196.126 203.215 196.737 202.074 196.736 200.938C196.735 199.581 196.735 124.65 196.735 93.1992C196.735 86.8845 196.735 82.3226 196.735 80.4608L196.735 80.4608Z" fill="#000002"/>
<path d="M196.73 80.9531V199.31" stroke="url(#paint54_linear_3_88)" stroke-width="0.8" stroke-linecap="round"/>
<path d="M144.566 67.165V185.522" stroke="url(#paint55_linear_3_88)" stroke-width="0.8" stroke-linecap="round"/>
<path d="M192.813 76.1372C194.866 77.2881 195.974 78.557 196.26 79.7719C196.537 80.9525 196.067 82.2192 194.625 83.4617C194.435 83.6252 194.108 83.788 193.658 83.9161C193.214 84.0423 192.678 84.1269 192.097 84.1532C184.846 84.4809 177.722 83.3001 173.33 81.0791L145.668 67.0917C149.781 65.9217 153.111 64.4785 155.604 62.8615C157.914 61.3638 159.53 59.7011 160.368 57.946L192.813 76.1372Z" fill="#000002" stroke="#8C8EA5" stroke-width="0.8" stroke-linejoin="round"/>
<path d="M132.931 198.223L138.131 191.344C138.159 191.307 138.173 191.269 138.173 191.232C138.174 191.07 138.173 72.4648 138.173 70.6953C136.369 71.7136 135.952 71.8138 135.585 72.8488L131.25 77.6064C131.25 81.663 131.25 198.101 131.25 198.131C131.252 198.273 131.488 198.403 131.853 198.447C132.31 198.503 132.796 198.402 132.931 198.223Z" fill="#000002"/>
<path d="M138.164 71.0039V189.361" stroke="url(#paint56_linear_3_88)" stroke-width="0.8" stroke-linecap="round"/>
<path d="M131.43 78.082V196.439" stroke="url(#paint57_linear_3_88)" stroke-width="0.8" stroke-linecap="round"/>
<path d="M132.931 77.7039L138.131 70.8245C138.282 70.6249 138.013 70.4135 137.514 70.3388C136.947 70.254 136.316 70.3782 136.155 70.6061L131.281 77.5215C131.158 77.6949 131.411 77.8748 131.853 77.9283C132.31 77.9838 132.796 77.8827 132.931 77.7039Z" fill="#8C8EA5"/>
<path opacity="0.5" fill-rule="evenodd" clip-rule="evenodd" d="M101.21 66.4298L101.222 66.4219V66.4335V83.5968V186.978L101.208 186.974L74.5072 201.965C72.0849 203.325 70.8287 204.914 70.7889 206.516V86.1282V86.0201V85.971C70.8287 84.3691 72.0849 82.7803 74.5072 81.4204L101.208 66.4292L101.21 66.4298ZM70.7889 206.673L70.7892 206.681L70.7889 206.681V206.673Z" fill="#CECFDB"/>
<path d="M94.1967 86.7067C89.8083 88.9288 82.6864 90.1114 75.4352 89.7855C74.8533 89.7594 74.3174 89.6749 73.8734 89.5488C73.4226 89.4208 73.0957 89.2581 72.9055 89.0945C71.4615 87.8521 70.9886 86.5854 71.2644 85.4047C71.5482 84.19 72.6534 82.921 74.7041 81.7696L101.257 66.8618C101.524 66.9422 101.795 67.0213 102.069 67.0992C109.75 69.2805 118.855 70.1396 127.603 69.7915L94.1967 86.7067Z" fill="#000002" stroke="#8C8EA5" stroke-width="0.8" stroke-linejoin="round"/>
<path fill-rule="evenodd" clip-rule="evenodd" d="M94.3764 87.0629C89.9048 89.327 82.7069 90.512 75.4162 90.1844C74.2005 90.1297 73.1478 89.8308 72.6436 89.397C71.4141 88.3392 70.8015 87.2109 70.7882 86.0865L70.788 86.0866C70.788 87.5236 70.7878 92.5692 70.7875 99.836C70.7861 131.482 70.7828 205.253 70.788 206.581C70.7924 207.713 71.405 208.85 72.6436 209.916C73.1478 210.35 74.2004 210.649 75.4161 210.703C82.7068 211.031 89.9047 209.846 94.3763 207.582L129.462 189.816L129.462 69.3096C129.449 69.3123 129.435 69.315 129.422 69.3178L94.3764 87.0629Z" fill="#000002"/>
<path d="M129.469 69.6689V188.026" stroke="url(#paint58_linear_3_88)" stroke-width="0.8" stroke-linecap="round"/>
<path d="M70.8008 86.3955V204.753" stroke="url(#paint59_linear_3_88)" stroke-width="0.8" stroke-linecap="round"/>
<path d="M132.931 197.919L138.131 191.051C138.159 191.014 138.173 190.976 138.173 190.939C138.174 190.778 138.173 72.3633 138.173 70.5967C136.369 71.6133 135.952 71.7133 135.585 72.7467L131.25 77.4967C131.25 81.5467 131.25 197.797 131.25 197.827C131.252 197.968 131.488 198.099 131.853 198.143C132.31 198.199 132.796 198.098 132.931 197.919Z" fill="url(#paint60_radial_3_88)"/>
<path d="M138.164 70.9053V189.072" stroke="url(#paint61_linear_3_88)" stroke-width="0.8" stroke-linecap="round"/>
<path d="M132.931 77.5941L138.131 70.7259C138.282 70.5265 138.013 70.3155 137.514 70.241C136.947 70.1563 136.316 70.2803 136.155 70.5078L131.281 77.412C131.158 77.5852 131.411 77.7648 131.853 77.8182C132.31 77.8736 132.796 77.7727 132.931 77.5941Z" fill="#64A2FF"/>
<path d="M138.173 190.94C138.172 190.977 138.159 191.014 138.131 191.051L132.931 197.919C132.796 198.098 132.31 198.199 131.853 198.143C131.488 198.099 131.252 197.969 131.25 197.827" stroke="url(#paint62_linear_3_88)" stroke-width="0.8" stroke-linecap="round"/>
<path d="M115.258 177.368L130.941 139.503" stroke="#64A2FF" stroke-width="2" stroke-linecap="round" stroke-linejoin="round"/>
<path d="M136.477 123.85C137.036 123.349 137.91 123.807 137.996 124.646L139.665 140.919C139.737 141.621 139.195 142.151 138.585 141.976L123.563 137.641C122.8 137.421 122.537 136.312 123.123 135.787L136.477 123.85Z" fill="#64A2FF"/>
<path d="M147.347 112.155C147.219 111.474 146.036 111.448 145.394 112.111L139.749 117.937C139.269 118.432 139.401 119.029 140.021 119.167L147.064 120.743C147.875 120.924 148.872 120.221 148.746 119.556L147.347 112.155Z" fill="#64A2FF"/>
<path d="M144.199 119.063C141.936 122.133 139.023 130.183 145.472 137.832" stroke="#64A2FF" stroke-width="2" stroke-linecap="round"/>
<defs>
<radialGradient id="paint0_radial_3_88" cx="0" cy="0" r="1" gradientUnits="userSpaceOnUse" gradientTransform="translate(120 83.6719) rotate(90) scale(80 120)">
<stop stop-color="#347DFE"/>
<stop offset="0.229167" stop-color="#347DFE"/>
<stop offset="1" stop-color="#347DFE" stop-opacity="0"/>
</radialGradient>
<linearGradient id="paint1_linear_3_88" x1="90.7344" y1="46.7565" x2="90.7344" y2="164.587" gradientUnits="userSpaceOnUse">
<stop stop-color="#8C8EA5"/>
<stop offset="1" stop-color="#8C8EA5" stop-opacity="0"/>
</linearGradient>
<linearGradient id="paint2_linear_3_88" x1="82.1992" y1="39.946" x2="82.1992" y2="157.777" gradientUnits="userSpaceOnUse">
<stop stop-color="#8C8EA5"/>
<stop offset="1" stop-color="#8C8EA5" stop-opacity="0"/>
</linearGradient>
<linearGradient id="paint3_linear_3_88" x1="23.6328" y1="48.6598" x2="23.6328" y2="166.491" gradientUnits="userSpaceOnUse">
<stop stop-color="#8C8EA5"/>
<stop offset="1" stop-color="#8C8EA5" stop-opacity="0"/>
</linearGradient>
<linearGradient id="paint4_linear_3_88" x1="90.7344" y1="61.8483" x2="90.7344" y2="179.679" gradientUnits="userSpaceOnUse">
<stop stop-color="#8C8EA5"/>
<stop offset="1" stop-color="#8C8EA5" stop-opacity="0"/>
</linearGradient>
<linearGradient id="paint5_linear_3_88" x1="89.168" y1="50.6486" x2="89.168" y2="60.5204" gradientUnits="userSpaceOnUse">
<stop stop-color="#8C8EA5"/>
<stop offset="1" stop-color="#8C8EA5" stop-opacity="0"/>
</linearGradient>
<linearGradient id="paint6_linear_3_88" x1="98.3984" y1="45.4878" x2="98.3984" y2="163.319" gradientUnits="userSpaceOnUse">
<stop stop-color="#8C8EA5"/>
<stop offset="1" stop-color="#8C8EA5" stop-opacity="0"/>
</linearGradient>
<linearGradient id="paint7_linear_3_88" x1="125.566" y1="41.4147" x2="125.566" y2="159.246" gradientUnits="userSpaceOnUse">
<stop stop-color="#8C8EA5"/>
<stop offset="1" stop-color="#8C8EA5" stop-opacity="0"/>
</linearGradient>
<linearGradient id="paint8_linear_3_88" x1="151" y1="35.6383" x2="151" y2="153.469" gradientUnits="userSpaceOnUse">
<stop stop-color="#8C8EA5"/>
<stop offset="1" stop-color="#8C8EA5" stop-opacity="0"/>
</linearGradient>
<linearGradient id="paint9_linear_3_88" x1="135.164" y1="40.4469" x2="135.164" y2="158.278" gradientUnits="userSpaceOnUse">
<stop stop-color="#8C8EA5"/>
<stop offset="1" stop-color="#8C8EA5" stop-opacity="0"/>
</linearGradient>
<linearGradient id="paint10_linear_3_88" x1="217.398" y1="39.612" x2="217.398" y2="157.443" gradientUnits="userSpaceOnUse">
<stop stop-color="#8C8EA5"/>
<stop offset="1" stop-color="#8C8EA5" stop-opacity="0"/>
</linearGradient>
<linearGradient id="paint11_linear_3_88" x1="159.867" y1="51.4313" x2="159.867" y2="169.262" gradientUnits="userSpaceOnUse">
<stop stop-color="#8C8EA5"/>
<stop offset="1" stop-color="#8C8EA5" stop-opacity="0"/>
</linearGradient>
<linearGradient id="paint12_linear_3_88" x1="141.035" y1="43.2174" x2="141.035" y2="161.048" gradientUnits="userSpaceOnUse">
<stop stop-color="#8C8EA5"/>
<stop offset="1" stop-color="#8C8EA5" stop-opacity="0"/>
</linearGradient>
<linearGradient id="paint13_linear_3_88" x1="182.801" y1="59.5103" x2="182.801" y2="177.341" gradientUnits="userSpaceOnUse">
<stop stop-color="#8C8EA5"/>
<stop offset="1" stop-color="#8C8EA5" stop-opacity="0"/>
</linearGradient>
<linearGradient id="paint14_linear_3_88" x1="165.469" y1="55.7047" x2="165.469" y2="173.535" gradientUnits="userSpaceOnUse">
<stop stop-color="#8C8EA5"/>
<stop offset="1" stop-color="#8C8EA5" stop-opacity="0"/>
</linearGradient>
<radialGradient id="paint15_radial_3_88" cx="0" cy="0" r="1" gradientUnits="userSpaceOnUse" gradientTransform="translate(125.204 151.303) rotate(90) scale(24.2167 5.87719)">
<stop stop-color="#8C8EA5"/>
<stop offset="1" stop-color="#000002"/>
</radialGradient>
<radialGradient id="paint16_radial_3_88" cx="0" cy="0" r="1" gradientUnits="userSpaceOnUse" gradientTransform="translate(108.141 144.553) rotate(90) scale(28.9 12.2181)">
<stop stop-color="#8C8EA5"/>
<stop offset="1" stop-color="#000002"/>
</radialGradient>
<radialGradient id="paint17_radial_3_88" cx="0" cy="0" r="1" gradientUnits="userSpaceOnUse" gradientTransform="translate(95.9872 151.486) rotate(90) scale(34.1667 31.13)">
<stop stop-color="#8C8EA5"/>
<stop offset="1" stop-color="#000002"/>
</radialGradient>
<radialGradient id="paint18_radial_3_88" cx="0" cy="0" r="1" gradientUnits="userSpaceOnUse" gradientTransform="translate(97.3042 160.32) rotate(90) scale(26.8833 20.4991)">
<stop stop-color="#8C8EA5"/>
<stop offset="1" stop-color="#000002"/>
</radialGradient>
<radialGradient id="paint19_radial_3_88" cx="0" cy="0" r="1" gradientUnits="userSpaceOnUse" gradientTransform="translate(115.272 165.62) rotate(90) scale(26.0333 6.31717)">
<stop stop-color="#8C8EA5"/>
<stop offset="1" stop-color="#000002"/>
</radialGradient>
<radialGradient id="paint20_radial_3_88" cx="0" cy="0" r="1" gradientUnits="userSpaceOnUse" gradientTransform="translate(130.57 152.804) rotate(90) scale(24.25 18.5118)">
<stop stop-color="#8C8EA5"/>
<stop offset="1" stop-color="#3F5F97"/>
</radialGradient>
<radialGradient id="paint21_radial_3_88" cx="0" cy="0" r="1" gradientUnits="userSpaceOnUse" gradientTransform="translate(135.289 156.087) rotate(90) scale(24.45 22.2935)">
<stop stop-color="#347DFE"/>
<stop offset="1" stop-color="#2353AA"/>
</radialGradient>
<radialGradient id="paint22_radial_3_88" cx="0" cy="0" r="1" gradientUnits="userSpaceOnUse" gradientTransform="translate(127.339 157.454) rotate(90) scale(28.9 12.2153)">
<stop stop-color="#8C8EA5"/>
<stop offset="1" stop-color="#347DFE"/>
</radialGradient>
<linearGradient id="paint23_linear_3_88" x1="139.083" y1="164.764" x2="136.92" y2="155.118" gradientUnits="userSpaceOnUse">
<stop stop-color="#64A2FF"/>
<stop offset="1" stop-color="#DEDFE8"/>
</linearGradient>
<radialGradient id="paint24_radial_3_88" cx="0" cy="0" r="1" gradientUnits="userSpaceOnUse" gradientTransform="translate(125.204 117.865) rotate(90) scale(24.2167 5.87719)">
<stop stop-color="#8C8EA5"/>
<stop offset="1" stop-color="#000002"/>
</radialGradient>
<radialGradient id="paint25_radial_3_88" cx="0" cy="0" r="1" gradientUnits="userSpaceOnUse" gradientTransform="translate(108.141 111.115) rotate(90) scale(28.9 12.2181)">
<stop stop-color="#8C8EA5"/>
<stop offset="1" stop-color="#000002"/>
</radialGradient>
<radialGradient id="paint26_radial_3_88" cx="0" cy="0" r="1" gradientUnits="userSpaceOnUse" gradientTransform="translate(95.9872 118.048) rotate(90) scale(34.1667 31.13)">
<stop stop-color="#8C8EA5"/>
<stop offset="1" stop-color="#000002"/>
</radialGradient>
<radialGradient id="paint27_radial_3_88" cx="0" cy="0" r="1" gradientUnits="userSpaceOnUse" gradientTransform="translate(97.3042 126.882) rotate(90) scale(26.8833 20.4991)">
<stop stop-color="#8C8EA5"/>
<stop offset="1" stop-color="#000002"/>
</radialGradient>
<radialGradient id="paint28_radial_3_88" cx="0" cy="0" r="1" gradientUnits="userSpaceOnUse" gradientTransform="translate(115.272 132.182) rotate(90) scale(26.0333 6.31717)">
<stop stop-color="#8C8EA5"/>
<stop offset="1" stop-color="#000002"/>
</radialGradient>
<radialGradient id="paint29_radial_3_88" cx="0" cy="0" r="1" gradientUnits="userSpaceOnUse" gradientTransform="translate(130.57 119.366) rotate(90) scale(24.25 18.5118)">
<stop stop-color="#8C8EA5"/>
<stop offset="1" stop-color="#3F5F97"/>
</radialGradient>
<radialGradient id="paint30_radial_3_88" cx="0" cy="0" r="1" gradientUnits="userSpaceOnUse" gradientTransform="translate(135.289 122.649) rotate(90) scale(24.45 22.2935)">
<stop stop-color="#347DFE"/>
<stop offset="1" stop-color="#2353AA"/>
</radialGradient>
<radialGradient id="paint31_radial_3_88" cx="0" cy="0" r="1" gradientUnits="userSpaceOnUse" gradientTransform="translate(127.339 124.015) rotate(90) scale(28.9 12.2153)">
<stop stop-color="#8C8EA5"/>
<stop offset="1" stop-color="#347DFE"/>
</radialGradient>
<linearGradient id="paint32_linear_3_88" x1="139.083" y1="131.326" x2="136.92" y2="121.68" gradientUnits="userSpaceOnUse">
<stop stop-color="#64A2FF"/>
<stop offset="1" stop-color="#DEDFE8"/>
</linearGradient>
<radialGradient id="paint33_radial_3_88" cx="0" cy="0" r="1" gradientUnits="userSpaceOnUse" gradientTransform="translate(125.204 84.4263) rotate(90) scale(24.2167 5.87719)">
<stop stop-color="#8C8EA5"/>
<stop offset="1" stop-color="#000002"/>
</radialGradient>
<radialGradient id="paint34_radial_3_88" cx="0" cy="0" r="1" gradientUnits="userSpaceOnUse" gradientTransform="translate(108.141 77.6764) rotate(90) scale(28.9 12.2181)">
<stop stop-color="#8C8EA5"/>
<stop offset="1" stop-color="#000002"/>
</radialGradient>
<radialGradient id="paint35_radial_3_88" cx="0" cy="0" r="1" gradientUnits="userSpaceOnUse" gradientTransform="translate(95.9872 84.6094) rotate(90) scale(34.1667 31.13)">
<stop stop-color="#8C8EA5"/>
<stop offset="1" stop-color="#000002"/>
</radialGradient>
<radialGradient id="paint36_radial_3_88" cx="0" cy="0" r="1" gradientUnits="userSpaceOnUse" gradientTransform="translate(97.3042 93.4435) rotate(90) scale(26.8833 20.4991)">
<stop stop-color="#8C8EA5"/>
<stop offset="1" stop-color="#000002"/>
</radialGradient>
<radialGradient id="paint37_radial_3_88" cx="0" cy="0" r="1" gradientUnits="userSpaceOnUse" gradientTransform="translate(115.272 98.7433) rotate(90) scale(26.0333 6.31717)">
<stop stop-color="#8C8EA5"/>
<stop offset="1" stop-color="#000002"/>
</radialGradient>
<radialGradient id="paint38_radial_3_88" cx="0" cy="0" r="1" gradientUnits="userSpaceOnUse" gradientTransform="translate(130.57 85.9271) rotate(90) scale(24.25 18.5118)">
<stop stop-color="#8C8EA5"/>
<stop offset="1" stop-color="#3F5F97"/>
</radialGradient>
<radialGradient id="paint39_radial_3_88" cx="0" cy="0" r="1" gradientUnits="userSpaceOnUse" gradientTransform="translate(135.289 89.2103) rotate(90) scale(24.45 22.2935)">
<stop stop-color="#347DFE"/>
<stop offset="1" stop-color="#2353AA"/>
</radialGradient>
<radialGradient id="paint40_radial_3_88" cx="0" cy="0" r="1" gradientUnits="userSpaceOnUse" gradientTransform="translate(127.339 90.5766) rotate(90) scale(28.9 12.2153)">
<stop stop-color="#8C8EA5"/>
<stop offset="1" stop-color="#347DFE"/>
</radialGradient>
<linearGradient id="paint41_linear_3_88" x1="139.083" y1="97.8874" x2="136.92" y2="88.2413" gradientUnits="userSpaceOnUse">
<stop stop-color="#64A2FF"/>
<stop offset="1" stop-color="#DEDFE8"/>
</linearGradient>
<radialGradient id="paint42_radial_3_88" cx="0" cy="0" r="1" gradientUnits="userSpaceOnUse" gradientTransform="translate(125.204 50.9878) rotate(90) scale(24.2167 5.87719)">
<stop stop-color="#8C8EA5"/>
<stop offset="1" stop-color="#000002"/>
</radialGradient>
<radialGradient id="paint43_radial_3_88" cx="0" cy="0" r="1" gradientUnits="userSpaceOnUse" gradientTransform="translate(108.141 44.2379) rotate(90) scale(28.9 12.2181)">
<stop stop-color="#8C8EA5"/>
<stop offset="1" stop-color="#000002"/>
</radialGradient>
<radialGradient id="paint44_radial_3_88" cx="0" cy="0" r="1" gradientUnits="userSpaceOnUse" gradientTransform="translate(95.9872 51.1709) rotate(90) scale(34.1667 31.13)">
<stop stop-color="#8C8EA5"/>
<stop offset="1" stop-color="#000002"/>
</radialGradient>
<radialGradient id="paint45_radial_3_88" cx="0" cy="0" r="1" gradientUnits="userSpaceOnUse" gradientTransform="translate(97.3042 60.005) rotate(90) scale(26.8833 20.4991)">
<stop stop-color="#8C8EA5"/>
<stop offset="1" stop-color="#000002"/>
</radialGradient>
<radialGradient id="paint46_radial_3_88" cx="0" cy="0" r="1" gradientUnits="userSpaceOnUse" gradientTransform="translate(115.272 65.3049) rotate(90) scale(26.0333 6.31717)">
<stop stop-color="#8C8EA5"/>
<stop offset="1" stop-color="#000002"/>
</radialGradient>
<radialGradient id="paint47_radial_3_88" cx="0" cy="0" r="1" gradientUnits="userSpaceOnUse" gradientTransform="translate(130.57 52.4886) rotate(90) scale(24.25 18.5118)">
<stop stop-color="#8C8EA5"/>
<stop offset="1" stop-color="#3F5F97"/>
</radialGradient>
<radialGradient id="paint48_radial_3_88" cx="0" cy="0" r="1" gradientUnits="userSpaceOnUse" gradientTransform="translate(135.289 55.7718) rotate(90) scale(24.45 22.2935)">
<stop stop-color="#347DFE"/>
<stop offset="1" stop-color="#2353AA"/>
</radialGradient>
<radialGradient id="paint49_radial_3_88" cx="0" cy="0" r="1" gradientUnits="userSpaceOnUse" gradientTransform="translate(127.339 57.1381) rotate(90) scale(28.9 12.2153)">
<stop stop-color="#8C8EA5"/>
<stop offset="1" stop-color="#347DFE"/>
</radialGradient>
<linearGradient id="paint50_linear_3_88" x1="139.083" y1="64.4489" x2="136.92" y2="54.8028" gradientUnits="userSpaceOnUse">
<stop stop-color="#64A2FF"/>
<stop offset="1" stop-color="#DEDFE8"/>
</linearGradient>
<radialGradient id="paint51_radial_3_88" cx="0" cy="0" r="1" gradientUnits="userSpaceOnUse" gradientTransform="translate(123.851 59.9863) rotate(90) scale(122.264 3527.76)">
<stop stop-color="#000002" stop-opacity="0"/>
<stop offset="1" stop-color="#000002"/>
</radialGradient>
<linearGradient id="paint52_linear_3_88" x1="91.5352" y1="65.8874" x2="91.5352" y2="183.718" gradientUnits="userSpaceOnUse">
<stop stop-color="#8C8EA5"/>
<stop offset="1" stop-color="#8C8EA5" stop-opacity="0"/>
</linearGradient>
<linearGradient id="paint53_linear_3_88" x1="74.5" y1="66.3542" x2="74.5" y2="184.185" gradientUnits="userSpaceOnUse">
<stop stop-color="#8C8EA5"/>
<stop offset="1" stop-color="#8C8EA5" stop-opacity="0"/>
</linearGradient>
<linearGradient id="paint54_linear_3_88" x1="197.23" y1="81.4792" x2="197.23" y2="199.31" gradientUnits="userSpaceOnUse">
<stop stop-color="#8C8EA5"/>
<stop offset="1" stop-color="#8C8EA5" stop-opacity="0"/>
</linearGradient>
<linearGradient id="paint55_linear_3_88" x1="145.066" y1="67.6911" x2="145.066" y2="185.522" gradientUnits="userSpaceOnUse">
<stop stop-color="#8C8EA5"/>
<stop offset="1" stop-color="#8C8EA5" stop-opacity="0"/>
</linearGradient>
<linearGradient id="paint56_linear_3_88" x1="138.664" y1="71.5299" x2="138.664" y2="189.361" gradientUnits="userSpaceOnUse">
<stop stop-color="#8C8EA5"/>
<stop offset="1" stop-color="#8C8EA5" stop-opacity="0"/>
</linearGradient>
<linearGradient id="paint57_linear_3_88" x1="131.93" y1="78.6081" x2="131.93" y2="196.439" gradientUnits="userSpaceOnUse">
<stop stop-color="#8C8EA5"/>
<stop offset="1" stop-color="#8C8EA5" stop-opacity="0"/>
</linearGradient>
<linearGradient id="paint58_linear_3_88" x1="129.969" y1="70.195" x2="129.969" y2="188.026" gradientUnits="userSpaceOnUse">
<stop stop-color="#8C8EA5"/>
<stop offset="1" stop-color="#8C8EA5" stop-opacity="0"/>
</linearGradient>
<linearGradient id="paint59_linear_3_88" x1="71.3008" y1="86.9215" x2="71.3008" y2="204.752" gradientUnits="userSpaceOnUse">
<stop stop-color="#8C8EA5"/>
<stop offset="1" stop-color="#8C8EA5" stop-opacity="0"/>
</linearGradient>
<radialGradient id="paint60_radial_3_88" cx="0" cy="0" r="1" gradientUnits="userSpaceOnUse" gradientTransform="translate(131.264 77.3049) rotate(90) scale(105.683 5.73605)">
<stop stop-color="#347DFE"/>
<stop offset="1" stop-color="#2353AA"/>
</radialGradient>
<linearGradient id="paint61_linear_3_88" x1="138.664" y1="71.4305" x2="138.664" y2="189.072" gradientUnits="userSpaceOnUse">
<stop stop-color="#64A2FF"/>
<stop offset="1" stop-color="#64A2FF" stop-opacity="0"/>
</linearGradient>
<linearGradient id="paint62_linear_3_88" x1="131.263" y1="198.159" x2="138.163" y2="198.159" gradientUnits="userSpaceOnUse">
<stop stop-color="#64A2FF"/>
<stop offset="1" stop-color="#64A2FF" stop-opacity="0"/>
</linearGradient>
</defs>
</svg>
