<?xml version="1.0" encoding="utf-8"?><svg width="370" height="410" fill="none" xmlns="http://www.w3.org/2000/svg" viewBox="0 0 370 410"><path d="M230.842 391.533l-14.274 8.241-.5-.866-3.568 2.06a54.99 54.99 0 01-4.257 2.217l.423.906a55.95 55.95 0 01-18.785 5.033l-.087-.996c-3.19.278-6.398.278-9.588 0l-.087.996a55.95 55.95 0 01-18.785-5.033l.423-.906a54.99 54.99 0 01-4.257-2.217l-3.568-2.06-.5.866-14.274-8.241.5-.866-7.137-4.12-.5.866-14.274-8.241.5-.866-7.137-4.121-.5.866-14.273-8.241.5-.866-7.137-4.12-.5.866-14.274-8.241.5-.866-7.137-4.121-.5.866-14.273-8.241.5-.866-7.137-4.12-.5.866-14.274-8.241.5-.866-3.568-2.06a55.396 55.396 0 01-4.048-2.578l-.574.819a55.944 55.944 0 01-13.751-13.752l.819-.574a55.056 55.056 0 01-4.794-8.303l-.906.423A55.945 55.945 0 01.75 284.05l.996-.087a55.12 55.12 0 01-.208-4.795v-4.12h-1v-16.482h1v-8.241h-1v-16.482h1v-8.241h-1V209.12h1v-8.24h-1v-16.482h1v-8.241h-1v-16.482h1v-8.241h-1v-16.482h1v-4.12c0-1.61.07-3.209.208-4.795l-.996-.087a55.945 55.945 0 015.034-18.785l.906.423a55.07 55.07 0 014.794-8.303l-.82-.574A55.946 55.946 0 0124.416 84.96l.574.82a55.106 55.106 0 014.048-2.579l3.568-2.06-.5-.866 14.274-8.241.5.866 7.137-4.12-.5-.866 14.273-8.241.5.866 7.137-4.12-.5-.867 14.274-8.24.5.865 7.137-4.12-.5-.866 14.273-8.241.5.866 7.137-4.12-.5-.867 14.274-8.24.5.865 7.137-4.12-.5-.866 14.274-8.24.5.865 3.568-2.06a55.02 55.02 0 014.257-2.217l-.423-.906A55.944 55.944 0 01180.119.876l.087.996a55.07 55.07 0 019.588 0l.087-.996a55.944 55.944 0 0118.785 5.033l-.423.906a55.02 55.02 0 014.257 2.217l3.568 2.06.5-.866 14.274 8.241-.5.866 7.137 4.12.5-.866 14.274 8.241-.5.866 7.137 4.12.5-.865 14.273 8.24-.5.867 7.137 4.12.5-.866 14.274 8.241-.5.866 7.137 4.12.5-.865 14.273 8.24-.5.867 7.137 4.12.5-.866 14.274 8.241-.5.866 3.568 2.06a55.086 55.086 0 014.048 2.578l.574-.819a55.947 55.947 0 0113.751 13.752l-.819.574a55.134 55.134 0 014.794 8.303l.906-.423a55.958 55.958 0 015.034 18.785l-.996.087c.138 1.586.208 3.185.208 4.795v4.12h1v16.482h-1v8.241h1v16.482h-1v8.241h1v16.482h-1v8.24h1v16.482h-1v8.241h1v16.482h-1v8.241h1v16.482h-1v4.12c0 1.61-.07 3.209-.208 4.795l.996.087a55.958 55.958 0 01-5.034 18.785l-.906-.423a55.122 55.122 0 01-4.794 8.303l.819.574a55.948 55.948 0 01-13.751 13.752l-.574-.819a55.42 55.42 0 01-4.048 2.578l-3.568 2.06.5.866-14.274 8.241-.5-.866-7.137 4.12.5.866-14.273 8.241-.5-.866-7.137 4.121.5.866-14.274 8.241-.5-.866-7.137 4.12.5.866-14.273 8.241-.5-.866-7.137 4.121.5.866-14.274 8.241-.5-.866-7.137 4.12.5.866z" stroke="#CECFDB" stroke-width="2" stroke-dasharray="8 16"/></svg>