<?xml version="1.0" encoding="utf-8"?><svg width="48" height="48" fill="none" xmlns="http://www.w3.org/2000/svg" viewBox="0 0 48 48"><path fill-rule="evenodd" clip-rule="evenodd" d="M27.913 13.308c-.674-3.325-4.052-5.546-7.489-4.63l-7.059 1.882a6.052 6.052 0 00-4.394 4.764H3.227a2.42 2.42 0 00-2.42 2.42v19.362a2.42 2.42 0 002.42 2.42h23.255a6.05 6.05 0 005.953-4.968l1.664-9.15h.583l6.248-.061a6.02 6.02 0 00-.059-12.04H27.912zM25.78 17.34H24v-2.817a2.017 2.017 0 00-2.537-1.948l-7.058 1.882a2.017 2.017 0 00-1.497 1.949v19.086h13.574c.975 0 1.81-.698 1.985-1.656l2.266-12.462h3.929l6.229-.062a1.986 1.986 0 00-.02-3.972h-15.09zM8.874 35.493V19.358H4.84v16.135h4.034z" fill="#CECFDB"/></svg>