<?xml version="1.0" encoding="utf-8"?><svg width="72" height="72" fill="none" xmlns="http://www.w3.org/2000/svg" viewBox="0 0 72 72"><path fill-rule="evenodd" clip-rule="evenodd" d="M24.655 27.963c0 .248-.27.39-.457.229-1.418-1.227-5.378-5.381-2.304-11.373 1.887-3.68 4.523-5.244 7.055-6.745 1.837-1.091 3.62-2.149 5.022-3.96.597-.771 1.84-.78 2.136.15 1.41 4.405.153 9.323-1.142 14.396-1.192 4.666-2.418 9.463-1.632 14.113.09.528-.483.953-.933.661-3.585-2.325-7.795-6.294-5.956-13.81.086-.35-.338-.539-.48-.207a16.647 16.647 0 00-1.31 6.546zm-1.313 14.384c.235-.08.245-.386.03-.51a16.647 16.647 0 01-5.013-4.407c-.217-.288.158-.561.419-.311 5.588 5.35 11.131 3.689 14.938 1.746.477-.243.395-.951-.106-1.138-4.42-1.645-7.962-5.104-11.407-8.47-3.745-3.658-7.376-7.205-11.896-8.187-.953-.208-1.568.873-1.198 1.775.868 2.12.892 4.192.918 6.33.035 2.942.071 6.007 2.314 9.482 3.652 5.657 9.23 4.305 11.001 3.69zm25.29-12.764c-.234.081-.245.386-.03.51a16.647 16.647 0 015.014 4.407c.217.289-.158.561-.42.312-5.588-5.351-11.13-3.69-14.938-1.747-.476.243-.395.952.107 1.138 4.42 1.645 7.962 5.105 11.407 8.47 3.745 3.658 7.376 7.205 11.896 8.188.953.207 1.567-.873 1.198-1.776-.868-2.119-.893-4.192-.918-6.329-.035-2.943-.072-6.008-2.315-9.482-3.652-5.658-9.23-4.306-11-3.691zm-.855 14.156c-.188-.163-.458-.02-.457.229a16.645 16.645 0 01-1.31 6.545c-.141.332-.565.144-.48-.207 1.84-7.515-2.37-11.485-5.956-13.81-.45-.292-1.022.133-.932.661.785 4.65-.44 9.447-1.632 14.114-1.295 5.072-2.551 9.99-1.143 14.396.297.929 1.54.92 2.137.15 1.401-1.812 3.184-2.87 5.022-3.96 2.531-1.502 5.167-3.066 7.055-6.746 3.073-5.991-.887-10.145-2.304-11.372zm-13.151 6.077c.214-.124.473.038.426.281-.353 1.842-1.97 7.348-8.697 7.682-4.13.205-6.802-1.296-9.369-2.737-1.863-1.046-3.67-2.061-5.94-2.37-.966-.13-1.594-1.203-.939-1.924 3.111-3.423 7.998-4.795 13.039-6.209 4.637-1.301 9.404-2.639 13.038-5.644.413-.341 1.067-.058 1.04.477-.221 4.268-1.554 9.9-8.982 12.064-.347.101-.298.562.06.518a16.648 16.648 0 006.324-2.138zm2.296-27.983c-.046.244.212.406.427.281a16.646 16.646 0 016.323-2.138c.359-.044.407.417.06.518-7.427 2.165-8.76 7.796-8.981 12.064-.028.535.626.818 1.039.477 3.634-3.005 8.401-4.343 13.038-5.644 5.041-1.414 9.928-2.785 13.04-6.208.655-.722.027-1.794-.94-1.925-2.269-.308-4.076-1.323-5.94-2.37-2.566-1.441-5.239-2.942-9.369-2.737-6.726.334-8.343 5.84-8.697 7.682z" fill="#CECFDB"/></svg>