<?xml version="1.0" encoding="utf-8"?><svg width="80" height="80" fill="none" xmlns="http://www.w3.org/2000/svg" viewBox="0 0 80 80"><path fill-rule="evenodd" clip-rule="evenodd" d="M80 40c0 22.091-17.909 40-40 40S0 62.091 0 40 17.909 0 40 0s40 17.909 40 40zM41.433 29.53c-3.89 1.618-11.666 4.967-23.327 10.047-1.894.753-2.885 1.49-2.976 2.21-.152 1.218 1.372 1.697 3.448 2.35.282.089.575.18.875.278 2.042.664 4.79 1.44 6.218 1.471 1.295.028 2.741-.506 4.338-1.602C40.904 36.93 46.528 33.212 46.88 33.132c.249-.056.594-.127.828.08.234.208.21.602.186.708-.151.643-6.135 6.207-9.232 9.086a109.11 109.11 0 00-1.79 1.68c-.313.325-.633.633-.94.93-1.897 1.828-3.32 3.2.079 5.44a315.594 315.594 0 014.244 2.854c1.424.97 2.845 1.937 4.682 3.142.469.307.916.626 1.351.936 1.658 1.182 3.146 2.243 4.986 2.074 1.069-.098 2.173-1.104 2.734-4.101 1.325-7.084 3.93-22.433 4.531-28.758a7.057 7.057 0 00-.066-1.575c-.054-.311-.165-.755-.57-1.083-.479-.389-1.219-.47-1.55-.465-1.504.027-3.812.83-14.92 5.45z" fill="#CECFDB"/></svg>