<?xml version="1.0" encoding="utf-8"?><svg width="127" height="40" fill="none" xmlns="http://www.w3.org/2000/svg" viewBox="0 0 127 40"><path fill-rule="evenodd" clip-rule="evenodd" d="M7.407 36.744h7.16l3.292-17.747 3.314 17.747h7.16l5.609-33.488h-6.917l-2.78 19.258-3.427-19.258H14.9l-3.365 19.213L8.759 3.256h-6.96l5.608 33.488zm36.987-20.056V9.19h11.8V3.256H37.314v33.488h17.533l.9-5.581H44.393v-8.77h9.93v-5.705h-9.93zM72.773 9.19v20.229l-1.293 7.325h-5.742V9.19h-7.745V3.256H80.696V9.19h-7.923zm16.801 0v7.498h9.93v5.704h-9.93v8.77h5.62l-1.012 5.582H82.493V3.256h18.882V9.19h-11.8zM35.515 36.744v-7.442h-5.844v7.442h5.844zm26.524-7.442v7.442h-5.844v-7.442h5.844zm16.634 7.442v-7.442h-5.845v7.442h5.845zm22.702-7.442v7.442h-5.844v-7.442h5.844zm12.502-26.046h-10.704v33.488h7.048V24.692h2.726l4.72 12.052h7.535V36.4l-5.579-13.625a9.924 9.924 0 001.944-1.486c.857-.843 1.522-1.901 1.995-3.174.473-1.288.709-2.867.709-4.738 0-2.208-.421-4.063-1.263-5.566a8.051 8.051 0 00-3.568-3.404c-1.551-.767-3.406-1.15-5.563-1.15zm-3.656 15.525h3.479c.798 0 1.455-.192 1.972-.575.517-.383.902-.928 1.153-1.633.266-.72.399-1.572.399-2.553 0-1.012-.126-1.878-.377-2.599-.236-.72-.598-1.273-1.086-1.656-.473-.383-1.101-.575-1.884-.575h-3.656v9.591z" fill="#CECFDB"/></svg>