<?xml version="1.0" encoding="utf-8"?><svg width="80" height="80" fill="none" xmlns="http://www.w3.org/2000/svg" viewBox="0 0 80 80"><g clip-path="url(#hclip0_3_660)" fill="#CECFDB"><path d="M40 7.203c10.688 0 11.953.047 16.156.234 3.907.172 6.016.829 7.422 1.375 1.86.72 3.203 1.594 4.594 2.985 1.406 1.406 2.266 2.734 2.984 4.594.547 1.406 1.203 3.53 1.375 7.422.188 4.218.235 5.484.235 16.156 0 10.687-.047 11.953-.235 16.156-.172 3.906-.828 6.016-1.375 7.422-.719 1.86-1.594 3.203-2.984 4.594-1.406 1.406-2.734 2.265-4.594 2.984-1.406.547-3.531 1.203-7.422 1.375-4.218.188-5.484.234-16.156.234-10.688 0-11.953-.046-16.156-.234-3.907-.172-6.016-.828-7.422-1.375-1.86-.719-3.203-1.594-4.594-2.984-1.406-1.407-2.265-2.735-2.984-4.594-.547-1.406-1.203-3.531-1.375-7.422-.188-4.219-.235-5.484-.235-16.156 0-10.688.047-11.953.235-16.157.172-3.906.828-6.015 1.375-7.421.719-1.86 1.594-3.203 2.984-4.594 1.406-1.406 2.735-2.266 4.594-2.985 1.406-.546 3.531-1.203 7.422-1.374 4.203-.188 5.468-.235 16.156-.235zM40 0C29.14 0 27.781.047 23.516.234c-4.25.188-7.172.875-9.703 1.86-2.641 1.031-4.876 2.39-7.094 4.625-2.235 2.218-3.594 4.453-4.625 7.078C1.109 16.344.422 19.25.234 23.5.047 27.781 0 29.14 0 40s.047 12.219.234 16.484c.188 4.25.875 7.172 1.86 9.703 1.031 2.641 2.39 4.876 4.625 7.094 2.218 2.219 4.453 3.594 7.078 4.61 2.547.984 5.453 1.671 9.703 1.859 4.266.188 5.625.234 16.484.234 10.86 0 12.22-.046 16.485-.234 4.25-.188 7.172-.875 9.703-1.86 2.625-1.015 4.86-2.39 7.078-4.609 2.219-2.219 3.594-4.453 4.61-7.078.984-2.547 1.671-5.453 1.859-9.703.187-4.266.234-5.625.234-16.484 0-10.86-.047-12.22-.234-16.485-.188-4.25-.875-7.172-1.86-9.703-.984-2.656-2.343-4.89-4.578-7.11-2.219-2.218-4.453-3.593-7.078-4.609C63.656 1.125 60.75.438 56.5.25 52.219.047 50.86 0 40 0z"/><path d="M40 19.453c-11.344 0-20.547 9.203-20.547 20.547 0 11.344 9.203 20.547 20.547 20.547 11.344 0 20.547-9.203 20.547-20.547 0-11.344-9.203-20.547-20.547-20.547zm0 33.875c-7.36 0-13.328-5.969-13.328-13.328 0-7.36 5.969-13.328 13.328-13.328 7.36 0 13.328 5.969 13.328 13.328 0 7.36-5.969 13.328-13.328 13.328zM66.156 18.64a4.798 4.798 0 01-9.594 0 4.798 4.798 0 014.797-4.796 4.808 4.808 0 014.797 4.796z"/></g><defs><clipPath id="hclip0_3_660"><path fill="#fff" d="M0 0h80v80H0z"/></clipPath></defs></svg>