<?xml version="1.0" encoding="utf-8"?><svg width="240" height="225" fill="none" xmlns="http://www.w3.org/2000/svg" viewBox="0 0 240 225"><path fill="url(#npaint0_radial_3_273)" d="M0 3.672h240v160H0z"/><path d="M81.77 158.347l6.48 6.702c.188.195.73.301 1.244.243.45-.05.74-.208.745-.379V45.797l-4.184-3.417c-1.334-.583-3.905-3.344-4.34-3.283V158.23c0 .039.018.079.055.117z" fill="url(#npaint1_radial_3_273)"/><path d="M90.234 46.172v118.167" stroke="url(#npaint2_linear_3_273)" stroke-width=".8" stroke-linecap="round"/><path d="M81.77 39.22l6.48 6.703c.188.194.73.3 1.244.243.584-.065.896-.311.672-.53L83.37 38.98c-.17-.167-.65-.251-1.086-.191-.45.063-.683.257-.514.43z" fill="#CECFDB"/><path fill-rule="evenodd" clip-rule="evenodd" d="M89.254 50.247l-66.121-2.4v120.308c.02-.364.42-.715 1.127-.967 5.409-1.927 13.024-2.61 20.06-1.799l44.889 5.173.045.001V50.247z" fill="#8C8EA5"/><path fill-rule="evenodd" clip-rule="evenodd" d="M23.204 168.457c1.477 2.792 6.618 5.079 13.543 6.023l54.335 7.408c-4.256-3.25-5.329-7.13-2.21-10.873.125-.151.256-.3.393-.447l-44.944-5.179c-7.036-.811-14.651-.128-20.06 1.799-.902.321-1.303.803-1.057 1.269zM23.204 48.13c1.477 2.793 6.618 5.08 13.543 6.024l54.335 7.408c-4.256-3.25-5.329-7.13-2.21-10.874.125-.15.256-.299.393-.446l-44.944-5.18c-7.036-.81-14.651-.127-20.06 1.8-.902.321-1.303.803-1.057 1.268z" fill="#CECFDB"/><path fill-rule="evenodd" clip-rule="evenodd" d="M36.747 54.154c-6.925-.945-12.067-3.231-13.543-6.024a.583.583 0 01-.071-.26v14.705c0 32.073.002 105.31 0 105.606a.58.58 0 00.072.275c1.476 2.792 6.617 5.079 13.542 6.023l54.336 7.408V61.564l-.01-.003-54.326-7.407z" fill="url(#npaint3_radial_3_273)"/><path fill-rule="evenodd" clip-rule="evenodd" d="M109.901 15.748c-6.385 1.406-10.403 4.01-10.583 6.86l-1.416 22.36c6.651-2.574 15.824-4.165 25.954-4.165.406 0 .811.003 1.214.008l-1.152-18.204c-.181-2.85-4.199-5.453-10.584-6.859a8.471 8.471 0 00-3.433 0z" fill="#CECFDB"/><path fill-rule="evenodd" clip-rule="evenodd" d="M97.903 44.968v120.325c6.65-2.574 15.823-4.165 25.953-4.165.406 0 .811.003 1.214.008V40.814v-.003a95.975 95.975 0 00-1.214-.007c-10.13 0-19.303 1.59-25.953 4.164zm27.164-4.213l-.236-3.72c.193.848.201 1.731.208 2.58.003.39.006.772.028 1.14z" fill="url(#npaint4_radial_3_273)"/><path fill-rule="evenodd" clip-rule="evenodd" d="M109.901 136.073c-6.385 1.406-10.403 4.01-10.583 6.86l-1.416 22.361c6.651-2.574 15.824-4.165 25.954-4.165.406 0 .811.002 1.214.007l-1.152-18.203c-.181-2.85-4.199-5.454-10.584-6.86a8.482 8.482 0 00-3.433 0z" fill="#CECFDB"/><path d="M149.088 35.074l-14.65 4.289v120.316c-.001.079.059.158.181.227.345.194 1.047.231 1.51.078l14.056-4.631c.2-.066.303-.159.303-.254V34.779c-.297-.146-1.029.178-1.4.295z" fill="url(#npaint5_radial_3_273)"/><path d="M150.5 35.071v118.167" stroke="url(#npaint6_linear_3_273)" stroke-width=".8" stroke-linecap="round"/><path d="M149.091 34.517l-14.273 4.53c-.414.13-.499.364-.196.535.345.194 1.047.23 1.51.078l14.056-4.631c.353-.116.405-.32.119-.46-.297-.147-.845-.17-1.216-.052z" fill="#CECFDB"/><path fill-rule="evenodd" clip-rule="evenodd" d="M215.746 158.013c-5.427-1.919-13.05-2.591-20.078-1.77l-55.145 6.444c8.369 1.653 15.119 4.543 18.274 8.282.127.15.247.3.36.45l44.174-6.096c6.916-.954 12.035-3.248 13.484-6.043.242-.466-.164-.947-1.069-1.267z" fill="#CECFDB"/><path fill-rule="evenodd" clip-rule="evenodd" d="M216.88 38.611a.56.56 0 01-.064.337c-1.449 2.794-6.568 5.089-13.484 6.043l-44.174 6.096-.002-.002V171.41l.002.003 44.175-6.096c6.915-.954 12.034-3.249 13.484-6.043a.59.59 0 00.068-.26c.005-.326.001-86.595 0-112.938v-1.48-5.982l-.005-.002z" fill="url(#npaint7_radial_3_273)"/><path fill-rule="evenodd" clip-rule="evenodd" d="M140.523 42.355c8.369 1.652 15.119 4.543 18.274 8.281.126.15.246.3.358.45v120.323a9.991 9.991 0 00-.357-.448c-3.156-3.739-9.906-6.629-18.274-8.282l-.001-120.316h.044l-.044-.008z" fill="url(#npaint8_radial_3_273)"/><path d="M216.898 39.038v118.167" stroke="url(#npaint9_linear_3_273)" stroke-width=".4" stroke-linecap="round"/><path fill-rule="evenodd" clip-rule="evenodd" d="M215.746 37.681c-5.427-1.919-13.05-2.59-20.078-1.77l-55.145 6.444c8.369 1.653 15.119 4.543 18.274 8.282.127.15.247.3.36.45l44.174-6.096c6.916-.954 12.035-3.248 13.484-6.043.242-.466-.164-.947-1.069-1.267z" fill="#CECFDB"/><path d="M182.312 58.614l-10.439-2.35c-2.25-.783-6.585-1.713-6.915-1.55 0 3.2-.002 120.24 0 120.326.002.131.168.259.476.335l15.561 3.837c.39.096.906.055 1.167-.093.102-.058.15-.123.15-.188V58.614z" fill="url(#npaint10_radial_3_273)"/><path d="M182.301 58.905v118.167" stroke="url(#npaint11_linear_3_273)" stroke-width=".4" stroke-linecap="round"/><path d="M181.927 58.328l-15.376-3.948c-.447-.114-1.045-.077-1.375.087-.375.186-.255.456.258.583l15.56 3.837c.391.096.907.055 1.168-.093.271-.154.165-.364-.235-.466z" fill="#CECFDB"/><path d="M130.613 145.871c.564-.899 1.311-1.501 1.799-1.45v21.545a.161.161 0 01-.032.088l-5.372 7.788c-.131.19-.633.302-1.121.251-.405-.042-.673-.183-.678-.339l-.002-21.55 5.406-6.333z" fill="url(#npaint12_radial_3_273)"/><path d="M130.611 144.328c.131-.19.633-.302 1.121-.251.488.05.778.245.647.435l-5.373 7.788c-.131.19-.632.302-1.121.252-.488-.051-.777-.246-.647-.436l5.373-7.788z" fill="#CECFDB"/><path d="M108.275 167.286c-.083-.055-.122-.116-.123-.176l.001-21.539c.437-.098 3.507 1.847 3.76 2.017l8.449 4.966v21.541c-.003.121-.167.239-.458.304-.437.098-.997.04-1.25-.13l-10.379-6.983z" fill="url(#npaint13_radial_3_273)"/><path d="M108.274 145.744c-.253-.17-.103-.387.335-.485.437-.098.997-.04 1.25.13l10.379 6.983c.253.17.103.387-.335.485-.438.098-.997.04-1.25-.13l-10.379-6.983z" fill="#CECFDB"/><path d="M95.05 174.421c-.41-.043-.68-.187-.679-.345l.002-21.538c.13-.19 4.831.482 5.32.533l16.559 1.55v21.55a.156.156 0 01-.031.085c-.131.19-.632.302-1.12.252l-20.052-2.087z" fill="url(#npaint14_radial_3_273)"/><path d="M95.052 152.884c-.488-.051-.778-.246-.647-.435.13-.19.632-.302 1.12-.252l20.052 2.087c.488.051.777.246.647.436-.131.189-.633.302-1.121.251l-20.051-2.087z" fill="#CECFDB"/><path d="M98.696 183.104c-.438.098-.997.04-1.25-.13-.08-.053-.12-.112-.123-.169-.007-.126 0-21.05 0-21.55l18.435-3.8c.438-.098 1.12-.404 1.373-.234v21.546c-.003.122-.166.24-.458.306l-17.977 4.031z" fill="url(#npaint15_radial_3_273)"/><path d="M98.695 161.563c-.438.098-.997.039-1.25-.131s-.103-.387.335-.485l17.977-4.032c.438-.098.997-.039 1.25.131.253.169.103.387-.335.485l-17.977 4.032z" fill="#CECFDB"/><path d="M117.076 188.24c-.13.189-.632.302-1.12.251-.41-.043-.68-.187-.679-.344v-21.542l5.383-6.667c.131-.19 1.332-1.168 1.82-1.117v21.544a.159.159 0 01-.031.086l-5.373 7.789z" fill="url(#npaint16_radial_3_273)"/><path d="M117.077 166.698c-.131.189-.633.302-1.121.251-.488-.051-.778-.246-.647-.435l5.373-7.789c.131-.189.632-.302 1.12-.251.488.051.778.246.647.435l-5.372 7.789z" fill="#CECFDB"/><path d="M145.692 150.638c.437-.098 4.418-1.036 4.671-.866 0 .633.002 21.484-.001 21.545-.004.122-.168.239-.457.304l-17.977 4.031c-.438.098-.998.04-1.25-.13-.083-.056-.123-.116-.123-.176v-21.541l15.137-3.167z" fill="url(#npaint17_radial_3_273)"/><path d="M148.993 149.463c.437-.098.997-.04 1.25.13.252.17.102.387-.335.485l-17.978 4.032c-.437.098-.997.04-1.25-.13-.252-.17-.102-.387.335-.486l17.978-4.031z" fill="#CECFDB"/><path d="M153.319 158.488c0 1.7.003 21.384 0 21.542 0 .029-.01.059-.031.089-.131.19-.633.302-1.121.252l-20.051-2.087c-.406-.043-.675-.185-.678-.34v-21.539c.423-.117 3.873.25 5.873.633l16.008 1.45z" fill="url(#npaint18_radial_3_273)"/><path d="M152.64 158.141c.488.051.777.246.647.436-.131.189-.633.302-1.121.251l-20.051-2.087c-.488-.051-.778-.246-.647-.435.131-.19.632-.302 1.12-.251l20.052 2.086z" fill="#CECFDB"/><path d="M139.542 165.455c0 .55.002 21.488 0 21.55-.005.121-.168.238-.458.303-.437.098-.997.04-1.25-.13l-10.379-6.983c-.083-.056-.122-.117-.123-.177v-21.547c.438-.098 4.265 1.132 4.928 3.034l7.282 3.95z" fill="url(#npaint19_radial_3_273)"/><path d="M139.418 165.28c.252.17.102.387-.335.486-.438.098-.998.039-1.25-.13l-10.38-6.983c-.252-.17-.102-.388.335-.486.438-.098.998-.04 1.25.13l10.38 6.983z" fill="#CECFDB"/><path d="M130.613 112.098c.564-.898 1.311-1.5 1.799-1.45v21.545a.159.159 0 01-.032.088l-5.372 7.789c-.131.189-.633.302-1.121.251-.405-.042-.673-.184-.678-.339l-.002-21.55 5.406-6.334z" fill="url(#npaint20_radial_3_273)"/><path d="M130.611 110.555c.131-.189.633-.302 1.121-.251.488.051.778.246.647.435l-5.373 7.789c-.131.189-.632.302-1.121.251-.488-.051-.777-.246-.647-.435l5.373-7.789z" fill="#CECFDB"/><path d="M108.275 133.514c-.083-.056-.122-.117-.123-.177l.001-21.538c.437-.099 3.507 1.846 3.76 2.016l8.449 4.967v21.54c-.003.122-.167.24-.458.305-.437.098-.997.04-1.25-.13l-10.379-6.983z" fill="url(#npaint21_radial_3_273)"/><path d="M108.274 111.972c-.253-.17-.103-.387.335-.486.437-.098.997-.04 1.25.13l10.379 6.983c.253.17.103.388-.335.486-.438.098-.997.04-1.25-.13l-10.379-6.983z" fill="#CECFDB"/><path d="M95.05 140.648c-.41-.042-.68-.187-.679-.344l.002-21.539c.13-.19 4.831.483 5.32.533l16.559 1.55v21.55a.159.159 0 01-.031.086c-.131.189-.632.302-1.12.251l-20.052-2.087z" fill="url(#npaint22_radial_3_273)"/><path d="M95.052 119.112c-.488-.051-.778-.246-.647-.436.13-.189.632-.302 1.12-.251l20.052 2.087c.488.051.777.246.647.435-.131.19-.633.302-1.121.251l-20.051-2.086z" fill="#CECFDB"/><path d="M98.696 149.332c-.438.098-.997.04-1.25-.13-.08-.054-.12-.112-.123-.17-.007-.125 0-21.05 0-21.55l18.435-3.8c.438-.098 1.12-.403 1.373-.233v21.546c-.003.122-.166.24-.458.305l-17.977 4.032z" fill="url(#npaint23_radial_3_273)"/><path d="M98.695 127.79c-.438.098-.997.04-1.25-.13s-.103-.387.335-.485l17.977-4.032c.438-.098.997-.04 1.25.13s.103.387-.335.486l-17.977 4.031z" fill="#CECFDB"/><path d="M117.076 154.467c-.13.19-.632.302-1.12.251-.41-.042-.68-.186-.679-.344v-21.542l5.383-6.667c.131-.189 1.332-1.167 1.82-1.116v21.544a.162.162 0 01-.031.086l-5.373 7.788z" fill="url(#npaint24_radial_3_273)"/><path d="M117.077 132.925c-.131.19-.633.302-1.121.252-.488-.051-.778-.246-.647-.436l5.373-7.788c.131-.19.632-.302 1.12-.251.488.05.778.245.647.435l-5.372 7.788z" fill="#CECFDB"/><path d="M145.692 116.866c.437-.098 4.418-1.037 4.671-.867 0 .633.002 21.484-.001 21.546-.004.121-.168.238-.457.303l-17.977 4.032c-.438.098-.998.04-1.25-.13-.083-.056-.123-.117-.123-.177v-21.541l15.137-3.166z" fill="url(#npaint25_radial_3_273)"/><path d="M148.993 115.69c.437-.098.997-.04 1.25.13.252.17.102.388-.335.486l-17.978 4.032c-.437.098-.997.039-1.25-.131-.252-.17-.102-.387.335-.485l17.978-4.032z" fill="#CECFDB"/><path d="M153.319 124.716c0 1.7.003 21.383 0 21.541 0 .03-.01.06-.031.09-.131.189-.633.302-1.121.251l-20.051-2.087c-.406-.042-.675-.184-.678-.34v-21.539c.423-.116 3.873.25 5.873.634l16.008 1.45z" fill="url(#npaint26_radial_3_273)"/><path d="M152.64 124.369c.488.051.777.246.647.435-.131.19-.633.302-1.121.252l-20.051-2.087c-.488-.051-.778-.246-.647-.436.131-.189.632-.302 1.12-.251l20.052 2.087z" fill="#CECFDB"/><path d="M139.542 131.682c0 .55.002 21.488 0 21.55-.005.121-.168.238-.458.303-.437.098-.997.04-1.25-.13l-10.379-6.983c-.083-.055-.122-.116-.123-.176v-21.547c.438-.098 4.265 1.132 4.928 3.033l7.282 3.95z" fill="url(#npaint27_radial_3_273)"/><path d="M139.418 131.508c.252.17.102.387-.335.485-.438.098-.998.04-1.25-.13l-10.38-6.983c-.252-.17-.102-.387.335-.485.438-.098.998-.04 1.25.13l10.38 6.983z" fill="#CECFDB"/><path d="M130.613 78.327c.564-.899 1.311-1.5 1.799-1.45v21.545a.16.16 0 01-.032.088l-5.372 7.788c-.131.19-.633.302-1.121.251-.405-.042-.673-.183-.678-.339l-.002-21.55 5.406-6.333z" fill="url(#npaint28_radial_3_273)"/><path d="M130.611 76.784c.131-.19.633-.302 1.121-.251.488.05.778.245.647.435l-5.373 7.788c-.131.19-.632.302-1.121.252-.488-.051-.777-.246-.647-.436l5.373-7.788z" fill="#CECFDB"/><path d="M108.275 99.742c-.083-.055-.122-.116-.123-.176l.001-21.539c.437-.098 3.507 1.847 3.76 2.017l8.449 4.966v21.541c-.003.121-.167.239-.458.304-.437.098-.997.04-1.25-.13l-10.379-6.983z" fill="url(#npaint29_radial_3_273)"/><path d="M108.274 78.2c-.253-.17-.103-.387.335-.485.437-.098.997-.04 1.25.13l10.379 6.983c.253.17.103.387-.335.485-.438.098-.997.04-1.25-.13L108.274 78.2z" fill="#CECFDB"/><path d="M95.05 106.877c-.41-.043-.68-.187-.679-.345l.002-21.538c.13-.19 4.831.482 5.32.533l16.559 1.55v21.55a.156.156 0 01-.031.085c-.131.19-.632.302-1.12.252l-20.052-2.087z" fill="url(#npaint30_radial_3_273)"/><path d="M95.052 85.34c-.488-.05-.778-.246-.647-.435.13-.19.632-.302 1.12-.252l20.052 2.087c.488.051.777.246.647.436-.131.19-.633.302-1.121.25L95.052 85.34z" fill="#CECFDB"/><path d="M98.696 115.56c-.438.098-.997.04-1.25-.13-.08-.053-.12-.111-.123-.169-.007-.126 0-21.05 0-21.55l18.435-3.8c.438-.098 1.12-.404 1.373-.234v21.546c-.003.122-.166.24-.458.306l-17.977 4.031z" fill="url(#npaint31_radial_3_273)"/><path d="M98.695 94.019c-.438.098-.997.04-1.25-.13s-.103-.388.335-.486l17.977-4.032c.438-.098.997-.04 1.25.13s.103.388-.335.486l-17.977 4.032z" fill="#CECFDB"/><path d="M117.076 120.696c-.13.189-.632.302-1.12.251-.41-.043-.68-.187-.679-.344V99.061l5.383-6.667c.131-.19 1.332-1.168 1.82-1.117v21.544a.159.159 0 01-.031.086l-5.373 7.789z" fill="url(#npaint32_radial_3_273)"/><path d="M117.077 99.154c-.131.19-.633.302-1.121.251-.488-.05-.778-.246-.647-.435l5.373-7.788c.131-.19.632-.303 1.12-.252.488.051.778.246.647.435l-5.372 7.789z" fill="#CECFDB"/><path d="M145.692 83.094c.437-.098 4.418-1.036 4.671-.866 0 .633.002 21.484-.001 21.545-.004.122-.168.239-.457.304l-17.977 4.031c-.438.098-.998.04-1.25-.13-.083-.056-.123-.116-.123-.176V86.261l15.137-3.167z" fill="url(#npaint33_radial_3_273)"/><path d="M148.993 81.919c.437-.098.997-.04 1.25.13.252.17.102.387-.335.485l-17.978 4.032c-.437.098-.997.04-1.25-.13-.252-.17-.102-.387.335-.486l17.978-4.031z" fill="#CECFDB"/><path d="M153.319 90.944c0 1.7.003 21.384 0 21.542 0 .029-.01.059-.031.089-.131.19-.633.302-1.121.252l-20.051-2.087c-.406-.043-.675-.185-.678-.34V88.86c.423-.116 3.873.25 5.873.634l16.008 1.45z" fill="url(#npaint34_radial_3_273)"/><path d="M152.64 90.597c.488.051.777.246.647.436-.131.19-.633.302-1.121.251l-20.051-2.087c-.488-.05-.778-.246-.647-.435.131-.19.632-.302 1.12-.251l20.052 2.087z" fill="#CECFDB"/><path d="M139.542 97.91c0 .55.002 21.489 0 21.551-.005.121-.168.238-.458.303-.437.098-.997.04-1.25-.13l-10.379-6.983c-.083-.056-.122-.117-.123-.177V90.927c.438-.098 4.265 1.132 4.928 3.034l7.282 3.95z" fill="url(#npaint35_radial_3_273)"/><path d="M139.418 97.736c.252.17.102.388-.335.486-.438.098-.998.04-1.25-.13l-10.38-6.983c-.252-.17-.102-.388.335-.486.438-.098.998-.04 1.25.13l10.38 6.983z" fill="#CECFDB"/><path d="M130.613 44.554c.564-.898 1.311-1.5 1.799-1.45V64.65a.16.16 0 01-.032.088l-5.372 7.789c-.131.19-.633.302-1.121.251-.405-.042-.673-.184-.678-.339l-.002-21.55 5.406-6.334z" fill="url(#npaint36_radial_3_273)"/><path d="M130.611 43.011c.131-.189.633-.302 1.121-.25.488.05.778.245.647.434l-5.373 7.789c-.131.19-.632.302-1.121.251-.488-.05-.777-.245-.647-.435l5.373-7.788z" fill="#CECFDB"/><path d="M108.275 65.97c-.083-.056-.122-.117-.123-.177l.001-21.538c.437-.099 3.507 1.846 3.76 2.016l8.449 4.967v21.54c-.003.122-.167.24-.458.305-.437.098-.997.04-1.25-.13l-10.379-6.983z" fill="url(#npaint37_radial_3_273)"/><path d="M108.274 44.428c-.253-.17-.103-.387.335-.486.437-.098.997-.04 1.25.13l10.379 6.983c.253.17.103.388-.335.486-.438.098-.997.04-1.25-.13l-10.379-6.983z" fill="#CECFDB"/><path d="M95.05 73.104c-.41-.042-.68-.187-.679-.344l.002-21.539c.13-.19 4.831.483 5.32.533l16.559 1.55v21.55a.158.158 0 01-.031.086c-.131.19-.632.302-1.12.251l-20.052-2.087z" fill="url(#npaint38_radial_3_273)"/><path d="M95.052 51.568c-.488-.051-.778-.246-.647-.436.13-.19.632-.302 1.12-.251l20.052 2.087c.488.05.777.246.647.435-.131.19-.633.302-1.121.252l-20.051-2.087z" fill="#CECFDB"/><path d="M98.696 81.788c-.438.098-.997.04-1.25-.13-.08-.054-.12-.112-.123-.17-.007-.125 0-21.05 0-21.55l18.435-3.8c.438-.098 1.12-.403 1.373-.233v21.546c-.003.122-.166.24-.458.305l-17.977 4.032z" fill="url(#npaint39_radial_3_273)"/><path d="M98.695 60.246c-.438.098-.997.04-1.25-.13s-.103-.387.335-.485l17.977-4.032c.438-.098.997-.04 1.25.13s.103.387-.335.486l-17.977 4.031z" fill="#CECFDB"/><path d="M117.076 86.923c-.13.19-.632.302-1.12.251-.41-.042-.68-.186-.679-.344V65.288l5.383-6.666c.131-.19 1.332-1.168 1.82-1.117v21.544a.16.16 0 01-.031.086l-5.373 7.788z" fill="url(#npaint40_radial_3_273)"/><path d="M117.077 65.381c-.131.19-.633.302-1.121.252-.488-.051-.778-.246-.647-.436l5.373-7.788c.131-.19.632-.302 1.12-.251.488.05.778.245.647.435l-5.372 7.788z" fill="#CECFDB"/><path d="M145.692 49.322c.437-.098 4.418-1.037 4.671-.867 0 .633.002 21.484-.001 21.546-.004.121-.168.238-.457.303l-17.977 4.032c-.438.098-.998.04-1.25-.13-.083-.056-.123-.117-.123-.177V52.49l15.137-3.167z" fill="url(#npaint41_radial_3_273)"/><path d="M148.993 48.146c.437-.098.997-.04 1.25.13.252.17.102.388-.335.486l-17.978 4.032c-.437.098-.997.04-1.25-.13-.252-.17-.102-.388.335-.486l17.978-4.032z" fill="#CECFDB"/><path d="M153.319 57.172c0 1.7.003 21.383 0 21.541 0 .03-.01.06-.031.09-.131.19-.633.302-1.121.251l-20.051-2.087c-.406-.042-.675-.184-.678-.34V55.088c.423-.116 3.873.25 5.873.634l16.008 1.45z" fill="url(#npaint42_radial_3_273)"/><path d="M152.64 56.825c.488.05.777.246.647.435-.131.19-.633.302-1.121.252l-20.051-2.087c-.488-.051-.778-.246-.647-.436s.632-.302 1.12-.25l20.052 2.086z" fill="#CECFDB"/><path d="M139.542 64.138c0 .55.002 21.488 0 21.55-.005.121-.168.238-.458.303-.437.098-.997.04-1.25-.13l-10.379-6.983c-.083-.055-.122-.116-.123-.176V57.155c.438-.098 4.265 1.132 4.928 3.033l7.282 3.95z" fill="url(#npaint43_radial_3_273)"/><path d="M139.418 63.964c.252.17.102.387-.335.485-.438.098-.998.04-1.25-.13l-10.38-6.983c-.252-.17-.102-.387.335-.485.438-.098.998-.04 1.25.13l10.38 6.983z" fill="#CECFDB"/><path fill="url(#npaint44_radial_3_273)" d="M94.168 59.905h59.367v127.433H94.168z"/><path d="M74.734 185.722l15.459-.204c.448-.005.812-.17.836-.377l.001-.022-.001-120.322-17.035.267c0 2.316-.004 120.149 0 120.329.005.186.338.334.74.329z" fill="url(#npaint45_radial_3_273)"/><path d="M91.035 65.272V183.44" stroke="url(#npaint46_linear_3_273)" stroke-width=".8" stroke-linecap="round"/><path d="M74.736 65.398l15.458-.204c.45-.006.813-.17.836-.378.027-.235-.391-.43-.9-.42l-15.448.336c-.388.008-.69.157-.686.337.005.186.338.334.74.329z" fill="#CECFDB"/><path fill-rule="evenodd" clip-rule="evenodd" d="M194.886 203.97c3.02-2.598 2.307-5.621-1.877-7.963l-32.83-18.377c-1.458 3.602-6.446 6.989-14.624 9.311-.328.093-.659.184-.993.272l28.587 14.432c4.476 2.26 11.676 3.441 18.966 3.112 1.215-.055 2.267-.354 2.771-.787z" fill="#CECFDB"/><path opacity=".5" fill-rule="evenodd" clip-rule="evenodd" d="M144.562 66.888l.09-.024V187.19l-.089.023h-.001l.001-120.316h.016l-.017-.009zm52.174 133.742l-.001-105.508V80.364c.03-1.647-1.231-3.286-3.726-4.683l-32.823-18.373v120.325l32.823 18.374c2.465 1.38 3.725 2.996 3.727 4.623z" fill="#CECFDB"/><path fill-rule="evenodd" clip-rule="evenodd" d="M196.735 80.346c-.014 1.12-.624 2.245-1.85 3.299-.503.433-1.555.732-2.771.787-7.29.329-14.49-.853-18.965-3.112l-28.57-14.423h-.016l-.001 120.316 28.587 14.432c4.476 2.259 11.676 3.44 18.966 3.111 1.215-.054 2.267-.353 2.771-.786 1.24-1.067 1.851-2.206 1.85-3.34l-.001-107.566V80.346z" fill="url(#npaint47_radial_3_273)"/><path d="M196.73 80.839v118.167" stroke="url(#npaint48_linear_3_273)" stroke-width=".4" stroke-linecap="round"/><path fill-rule="evenodd" clip-rule="evenodd" d="M194.886 83.645c3.02-2.598 2.307-5.621-1.877-7.963l-32.83-18.377c-1.458 3.602-6.446 6.99-14.624 9.311-.328.093-.659.184-.993.272l28.587 14.432c4.476 2.26 11.676 3.44 18.966 3.112 1.215-.055 2.267-.354 2.771-.787z" fill="#CECFDB"/><path d="M132.931 197.919l5.2-6.868a.186.186 0 00.042-.112V70.597c-1.804 1.016-2.221 1.116-2.588 2.15l-4.335 4.75v120.33c.002.141.238.272.603.316.457.056.943-.045 1.078-.224z" fill="url(#npaint49_radial_3_273)"/><path d="M138.164 70.905v118.167" stroke="url(#npaint50_linear_3_273)" stroke-width=".4" stroke-linecap="round"/><path d="M132.931 77.594l5.2-6.868c.151-.2-.118-.41-.617-.485-.567-.085-1.198.04-1.359.267l-4.874 6.904c-.123.173.13.353.572.406.457.056.943-.045 1.078-.224z" fill="#CECFDB"/><path opacity=".5" fill-rule="evenodd" clip-rule="evenodd" d="M101.21 66.338l.012-.008V186.692l-.014-.004-26.7 14.967c-2.423 1.358-3.68 2.944-3.719 4.543V85.847c.04-1.599 1.296-3.185 3.718-4.543l26.701-14.967.002.001zM70.79 206.355v.008-.008z" fill="#CECFDB"/><path fill-rule="evenodd" clip-rule="evenodd" d="M75.417 90.055c7.29.327 14.489-.856 18.96-3.116l35.086-17.737c-9.278.556-19.103-.26-27.284-2.58a54.398 54.398 0 01-.97-.284l-26.7 14.967c-4.18 2.343-4.888 5.366-1.864 7.964.504.433 1.556.731 2.772.786z" fill="#CECFDB"/><path fill-rule="evenodd" clip-rule="evenodd" d="M94.376 86.939c-4.471 2.26-11.67 3.443-18.96 3.116-1.215-.055-2.268-.353-2.772-.786-1.23-1.056-1.843-2.183-1.856-3.305V99.69c-.002 31.595-.005 105.247 0 106.573.004 1.131.617 2.266 1.856 3.33.504.433 1.556.731 2.772.786 7.29.327 14.489-.856 18.96-3.117l35.086-17.736V69.214l-.04.008L94.376 86.94z" fill="url(#npaint51_radial_3_273)"/><path d="M114.652 177.098l15.684-37.805" stroke="#64A2FF" stroke-width="2" stroke-linecap="round" stroke-linejoin="round"/><path d="M135.871 123.666c.56-.5 1.433-.043 1.52.795l1.668 16.244c.072.702-.471 1.233-1.08 1.058l-15.02-4.328c-.764-.22-1.027-1.328-.439-1.852l13.351-11.917z" fill="#64A2FF"/><path d="M167.59 177.098l-15.683-37.805" stroke="#64A2FF" stroke-width="2" stroke-linecap="round" stroke-linejoin="round"/><path d="M146.371 123.666c-.56-.5-1.433-.043-1.519.795l-1.669 16.244c-.072.702.471 1.233 1.081 1.058l15.02-4.328c.763-.22 1.026-1.328.439-1.852l-13.352-11.917z" fill="#64A2FF"/><path d="M141.504 177.672v-15" stroke="#64A2FF" stroke-width="2" stroke-linecap="round" stroke-linejoin="round"/><path d="M140.634 146.687c.308-.695 1.368-.441 1.75.419l6.478 14.573c.285.642-.003 1.247-.594 1.247h-12.955c-.773 0-1.459-.987-1.157-1.666l6.478-14.573z" fill="#64A2FF"/><defs><radialGradient id="npaint0_radial_3_273" cx="0" cy="0" r="1" gradientUnits="userSpaceOnUse" gradientTransform="matrix(0 80 -120 0 120 83.672)"><stop stop-color="#347DFE"/><stop offset=".229" stop-color="#347DFE"/><stop offset="1" stop-color="#347DFE" stop-opacity="0"/></radialGradient><radialGradient id="npaint1_radial_3_273" cx="0" cy="0" r="1" gradientUnits="userSpaceOnUse" gradientTransform="rotate(91.275 21.734 61.53) scale(91.3893 6.17259)"><stop stop-color="#8C8EA5"/><stop offset="1" stop-color="#000002"/></radialGradient><radialGradient id="npaint3_radial_3_273" cx="0" cy="0" r="1" gradientUnits="userSpaceOnUse" gradientTransform="matrix(0 120.8 -61.2489 0 30.983 53.122)"><stop stop-color="#8C8EA5"/><stop offset="1" stop-color="#000002"/></radialGradient><radialGradient id="npaint4_radial_3_273" cx="0" cy="0" r="1" gradientUnits="userSpaceOnUse" gradientTransform="matrix(0 123.554 -26.1712 0 111.486 41.74)"><stop stop-color="#8C8EA5"/><stop offset="1" stop-color="#000002"/></radialGradient><radialGradient id="npaint5_radial_3_273" cx="0" cy="0" r="1" gradientUnits="userSpaceOnUse" gradientTransform="matrix(0 70.3833 -9.0134 0 134.431 38.471)"><stop stop-color="#8C8EA5"/><stop offset="1" stop-color="#000002"/></radialGradient><radialGradient id="npaint7_radial_3_273" cx="0" cy="0" r="1" gradientUnits="userSpaceOnUse" gradientTransform="matrix(0 120.167 -52.239 0 159.168 51.238)"><stop stop-color="#8C8EA5"/><stop offset="1" stop-color="#000002"/></radialGradient><radialGradient id="npaint8_radial_3_273" cx="0" cy="0" r="1" gradientUnits="userSpaceOnUse" gradientTransform="matrix(0 126.138 -18.2108 0 149.839 45.272)"><stop stop-color="#8C8EA5"/><stop offset="1" stop-color="#000002"/></radialGradient><radialGradient id="npaint10_radial_3_273" cx="0" cy="0" r="1" gradientUnits="userSpaceOnUse" gradientTransform="matrix(0 83.4333 -11.6241 0 164.968 54.706)"><stop stop-color="#8C8EA5"/><stop offset="1" stop-color="#000002"/></radialGradient><radialGradient id="npaint12_radial_3_273" cx="0" cy="0" r="1" gradientUnits="userSpaceOnUse" gradientTransform="matrix(0 24.2167 -5.87719 0 125.204 152.304)"><stop stop-color="#8C8EA5"/><stop offset="1" stop-color="#000002"/></radialGradient><radialGradient id="npaint13_radial_3_273" cx="0" cy="0" r="1" gradientUnits="userSpaceOnUse" gradientTransform="matrix(0 28.9 -12.2181 0 108.141 145.554)"><stop stop-color="#8C8EA5"/><stop offset="1" stop-color="#000002"/></radialGradient><radialGradient id="npaint14_radial_3_273" cx="0" cy="0" r="1" gradientUnits="userSpaceOnUse" gradientTransform="matrix(0 34.1667 -31.13 0 95.987 152.488)"><stop stop-color="#8C8EA5"/><stop offset="1" stop-color="#000002"/></radialGradient><radialGradient id="npaint15_radial_3_273" cx="0" cy="0" r="1" gradientUnits="userSpaceOnUse" gradientTransform="matrix(0 26.8833 -20.4991 0 97.304 161.321)"><stop stop-color="#8C8EA5"/><stop offset="1" stop-color="#000002"/></radialGradient><radialGradient id="npaint16_radial_3_273" cx="0" cy="0" r="1" gradientUnits="userSpaceOnUse" gradientTransform="matrix(0 26.0333 -6.31717 0 115.272 166.621)"><stop stop-color="#8C8EA5"/><stop offset="1" stop-color="#000002"/></radialGradient><radialGradient id="npaint17_radial_3_273" cx="0" cy="0" r="1" gradientUnits="userSpaceOnUse" gradientTransform="matrix(0 24.25 -18.5118 0 130.57 153.805)"><stop stop-color="#8C8EA5"/><stop offset="1" stop-color="#000002"/></radialGradient><radialGradient id="npaint18_radial_3_273" cx="0" cy="0" r="1" gradientUnits="userSpaceOnUse" gradientTransform="matrix(0 24.45 -22.2935 0 135.289 157.088)"><stop stop-color="#8C8EA5"/><stop offset="1" stop-color="#000002"/></radialGradient><radialGradient id="npaint19_radial_3_273" cx="0" cy="0" r="1" gradientUnits="userSpaceOnUse" gradientTransform="matrix(0 28.9 -12.2153 0 127.339 158.455)"><stop stop-color="#8C8EA5"/><stop offset="1" stop-color="#000002"/></radialGradient><radialGradient id="npaint20_radial_3_273" cx="0" cy="0" r="1" gradientUnits="userSpaceOnUse" gradientTransform="matrix(0 24.2167 -5.87719 0 125.204 118.532)"><stop stop-color="#8C8EA5"/><stop offset="1" stop-color="#000002"/></radialGradient><radialGradient id="npaint21_radial_3_273" cx="0" cy="0" r="1" gradientUnits="userSpaceOnUse" gradientTransform="matrix(0 28.9 -12.2181 0 108.141 111.782)"><stop stop-color="#8C8EA5"/><stop offset="1" stop-color="#000002"/></radialGradient><radialGradient id="npaint22_radial_3_273" cx="0" cy="0" r="1" gradientUnits="userSpaceOnUse" gradientTransform="matrix(0 34.1667 -31.13 0 95.987 118.715)"><stop stop-color="#8C8EA5"/><stop offset="1" stop-color="#000002"/></radialGradient><radialGradient id="npaint23_radial_3_273" cx="0" cy="0" r="1" gradientUnits="userSpaceOnUse" gradientTransform="matrix(0 26.8833 -20.4991 0 97.304 127.549)"><stop stop-color="#8C8EA5"/><stop offset="1" stop-color="#000002"/></radialGradient><radialGradient id="npaint24_radial_3_273" cx="0" cy="0" r="1" gradientUnits="userSpaceOnUse" gradientTransform="matrix(0 26.0333 -6.31717 0 115.272 132.849)"><stop stop-color="#8C8EA5"/><stop offset="1" stop-color="#000002"/></radialGradient><radialGradient id="npaint25_radial_3_273" cx="0" cy="0" r="1" gradientUnits="userSpaceOnUse" gradientTransform="matrix(0 24.25 -18.5118 0 130.57 120.033)"><stop stop-color="#8C8EA5"/><stop offset="1" stop-color="#000002"/></radialGradient><radialGradient id="npaint26_radial_3_273" cx="0" cy="0" r="1" gradientUnits="userSpaceOnUse" gradientTransform="matrix(0 24.45 -22.2935 0 135.289 123.316)"><stop stop-color="#8C8EA5"/><stop offset="1" stop-color="#000002"/></radialGradient><radialGradient id="npaint27_radial_3_273" cx="0" cy="0" r="1" gradientUnits="userSpaceOnUse" gradientTransform="matrix(0 28.9 -12.2153 0 127.339 124.682)"><stop stop-color="#8C8EA5"/><stop offset="1" stop-color="#000002"/></radialGradient><radialGradient id="npaint28_radial_3_273" cx="0" cy="0" r="1" gradientUnits="userSpaceOnUse" gradientTransform="matrix(0 24.2167 -5.87719 0 125.204 84.76)"><stop stop-color="#8C8EA5"/><stop offset="1" stop-color="#000002"/></radialGradient><radialGradient id="npaint29_radial_3_273" cx="0" cy="0" r="1" gradientUnits="userSpaceOnUse" gradientTransform="matrix(0 28.9 -12.2181 0 108.141 78.01)"><stop stop-color="#8C8EA5"/><stop offset="1" stop-color="#000002"/></radialGradient><radialGradient id="npaint30_radial_3_273" cx="0" cy="0" r="1" gradientUnits="userSpaceOnUse" gradientTransform="matrix(0 34.1667 -31.13 0 95.987 84.944)"><stop stop-color="#8C8EA5"/><stop offset="1" stop-color="#000002"/></radialGradient><radialGradient id="npaint31_radial_3_273" cx="0" cy="0" r="1" gradientUnits="userSpaceOnUse" gradientTransform="matrix(0 26.8833 -20.4991 0 97.304 93.778)"><stop stop-color="#8C8EA5"/><stop offset="1" stop-color="#000002"/></radialGradient><radialGradient id="npaint32_radial_3_273" cx="0" cy="0" r="1" gradientUnits="userSpaceOnUse" gradientTransform="matrix(0 26.0333 -6.31717 0 115.272 99.077)"><stop stop-color="#8C8EA5"/><stop offset="1" stop-color="#000002"/></radialGradient><radialGradient id="npaint33_radial_3_273" cx="0" cy="0" r="1" gradientUnits="userSpaceOnUse" gradientTransform="matrix(0 24.25 -18.5118 0 130.57 86.261)"><stop stop-color="#8C8EA5"/><stop offset="1" stop-color="#000002"/></radialGradient><radialGradient id="npaint34_radial_3_273" cx="0" cy="0" r="1" gradientUnits="userSpaceOnUse" gradientTransform="matrix(0 24.45 -22.2935 0 135.289 89.544)"><stop stop-color="#8C8EA5"/><stop offset="1" stop-color="#000002"/></radialGradient><radialGradient id="npaint35_radial_3_273" cx="0" cy="0" r="1" gradientUnits="userSpaceOnUse" gradientTransform="matrix(0 28.9 -12.2153 0 127.339 90.91)"><stop stop-color="#8C8EA5"/><stop offset="1" stop-color="#000002"/></radialGradient><radialGradient id="npaint36_radial_3_273" cx="0" cy="0" r="1" gradientUnits="userSpaceOnUse" gradientTransform="matrix(0 24.2167 -5.87719 0 125.204 50.988)"><stop stop-color="#8C8EA5"/><stop offset="1" stop-color="#000002"/></radialGradient><radialGradient id="npaint37_radial_3_273" cx="0" cy="0" r="1" gradientUnits="userSpaceOnUse" gradientTransform="matrix(0 28.9 -12.2181 0 108.141 44.238)"><stop stop-color="#8C8EA5"/><stop offset="1" stop-color="#000002"/></radialGradient><radialGradient id="npaint38_radial_3_273" cx="0" cy="0" r="1" gradientUnits="userSpaceOnUse" gradientTransform="matrix(0 34.1667 -31.13 0 95.987 51.171)"><stop stop-color="#8C8EA5"/><stop offset="1" stop-color="#000002"/></radialGradient><radialGradient id="npaint39_radial_3_273" cx="0" cy="0" r="1" gradientUnits="userSpaceOnUse" gradientTransform="matrix(0 26.8833 -20.4991 0 97.304 60.005)"><stop stop-color="#8C8EA5"/><stop offset="1" stop-color="#000002"/></radialGradient><radialGradient id="npaint40_radial_3_273" cx="0" cy="0" r="1" gradientUnits="userSpaceOnUse" gradientTransform="matrix(0 26.0333 -6.31717 0 115.272 65.305)"><stop stop-color="#8C8EA5"/><stop offset="1" stop-color="#000002"/></radialGradient><radialGradient id="npaint41_radial_3_273" cx="0" cy="0" r="1" gradientUnits="userSpaceOnUse" gradientTransform="matrix(0 24.25 -18.5118 0 130.57 52.489)"><stop stop-color="#8C8EA5"/><stop offset="1" stop-color="#000002"/></radialGradient><radialGradient id="npaint42_radial_3_273" cx="0" cy="0" r="1" gradientUnits="userSpaceOnUse" gradientTransform="matrix(0 24.45 -22.2935 0 135.289 55.772)"><stop stop-color="#8C8EA5"/><stop offset="1" stop-color="#000002"/></radialGradient><radialGradient id="npaint43_radial_3_273" cx="0" cy="0" r="1" gradientUnits="userSpaceOnUse" gradientTransform="matrix(0 28.9 -12.2153 0 127.339 57.138)"><stop stop-color="#8C8EA5"/><stop offset="1" stop-color="#000002"/></radialGradient><radialGradient id="npaint44_radial_3_273" cx="0" cy="0" r="1" gradientUnits="userSpaceOnUse" gradientTransform="matrix(0 122.067 -3527.76 0 123.851 59.905)"><stop stop-color="#000002" stop-opacity="0"/><stop offset="1" stop-color="#000002"/></radialGradient><radialGradient id="npaint45_radial_3_273" cx="0" cy="0" r="1" gradientUnits="userSpaceOnUse" gradientTransform="matrix(0 91.8167 -12.9366 0 74 64.805)"><stop stop-color="#8C8EA5"/><stop offset="1" stop-color="#000002"/></radialGradient><radialGradient id="npaint47_radial_3_273" cx="0" cy="0" r="1" gradientUnits="userSpaceOnUse" gradientTransform="matrix(0 120.967 -45.7621 0 144.565 66.905)"><stop stop-color="#8C8EA5"/><stop offset="1" stop-color="#000002"/></radialGradient><radialGradient id="npaint49_radial_3_273" cx="0" cy="0" r="1" gradientUnits="userSpaceOnUse" gradientTransform="matrix(0 105.683 -5.73605 0 131.264 77.305)"><stop stop-color="#8C8EA5"/><stop offset="1" stop-color="#000002"/></radialGradient><radialGradient id="npaint51_radial_3_273" cx="0" cy="0" r="1" gradientUnits="userSpaceOnUse" gradientTransform="matrix(0 120.8 -50.1924 0 87.634 89.64)"><stop stop-color="#8C8EA5"/><stop offset="1" stop-color="#000002"/></radialGradient><linearGradient id="npaint2_linear_3_273" x1="90.734" y1="46.697" x2="90.734" y2="164.338" gradientUnits="userSpaceOnUse"><stop stop-color="#8C8EA5"/><stop offset="1" stop-color="#8C8EA5" stop-opacity="0"/></linearGradient><linearGradient id="npaint6_linear_3_273" x1="151" y1="35.596" x2="151" y2="153.238" gradientUnits="userSpaceOnUse"><stop stop-color="#8C8EA5"/><stop offset="1" stop-color="#8C8EA5" stop-opacity="0"/></linearGradient><linearGradient id="npaint9_linear_3_273" x1="217.398" y1="39.563" x2="217.398" y2="157.204" gradientUnits="userSpaceOnUse"><stop stop-color="#8C8EA5"/><stop offset="1" stop-color="#8C8EA5" stop-opacity="0"/></linearGradient><linearGradient id="npaint11_linear_3_273" x1="182.801" y1="59.431" x2="182.801" y2="177.072" gradientUnits="userSpaceOnUse"><stop stop-color="#8C8EA5"/><stop offset="1" stop-color="#8C8EA5" stop-opacity="0"/></linearGradient><linearGradient id="npaint46_linear_3_273" x1="91.535" y1="65.798" x2="91.535" y2="183.439" gradientUnits="userSpaceOnUse"><stop stop-color="#8C8EA5"/><stop offset="1" stop-color="#8C8EA5" stop-opacity="0"/></linearGradient><linearGradient id="npaint48_linear_3_273" x1="197.23" y1="81.364" x2="197.23" y2="199.005" gradientUnits="userSpaceOnUse"><stop stop-color="#8C8EA5"/><stop offset="1" stop-color="#8C8EA5" stop-opacity="0"/></linearGradient><linearGradient id="npaint50_linear_3_273" x1="138.664" y1="71.43" x2="138.664" y2="189.072" gradientUnits="userSpaceOnUse"><stop stop-color="#8C8EA5"/><stop offset="1" stop-color="#8C8EA5" stop-opacity="0"/></linearGradient></defs></svg>