<?xml version="1.0" encoding="utf-8"?><svg width="240" height="225" fill="none" xmlns="http://www.w3.org/2000/svg" viewBox="0 0 240 225"><path fill="url(#opaint0_radial_3_443)" d="M0 3.672h240v160H0z"/><path d="M81.77 158.587l6.48 6.713c.188.195.73.301 1.244.244.45-.05.74-.209.745-.38V45.855l-4.184-3.422c-1.334-.584-3.905-3.349-4.34-3.288V158.47c0 .039.018.079.055.117z" fill="#000002"/><path d="M90.234 46.23v118.358" stroke="url(#opaint1_linear_3_443)" stroke-width=".8" stroke-linecap="round"/><path d="M81.7 39.42v118.357" stroke="url(#opaint2_linear_3_443)" stroke-width=".8" stroke-linecap="round"/><path d="M81.77 39.269l6.48 6.712c.188.195.73.301 1.244.244.584-.065.896-.312.672-.532l-6.796-6.665c-.17-.167-.65-.252-1.086-.191-.45.063-.683.257-.514.431z" fill="#8C8EA5"/><path fill-rule="evenodd" clip-rule="evenodd" d="M89.254 50.312l-66.121-2.404V168.41c.02-.365.42-.716 1.127-.968 5.409-1.93 13.024-2.614 20.06-1.802l44.894 5.181.04.002V50.313z" fill="#000002"/><path fill-rule="evenodd" clip-rule="evenodd" d="M23.204 168.713c1.477 2.797 6.618 5.087 13.543 6.033l54.335 7.42c-4.256-3.255-5.329-7.142-2.21-10.891.125-.151.256-.3.393-.447L44.32 165.64c-7.036-.812-14.651-.128-20.06 1.802-.902.322-1.303.805-1.057 1.271z" fill="#CECFDB"/><path d="M36.8 53.83c-3.435-.47-6.413-1.27-8.705-2.292-2.305-1.027-3.861-2.252-4.537-3.532a.164.164 0 01-.024-.105.302.302 0 01.076-.142c.116-.14.365-.31.785-.46 5.34-1.905 12.891-2.588 19.88-1.782l44.192 5.101c-1.547 1.913-2.08 3.903-1.646 5.854.36 1.623 1.378 3.168 2.936 4.589L36.8 53.829z" fill="#000002" stroke="#8C8EA5" stroke-width=".8" stroke-linejoin="round"/><path fill-rule="evenodd" clip-rule="evenodd" d="M36.747 54.225c-6.925-.945-12.067-3.236-13.543-6.033a.585.585 0 01-.071-.26V62.66c0 32.125.002 105.48 0 105.776 0 .092.023.184.072.276 1.476 2.796 6.617 5.087 13.542 6.032l54.336 7.421V61.647l-.01-.003-54.326-7.419z" fill="#000002"/><path d="M23.133 48.134V166.49" stroke="url(#opaint3_linear_3_443)" stroke-width=".8" stroke-linecap="round"/><path d="M90.234 61.322V179.68" stroke="url(#opaint4_linear_3_443)" stroke-width=".4" stroke-linecap="round"/><path d="M88.668 50.605v9.916" stroke="url(#opaint5_linear_3_443)" stroke-width=".8" stroke-linecap="round"/><path d="M99.717 22.653c.079-1.24 1-2.51 2.784-3.668 1.771-1.15 4.322-2.14 7.487-2.837a8.055 8.055 0 013.26 0c3.164.697 5.715 1.687 7.487 2.837 1.783 1.158 2.705 2.427 2.783 3.668l1.126 17.803a98.375 98.375 0 00-.788-.003c-9.875 0-18.862 1.508-25.515 3.977l1.376-21.777z" fill="#000002" stroke="#8C8EA5" stroke-width=".8" stroke-linejoin="round"/><path fill-rule="evenodd" clip-rule="evenodd" d="M97.903 45.024v120.519c6.65-2.578 15.823-4.171 25.953-4.171.406 0 .811.002 1.214.007V40.863v-.003a95.98 95.98 0 00-1.214-.007c-10.13 0-19.303 1.593-25.953 4.17zm27.164-4.22l-.236-3.727c.193.85.201 1.735.208 2.584.003.391.006.774.028 1.143z" fill="#000002"/><path d="M97.898 44.962v118.357" stroke="url(#opaint6_linear_3_443)" stroke-width=".8" stroke-linecap="round"/><path d="M125.066 40.889v118.357" stroke="url(#opaint7_linear_3_443)" stroke-width=".8" stroke-linecap="round"/><path fill-rule="evenodd" clip-rule="evenodd" d="M109.901 136.276c-6.385 1.407-10.403 4.016-10.583 6.87l-1.416 22.397c6.651-2.578 15.824-4.172 25.954-4.172.406 0 .811.003 1.214.008l-1.152-18.233c-.181-2.854-4.199-5.463-10.584-6.87a8.447 8.447 0 00-3.433 0z" fill="#CECFDB"/><path d="M149.088 35.116l-14.65 4.295v120.511c-.001.079.059.158.181.227.345.195 1.047.231 1.51.078l14.056-4.638c.2-.066.303-.16.303-.255V34.82c-.297-.146-1.029.178-1.4.296z" fill="#000002"/><path d="M150.5 35.112V153.47" stroke="url(#opaint8_linear_3_443)" stroke-width=".8" stroke-linecap="round"/><path d="M134.664 39.92v118.358" stroke="url(#opaint9_linear_3_443)" stroke-width=".8" stroke-linecap="round"/><path d="M149.091 34.557l-14.273 4.537c-.414.132-.499.365-.196.536.345.195 1.047.231 1.51.078l14.056-4.638c.353-.116.405-.32.119-.461-.297-.147-.845-.17-1.216-.052z" fill="#8C8EA5"/><path fill-rule="evenodd" clip-rule="evenodd" d="M216.88 38.658a.561.561 0 01-.064.337c-1.449 2.8-6.568 5.097-13.484 6.053l-44.174 6.106-.002-.002V171.67l.002.003 44.175-6.106c6.915-.956 12.034-3.254 13.484-6.053a.583.583 0 00.068-.26c.005-.327.001-86.735 0-113.12v-1.482-5.992l-.005-.002zM140.523 42.407c8.369 1.656 15.119 4.55 18.274 8.295.126.15.246.3.358.45V171.67a10.01 10.01 0 00-.357-.449c-3.156-3.745-9.906-6.639-18.274-8.295l-.001-120.51h.044l-.044-.009z" fill="#000002"/><path d="M216.898 39.086v118.357" stroke="url(#opaint10_linear_3_443)" stroke-width=".8" stroke-linecap="round"/><path d="M159.367 50.905v118.358" stroke="url(#opaint11_linear_3_443)" stroke-width=".8" stroke-linecap="round"/><path d="M140.535 42.691V161.05" stroke="url(#opaint12_linear_3_443)" stroke-width=".8" stroke-linecap="round"/><path d="M195.715 36.351c6.981-.817 14.539-.145 19.897 1.752.422.15.674.32.793.46a.302.302 0 01.077.145.158.158 0 01-.022.104c-.663 1.28-2.205 2.506-4.501 3.536-2.281 1.025-5.251 1.83-8.682 2.304l-43.945 6.074c-.074-.094-.15-.187-.229-.28-1.631-1.937-4.167-3.628-7.325-5.04-2.559-1.144-5.542-2.112-8.816-2.881l52.753-6.174z" fill="#000002" stroke="#8C8EA5" stroke-width=".8" stroke-linejoin="round"/><path d="M182.312 58.693l-10.439-2.354c-2.25-.785-6.585-1.716-6.915-1.553 0 3.206-.002 120.434 0 120.521.002.131.168.259.476.335l15.561 3.843c.39.097.906.055 1.167-.093.102-.058.15-.123.15-.188V58.693z" fill="#000002"/><path d="M182.301 58.984v118.358" stroke="url(#opaint13_linear_3_443)" stroke-width=".8" stroke-linecap="round"/><path d="M164.969 55.179v118.357" stroke="url(#opaint14_linear_3_443)" stroke-width=".8" stroke-linecap="round"/><path d="M181.927 58.406l-15.376-3.953c-.447-.115-1.045-.078-1.375.086-.375.186-.255.457.258.584l15.56 3.843c.391.097.907.055 1.168-.093.271-.154.165-.364-.235-.467z" fill="#8C8EA5"/><path d="M130.613 145.482c.564-.901 1.311-1.504 1.799-1.453v21.58a.161.161 0 01-.032.088l-5.372 7.801c-.131.19-.633.302-1.121.252-.405-.043-.673-.184-.678-.34l-.002-21.585 5.406-6.343z" fill="url(#opaint15_radial_3_443)"/><path d="M130.611 143.936c.131-.19.633-.303 1.121-.252.488.051.778.246.647.436l-5.373 7.801c-.131.19-.632.303-1.121.252-.488-.051-.777-.246-.647-.436l5.373-7.801z" fill="#CECFDB"/><path d="M108.275 166.932c-.083-.056-.122-.117-.123-.177l.001-21.574c.437-.098 3.507 1.85 3.76 2.02l8.449 4.975v21.575c-.003.122-.167.24-.458.305-.437.098-.997.04-1.25-.13l-10.379-6.994z" fill="url(#opaint16_radial_3_443)"/><path d="M108.274 145.355c-.253-.17-.103-.388.335-.486.437-.098.997-.04 1.25.13l10.379 6.994c.253.171.103.388-.335.487-.438.098-.997.04-1.25-.131l-10.379-6.994z" fill="#CECFDB"/><path d="M95.05 174.077c-.41-.043-.68-.187-.679-.345l.002-21.573c.13-.19 4.831.483 5.32.534l16.559 1.552v21.585a.162.162 0 01-.031.086c-.131.19-.632.302-1.12.251l-20.052-2.09z" fill="url(#opaint17_radial_3_443)"/><path d="M95.052 152.505c-.488-.051-.778-.246-.647-.436.13-.19.632-.302 1.12-.251l20.052 2.09c.488.051.777.246.647.436-.131.19-.633.302-1.121.252l-20.051-2.091z" fill="#CECFDB"/><path d="M98.696 182.774c-.438.098-.997.04-1.25-.13-.08-.054-.12-.112-.123-.17-.007-.126 0-21.084 0-21.585l18.435-3.806c.438-.098 1.12-.404 1.373-.234v21.581c-.003.122-.166.241-.458.306l-17.977 4.038z" fill="url(#opaint18_radial_3_443)"/><path d="M98.695 161.198c-.438.098-.997.04-1.25-.13-.253-.171-.103-.388.335-.487l17.977-4.038c.438-.098.997-.04 1.25.131.253.17.103.388-.335.486l-17.977 4.038z" fill="#CECFDB"/><path d="M117.076 187.918c-.13.19-.632.302-1.12.252-.41-.043-.68-.188-.679-.345v-21.577l5.383-6.677c.131-.19 1.332-1.17 1.82-1.119v21.579a.162.162 0 01-.031.086l-5.373 7.801z" fill="url(#opaint19_radial_3_443)"/><path d="M117.077 166.342c-.131.19-.633.302-1.121.251-.488-.05-.778-.246-.647-.436l5.373-7.8c.131-.19.632-.303 1.12-.252.488.051.778.246.647.436l-5.372 7.801z" fill="#CECFDB"/><path d="M145.692 150.255c.437-.098 4.418-1.038 4.671-.868 0 .634.002 21.518-.001 21.58-.004.122-.168.239-.457.304l-17.977 4.038c-.438.099-.998.04-1.25-.13-.083-.056-.123-.117-.123-.177v-21.575l15.137-3.172z" fill="url(#opaint20_radial_3_443)"/><path d="M148.993 149.078c.437-.098.997-.04 1.25.131.252.17.102.388-.335.486l-17.978 4.038c-.437.098-.997.04-1.25-.13-.252-.171-.102-.388.335-.487l17.978-4.038z" fill="#CECFDB"/><path d="M153.319 158.119c0 1.702.003 21.418 0 21.576 0 .03-.01.06-.031.09-.131.189-.633.302-1.121.251l-20.051-2.09c-.406-.042-.675-.185-.678-.341v-21.573c.423-.117 3.873.25 5.873.634l16.008 1.453z" fill="url(#opaint21_radial_3_443)"/><path d="M152.64 157.772c.488.051.777.246.647.436-.131.19-.633.303-1.121.252l-20.051-2.09c-.488-.051-.778-.247-.647-.436.131-.19.632-.303 1.12-.252l20.052 2.09z" fill="#CECFDB"/><path d="M139.542 165.096c0 .551.002 21.522 0 21.585-.005.121-.168.238-.458.303-.437.098-.997.04-1.25-.13l-10.379-6.994c-.083-.056-.122-.117-.123-.177v-21.582c.438-.098 4.265 1.134 4.928 3.038l7.282 3.957z" fill="url(#opaint22_radial_3_443)"/><path d="M139.418 164.921c.252.17.102.388-.335.486-.438.099-.998.04-1.25-.13l-10.38-6.994c-.252-.17-.102-.388.335-.486.438-.098.998-.04 1.25.13l10.38 6.994z" fill="#CECFDB"/><path d="M130.613 146.011c.564-.9 1.311-1.503 1.799-1.452v21.579a.159.159 0 01-.032.088l-5.372 7.801c-.131.19-.633.303-1.121.252-.405-.042-.673-.184-.678-.34l-.002-21.585 5.406-6.343z" fill="url(#opaint23_radial_3_443)"/><path d="M130.611 144.465c.131-.19.633-.302 1.121-.252.488.051.778.246.647.436l-5.373 7.801c-.131.19-.632.303-1.121.252-.488-.051-.777-.246-.647-.436l5.373-7.801z" fill="#CECFDB"/><path d="M108.275 167.461c-.083-.056-.122-.117-.123-.177l.001-21.573c.437-.099 3.507 1.849 3.76 2.02l8.449 4.974v21.575c-.003.122-.167.24-.458.305-.437.099-.997.04-1.25-.13l-10.379-6.994z" fill="url(#opaint24_radial_3_443)"/><path d="M108.274 145.884c-.253-.17-.103-.388.335-.486.437-.098.997-.04 1.25.13l10.379 6.995c.253.17.103.388-.335.486-.438.098-.997.04-1.25-.13l-10.379-6.995z" fill="#CECFDB"/><path d="M95.05 174.606c-.41-.042-.68-.187-.679-.344l.002-21.574c.13-.19 4.831.483 5.32.534l16.559 1.553v21.584a.159.159 0 01-.031.086c-.131.19-.632.303-1.12.252l-20.052-2.091z" fill="url(#opaint25_radial_3_443)"/><path d="M95.052 153.035c-.488-.051-.778-.246-.647-.436.13-.19.632-.303 1.12-.252l20.052 2.09c.488.051.777.246.647.436-.131.19-.633.303-1.121.252l-20.051-2.09z" fill="#CECFDB"/><path d="M98.696 183.303c-.438.099-.997.04-1.25-.13-.08-.054-.12-.112-.123-.17-.007-.125 0-21.084 0-21.584l18.435-3.807c.438-.098 1.12-.404 1.373-.233v21.58c-.003.122-.166.241-.458.306l-17.977 4.038z" fill="url(#opaint26_radial_3_443)"/><path d="M98.695 161.727c-.438.099-.997.04-1.25-.13s-.103-.388.335-.486l17.977-4.038c.438-.099.997-.04 1.25.13s.103.388-.335.486l-17.977 4.038z" fill="#CECFDB"/><path d="M117.076 188.447c-.13.19-.632.303-1.12.252-.41-.043-.68-.187-.679-.345v-21.577l5.383-6.677c.131-.19 1.332-1.169 1.82-1.119v21.579a.162.162 0 01-.031.086l-5.373 7.801z" fill="url(#opaint27_radial_3_443)"/><path d="M117.077 166.871c-.131.19-.633.303-1.121.252-.488-.051-.778-.246-.647-.436l5.373-7.801c.131-.19.632-.303 1.12-.252.488.051.778.246.647.436l-5.372 7.801z" fill="#CECFDB"/><path d="M145.692 150.784c.437-.098 4.418-1.038 4.671-.868 0 .634.002 21.519-.001 21.581-.004.121-.168.238-.457.303l-17.977 4.039c-.438.098-.998.039-1.25-.131-.083-.056-.123-.117-.123-.177v-21.575l15.137-3.172z" fill="url(#opaint28_radial_3_443)"/><path d="M148.993 149.608c.437-.099.997-.04 1.25.13.252.17.102.388-.335.486l-17.978 4.038c-.437.099-.997.04-1.25-.13-.252-.17-.102-.388.335-.486l17.978-4.038z" fill="#CECFDB"/><path d="M153.319 158.648c0 1.703.003 21.418 0 21.576 0 .03-.01.06-.031.09-.131.19-.633.302-1.121.252l-20.051-2.091c-.406-.042-.675-.184-.678-.34v-21.574c.423-.117 3.873.251 5.873.634l16.008 1.453z" fill="url(#opaint29_radial_3_443)"/><path d="M152.64 158.301c.488.051.777.246.647.436-.131.19-.633.303-1.121.252l-20.051-2.09c-.488-.051-.778-.246-.647-.436s.632-.303 1.12-.252l20.052 2.09z" fill="#CECFDB"/><path d="M139.542 165.625c0 .551.002 21.523 0 21.585-.005.121-.168.238-.458.303-.437.099-.997.04-1.25-.13l-10.379-6.994c-.083-.056-.122-.117-.123-.177V158.63c.438-.098 4.265 1.134 4.928 3.039l7.282 3.956z" fill="url(#opaint30_radial_3_443)"/><path d="M139.418 165.451c.252.17.102.387-.335.486-.438.098-.998.04-1.25-.131l-10.38-6.994c-.252-.17-.102-.388.335-.486.438-.098.998-.04 1.25.13l10.38 6.995z" fill="#CECFDB"/><path d="M130.613 105.501c.564-.9 1.311-1.503 1.799-1.452v21.579a.159.159 0 01-.032.088l-5.372 7.801c-.131.19-.633.303-1.121.252-.405-.042-.673-.184-.678-.339l-.002-21.585 5.406-6.344z" fill="url(#opaint31_radial_3_443)"/><path d="M130.611 103.955c.131-.19.633-.302 1.121-.251.488.051.778.246.647.436l-5.373 7.801c-.131.189-.632.302-1.121.251-.488-.051-.777-.246-.647-.436l5.373-7.801z" fill="#CECFDB"/><path d="M108.275 126.951c-.083-.056-.122-.116-.123-.176l.001-21.574c.437-.098 3.507 1.85 3.76 2.02l8.449 4.974v21.575c-.003.122-.167.24-.458.306-.437.098-.997.04-1.25-.131l-10.379-6.994z" fill="url(#opaint32_radial_3_443)"/><path d="M108.274 105.375c-.253-.171-.103-.388.335-.487.437-.098.997-.04 1.25.131l10.379 6.994c.253.17.103.388-.335.486-.438.098-.997.04-1.25-.13l-10.379-6.994z" fill="#CECFDB"/><path d="M95.05 134.097c-.41-.043-.68-.187-.679-.345l.002-21.574c.13-.19 4.831.484 5.32.534l16.559 1.553v21.585a.156.156 0 01-.031.085c-.131.19-.632.303-1.12.252l-20.052-2.09z" fill="url(#opaint33_radial_3_443)"/><path d="M95.052 112.525c-.488-.051-.778-.246-.647-.436.13-.19.632-.303 1.12-.252l20.052 2.09c.488.051.777.246.647.436-.131.19-.633.303-1.121.252l-20.051-2.09z" fill="#CECFDB"/><path d="M98.696 142.794c-.438.098-.997.04-1.25-.131-.08-.053-.12-.112-.123-.169-.007-.126 0-21.084 0-21.585l18.435-3.806c.438-.099 1.12-.404 1.373-.234v21.581c-.003.122-.166.24-.458.306l-17.977 4.038z" fill="url(#opaint34_radial_3_443)"/><path d="M98.695 121.218c-.438.098-.997.039-1.25-.131s-.103-.388.335-.486l17.977-4.038c.438-.098.997-.04 1.25.13s.103.388-.335.486l-17.977 4.039z" fill="#CECFDB"/><path d="M117.076 147.937c-.13.19-.632.303-1.12.252-.41-.043-.68-.187-.679-.345v-21.576l5.383-6.678c.131-.19 1.332-1.169 1.82-1.118v21.578a.156.156 0 01-.031.086l-5.373 7.801z" fill="url(#opaint35_radial_3_443)"/><path d="M117.077 126.361c-.131.19-.633.303-1.121.252-.488-.051-.778-.246-.647-.436l5.373-7.801c.131-.19.632-.303 1.12-.252.488.051.778.246.647.436l-5.372 7.801z" fill="#CECFDB"/><path d="M145.692 110.274c.437-.098 4.418-1.038 4.671-.868 0 .635.002 21.519-.001 21.581-.004.121-.168.239-.457.304l-17.977 4.038c-.438.098-.998.04-1.25-.131-.083-.055-.123-.116-.123-.176v-21.576l15.137-3.172z" fill="url(#opaint36_radial_3_443)"/><path d="M148.993 109.098c.437-.098.997-.04 1.25.13.252.17.102.388-.335.486l-17.978 4.039c-.437.098-.997.039-1.25-.131-.252-.17-.102-.388.335-.486l17.978-4.038z" fill="#CECFDB"/><path d="M153.319 118.138c0 1.703.003 21.418 0 21.576 0 .03-.01.06-.031.09-.131.19-.633.303-1.121.252l-20.051-2.09c-.406-.043-.675-.185-.678-.341v-21.574c.423-.117 3.873.251 5.873.635l16.008 1.452z" fill="url(#opaint37_radial_3_443)"/><path d="M152.64 117.792c.488.051.777.246.647.436-.131.19-.633.302-1.121.251l-20.051-2.09c-.488-.051-.778-.246-.647-.436s.632-.302 1.12-.252l20.052 2.091z" fill="#CECFDB"/><path d="M139.542 125.115c0 .551.002 21.523 0 21.585-.005.121-.168.239-.458.304-.437.098-.997.04-1.25-.131l-10.379-6.994c-.083-.056-.122-.116-.123-.177v-21.581c.438-.099 4.265 1.133 4.928 3.038l7.282 3.956z" fill="url(#opaint38_radial_3_443)"/><path d="M139.418 124.941c.252.17.102.388-.335.486-.438.098-.998.04-1.25-.13l-10.38-6.994c-.252-.171-.102-.388.335-.487.438-.098.998-.04 1.25.131l10.38 6.994z" fill="#CECFDB"/><path d="M130.613 64.991c.564-.9 1.311-1.503 1.799-1.452v21.58a.16.16 0 01-.032.088l-5.372 7.8c-.131.19-.633.303-1.121.252-.405-.042-.673-.184-.678-.34l-.002-21.584 5.406-6.344z" fill="url(#opaint39_radial_3_443)"/><path d="M130.611 63.446c.131-.19.633-.303 1.121-.252.488.05.778.246.647.436l-5.373 7.8c-.131.19-.632.303-1.121.252-.488-.05-.777-.246-.647-.436l5.373-7.8z" fill="#CECFDB"/><path d="M108.275 86.442c-.083-.056-.122-.117-.123-.177l.001-21.574c.437-.098 3.507 1.85 3.76 2.02l8.449 4.975V93.26c-.003.121-.167.24-.458.305-.437.098-.997.04-1.25-.13l-10.379-6.995z" fill="url(#opaint40_radial_3_443)"/><path d="M108.274 64.865c-.253-.17-.103-.388.335-.486.437-.099.997-.04 1.25.13l10.379 6.994c.253.17.103.388-.335.486-.438.099-.997.04-1.25-.13l-10.379-6.994z" fill="#CECFDB"/><path d="M95.05 93.587c-.41-.043-.68-.187-.679-.345l.002-21.574c.13-.19 4.831.484 5.32.535l16.559 1.552V95.34a.158.158 0 01-.031.085c-.131.19-.632.303-1.12.252l-20.052-2.09z" fill="url(#opaint41_radial_3_443)"/><path d="M95.052 72.015c-.488-.05-.778-.246-.647-.436.13-.19.632-.302 1.12-.252l20.052 2.09c.488.052.777.247.647.437-.131.19-.633.302-1.121.251l-20.051-2.09z" fill="#CECFDB"/><path d="M98.696 102.284c-.438.098-.997.04-1.25-.13-.08-.054-.12-.112-.123-.17-.007-.126 0-21.084 0-21.585l18.435-3.806c.438-.098 1.12-.404 1.373-.234v21.58c-.003.123-.166.241-.458.307l-17.977 4.038z" fill="url(#opaint42_radial_3_443)"/><path d="M98.695 80.708c-.438.098-.997.04-1.25-.13s-.103-.389.335-.487l17.977-4.038c.438-.098.997-.04 1.25.13s.103.388-.335.487l-17.977 4.038z" fill="#CECFDB"/><path d="M117.076 107.428c-.13.19-.632.302-1.12.251-.41-.042-.68-.187-.679-.344V85.758l5.383-6.678c.131-.19 1.332-1.169 1.82-1.118V99.54a.16.16 0 01-.031.087l-5.373 7.801z" fill="url(#opaint43_radial_3_443)"/><path d="M117.077 85.852c-.131.19-.633.302-1.121.251-.488-.05-.778-.246-.647-.436l5.373-7.8c.131-.19.632-.303 1.12-.252.488.05.778.246.647.436l-5.372 7.8z" fill="#CECFDB"/><path d="M145.692 69.765c.437-.099 4.418-1.039 4.671-.868 0 .634.002 21.518-.001 21.58-.004.121-.168.239-.457.304l-17.977 4.038c-.438.098-.998.04-1.25-.13-.083-.056-.123-.117-.123-.177V72.936l15.137-3.171z" fill="url(#opaint44_radial_3_443)"/><path d="M148.993 68.588c.437-.098.997-.04 1.25.13.252.17.102.388-.335.487l-17.978 4.038c-.437.098-.997.04-1.25-.13-.252-.17-.102-.388.335-.487l17.978-4.038z" fill="#CECFDB"/><path d="M153.319 77.628c0 1.703.003 21.418 0 21.577 0 .03-.01.06-.031.09-.131.19-.633.302-1.121.251l-20.051-2.09c-.406-.043-.675-.185-.678-.341V75.542c.423-.117 3.873.25 5.873.634l16.008 1.452z" fill="url(#opaint45_radial_3_443)"/><path d="M152.64 77.282c.488.05.777.246.647.436-.131.19-.633.302-1.121.252l-20.051-2.09c-.488-.052-.778-.247-.647-.437s.632-.302 1.12-.251l20.052 2.09z" fill="#CECFDB"/><path d="M139.542 84.606c0 .55.002 21.522 0 21.584-.005.122-.168.239-.458.304-.437.098-.997.04-1.25-.13l-10.379-6.995c-.083-.055-.122-.116-.123-.176V77.61c.438-.098 4.265 1.134 4.928 3.038l7.282 3.957z" fill="url(#opaint46_radial_3_443)"/><path d="M139.418 84.431c.252.17.102.388-.335.486-.438.099-.998.04-1.25-.13l-10.38-6.994c-.252-.17-.102-.388.335-.486.438-.099.998-.04 1.25.13l10.38 6.994z" fill="#CECFDB"/><path d="M130.613 24.482c.564-.9 1.311-1.504 1.799-1.453v21.58a.16.16 0 01-.032.088l-5.372 7.8c-.131.19-.633.303-1.121.252-.405-.042-.673-.183-.678-.339l-.002-21.585 5.406-6.343z" fill="url(#opaint47_radial_3_443)"/><path d="M130.611 22.936c.131-.19.633-.303 1.121-.252.488.051.778.246.647.436l-5.373 7.801c-.131.19-.632.303-1.121.252-.488-.051-.777-.246-.647-.436l5.373-7.801z" fill="#CECFDB"/><path d="M108.275 45.932c-.083-.056-.122-.117-.123-.177l.001-21.574c.437-.098 3.507 1.85 3.76 2.02l8.449 4.975V52.75c-.003.122-.167.24-.458.305-.437.098-.997.04-1.25-.13l-10.379-6.994z" fill="url(#opaint48_radial_3_443)"/><path d="M108.274 24.355c-.253-.17-.103-.388.335-.486.437-.098.997-.04 1.25.13l10.379 6.994c.253.17.103.388-.335.487-.438.098-.997.04-1.25-.13l-10.379-6.995z" fill="#CECFDB"/><path d="M95.05 53.077c-.41-.042-.68-.187-.679-.345l.002-21.573c.13-.19 4.831.483 5.32.534l16.559 1.552V54.83a.158.158 0 01-.031.086c-.131.19-.632.302-1.12.252l-20.052-2.09z" fill="url(#opaint49_radial_3_443)"/><path d="M95.052 31.505c-.488-.05-.778-.246-.647-.436.13-.19.632-.302 1.12-.251l20.052 2.09c.488.05.777.246.647.436-.131.19-.633.303-1.121.252l-20.051-2.09z" fill="#CECFDB"/><path d="M98.696 61.774c-.438.098-.997.04-1.25-.13-.08-.054-.12-.112-.123-.17-.007-.126 0-21.084 0-21.585l18.435-3.806c.438-.098 1.12-.404 1.373-.233v21.58c-.003.122-.166.24-.458.306l-17.977 4.038z" fill="url(#opaint50_radial_3_443)"/><path d="M98.695 40.198c-.438.098-.997.04-1.25-.13s-.103-.388.335-.487l17.977-4.038c.438-.098.997-.04 1.25.13s.103.389-.335.487l-17.977 4.038z" fill="#CECFDB"/><path d="M117.076 66.918c-.13.19-.632.302-1.12.252-.41-.043-.68-.188-.679-.345V45.248l5.383-6.677c.131-.19 1.332-1.17 1.82-1.119v21.579a.16.16 0 01-.031.086l-5.373 7.8z" fill="url(#opaint51_radial_3_443)"/><path d="M117.077 45.342c-.131.19-.633.302-1.121.251-.488-.05-.778-.246-.647-.436l5.373-7.8c.131-.19.632-.303 1.12-.252.488.05.778.246.647.436l-5.372 7.8z" fill="#CECFDB"/><path d="M145.692 29.255c.437-.098 4.418-1.038 4.671-.868 0 .634.002 21.519-.001 21.58-.004.122-.168.24-.457.304l-17.977 4.038c-.438.099-.998.04-1.25-.13-.083-.056-.123-.117-.123-.177V32.427l15.137-3.172z" fill="url(#opaint52_radial_3_443)"/><path d="M148.993 28.078c.437-.098.997-.04 1.25.13.252.17.102.389-.335.487l-17.978 4.038c-.437.098-.997.04-1.25-.13-.252-.17-.102-.388.335-.487l17.978-4.038z" fill="#CECFDB"/><path d="M153.319 37.118c0 1.703.003 21.419 0 21.577 0 .03-.01.06-.031.09-.131.19-.633.302-1.121.251l-20.051-2.09c-.406-.042-.675-.185-.678-.34V35.031c.423-.117 3.873.25 5.873.634l16.008 1.453z" fill="url(#opaint53_radial_3_443)"/><path d="M152.64 36.772c.488.051.777.246.647.436-.131.19-.633.303-1.121.252l-20.051-2.09c-.488-.051-.778-.246-.647-.436s.632-.303 1.12-.252l20.052 2.09z" fill="#CECFDB"/><path d="M139.542 44.096c0 .55.002 21.523 0 21.584-.005.122-.168.24-.458.304-.437.098-.997.04-1.25-.13l-10.379-6.994c-.083-.056-.122-.117-.123-.177V37.1c.438-.098 4.265 1.134 4.928 3.038l7.282 3.957z" fill="url(#opaint54_radial_3_443)"/><path d="M139.418 43.921c.252.17.102.388-.335.486-.438.099-.998.04-1.25-.13l-10.38-6.994c-.252-.17-.102-.388.335-.486.438-.098.998-.04 1.25.13l10.38 6.994z" fill="#CECFDB"/><path fill="url(#opaint55_radial_3_443)" d="M94.168 59.986h59.367v127.639H94.168z"/><path d="M74.734 186.006l15.459-.204c.448-.006.812-.17.836-.378l.001-.022-.001-120.516-17.035.267c0 2.32-.004 120.344 0 120.523.005.187.338.335.74.33z" fill="#000002"/><path d="M91.035 65.361V183.72" stroke="url(#opaint56_linear_3_443)" stroke-width=".8" stroke-linecap="round"/><path d="M74 65.828v118.357" stroke="url(#opaint57_linear_3_443)" stroke-width=".8" stroke-linecap="round"/><path d="M74.736 65.487l15.458-.204c.449-.006.813-.17.836-.379.027-.236-.391-.43-.9-.42l-15.448.336c-.388.008-.69.157-.686.337.005.187.338.335.74.33z" fill="#8C8EA5"/><path fill-rule="evenodd" clip-rule="evenodd" d="M194.886 204.284c3.02-2.602 2.307-5.631-1.877-7.976l-32.83-18.407c-1.458 3.608-6.446 7.001-14.624 9.327-.328.093-.659.184-.993.272l28.587 14.455c4.476 2.263 11.676 3.447 18.966 3.117 1.215-.055 2.267-.354 2.771-.788z" fill="#CECFDB"/><path opacity=".5" fill-rule="evenodd" clip-rule="evenodd" d="M144.562 66.98l.09-.023v120.518l-.09.024.001-120.51h.016l-.017-.008zm.09 120.565l-.09-.045v-.001l.09.046zm15.534 7.854v.001l12.963 6.555c4.476 2.263 11.676 3.446 18.966 3.117 1.215-.055 2.267-.355 2.771-.789.806-.694 1.346-1.419 1.625-2.153-.279.734-.819 1.459-1.625 2.153-.504.434-1.556.733-2.771.788-7.29.33-14.49-.853-18.966-3.116l-12.963-6.556zm36.55 5.539l-.001-106.845V80.478c.03-1.649-1.231-3.29-3.726-4.69l-32.823-18.403v120.519l32.823 18.403c2.466 1.382 3.726 3.002 3.727 4.631z" fill="#CECFDB"/><path fill-rule="evenodd" clip-rule="evenodd" d="M196.735 80.46c-.014 1.123-.624 2.249-1.85 3.305-.503.433-1.555.733-2.771.788-7.29.33-14.49-.854-18.965-3.117l-28.57-14.447h-.016l-.001 120.511 28.587 14.455c4.476 2.263 11.676 3.446 18.966 3.117 1.215-.055 2.267-.355 2.771-.788 1.24-1.069 1.851-2.21 1.85-3.346l-.001-107.739V80.461z" fill="#000002"/><path d="M196.73 80.953V199.31" stroke="url(#opaint58_linear_3_443)" stroke-width=".8" stroke-linecap="round"/><path d="M144.566 67.165v118.357" stroke="url(#opaint59_linear_3_443)" stroke-width=".8" stroke-linecap="round"/><path d="M192.813 76.137c2.053 1.151 3.161 2.42 3.447 3.635.277 1.18-.193 2.447-1.635 3.69-.19.163-.517.326-.967.454-.444.126-.98.21-1.561.237-7.251.328-14.375-.853-18.767-3.074l-27.662-13.987c4.113-1.17 7.443-2.614 9.936-4.23 2.31-1.498 3.926-3.16 4.764-4.916l32.445 18.191z" fill="#000002" stroke="#8C8EA5" stroke-width=".8" stroke-linejoin="round"/><path d="M132.931 198.223l5.2-6.879a.186.186 0 00.042-.112V70.695c-1.804 1.019-2.221 1.119-2.588 2.154l-4.335 4.757v120.525c.002.142.238.272.603.316.457.056.943-.045 1.078-.224z" fill="#000002"/><path d="M138.164 71.004V189.36" stroke="url(#opaint60_linear_3_443)" stroke-width=".8" stroke-linecap="round"/><path d="M131.43 78.082v118.357" stroke="url(#opaint61_linear_3_443)" stroke-width=".8" stroke-linecap="round"/><path d="M132.931 77.704l5.2-6.88c.151-.2-.118-.41-.617-.485-.567-.085-1.198.04-1.359.267l-4.874 6.916c-.123.173.13.353.572.406.457.056.943-.045 1.078-.224z" fill="#8C8EA5"/><path opacity=".5" fill-rule="evenodd" clip-rule="evenodd" d="M101.21 66.43l.012-.008v120.556l-.014-.004-26.7 14.991c-2.423 1.36-3.68 2.949-3.72 4.551V85.971c.04-1.602 1.297-3.19 3.72-4.55l26.7-14.992h.002zM70.789 206.673v.008-.008z" fill="#CECFDB"/><path d="M94.197 86.707c-4.389 2.222-11.51 3.404-18.762 3.079a6.958 6.958 0 01-1.562-.237c-.45-.128-.777-.29-.968-.455-1.444-1.242-1.916-2.509-1.64-3.69.283-1.214 1.388-2.483 3.44-3.634l26.552-14.908c.267.08.538.16.812.237 7.681 2.181 16.786 3.04 25.534 2.692L94.197 86.707z" fill="#000002" stroke="#8C8EA5" stroke-width=".8" stroke-linejoin="round"/><path fill-rule="evenodd" clip-rule="evenodd" d="M94.376 87.063c-4.471 2.264-11.67 3.449-18.96 3.121-1.215-.054-2.268-.353-2.772-.787-1.23-1.058-1.843-2.186-1.856-3.31v13.749c-.002 31.646-.005 105.417 0 106.745.004 1.132.617 2.269 1.856 3.335.504.434 1.556.733 2.772.787 7.29.328 14.489-.857 18.96-3.121l35.086-17.766V69.31l-.04.008-35.046 17.745z" fill="#000002"/><path d="M129.469 69.669v118.357" stroke="url(#opaint62_linear_3_443)" stroke-width=".8" stroke-linecap="round"/><path d="M70.8 86.395v118.358" stroke="url(#opaint63_linear_3_443)" stroke-width=".8" stroke-linecap="round"/><path d="M160.475 40.03c-5.965 1.835-13.339 3.198-21.473 3.957-8.131.76-16.749.89-25.086.38-8.338-.511-16.121-1.645-22.66-3.296-6.557-1.656-11.582-3.761-14.701-6.079-3.128-2.323-3.998-4.567-3.352-6.583.701-2.193 3.275-4.552 7.979-6.718 4.641-2.137 10.978-3.911 18.468-5.143 7.482-1.23 15.847-1.876 24.35-1.876M124 14.672h31" stroke="#64A2FF" stroke-width="2" stroke-linecap="round" stroke-linejoin="round"/><path d="M163.524 14.018c.461.1.109.747-.465.856l-16.466 3.144c-.347.066-.532-.14-.379-.422l3.253-5.987c.153-.282.566-.494.844-.434l13.213 2.843z" fill="#64A2FF" stroke="#64A2FF"/><defs><radialGradient id="opaint0_radial_3_443" cx="0" cy="0" r="1" gradientUnits="userSpaceOnUse" gradientTransform="matrix(0 80 -120 0 120 83.672)"><stop stop-color="#347DFE"/><stop offset=".229" stop-color="#347DFE"/><stop offset="1" stop-color="#347DFE" stop-opacity="0"/></radialGradient><radialGradient id="opaint15_radial_3_443" cx="0" cy="0" r="1" gradientUnits="userSpaceOnUse" gradientTransform="matrix(0 24.2557 -5.87719 0 125.204 151.925)"><stop stop-color="#8C8EA5"/><stop offset="1" stop-color="#000002"/></radialGradient><radialGradient id="opaint16_radial_3_443" cx="0" cy="0" r="1" gradientUnits="userSpaceOnUse" gradientTransform="matrix(0 28.9466 -12.2181 0 108.141 145.165)"><stop stop-color="#8C8EA5"/><stop offset="1" stop-color="#000002"/></radialGradient><radialGradient id="opaint17_radial_3_443" cx="0" cy="0" r="1" gradientUnits="userSpaceOnUse" gradientTransform="matrix(0 34.2218 -31.13 0 95.987 152.109)"><stop stop-color="#8C8EA5"/><stop offset="1" stop-color="#000002"/></radialGradient><radialGradient id="opaint18_radial_3_443" cx="0" cy="0" r="1" gradientUnits="userSpaceOnUse" gradientTransform="matrix(0 26.9267 -20.4991 0 97.304 160.956)"><stop stop-color="#8C8EA5"/><stop offset="1" stop-color="#000002"/></radialGradient><radialGradient id="opaint19_radial_3_443" cx="0" cy="0" r="1" gradientUnits="userSpaceOnUse" gradientTransform="matrix(0 26.0753 -6.31717 0 115.272 166.265)"><stop stop-color="#8C8EA5"/><stop offset="1" stop-color="#000002"/></radialGradient><radialGradient id="opaint20_radial_3_443" cx="0" cy="0" r="1" gradientUnits="userSpaceOnUse" gradientTransform="matrix(0 24.2891 -18.5118 0 130.57 153.427)"><stop stop-color="#8C8EA5"/><stop offset="1" stop-color="#000002"/></radialGradient><radialGradient id="opaint21_radial_3_443" cx="0" cy="0" r="1" gradientUnits="userSpaceOnUse" gradientTransform="matrix(0 24.4894 -22.2935 0 135.289 156.716)"><stop stop-color="#8C8EA5"/><stop offset="1" stop-color="#000002"/></radialGradient><radialGradient id="opaint22_radial_3_443" cx="0" cy="0" r="1" gradientUnits="userSpaceOnUse" gradientTransform="matrix(0 28.9466 -12.2153 0 127.339 158.084)"><stop stop-color="#8C8EA5"/><stop offset="1" stop-color="#000002"/></radialGradient><radialGradient id="opaint23_radial_3_443" cx="0" cy="0" r="1" gradientUnits="userSpaceOnUse" gradientTransform="matrix(0 24.2557 -5.87719 0 125.204 152.455)"><stop stop-color="#8C8EA5"/><stop offset="1" stop-color="#000002"/></radialGradient><radialGradient id="opaint24_radial_3_443" cx="0" cy="0" r="1" gradientUnits="userSpaceOnUse" gradientTransform="matrix(0 28.9466 -12.2181 0 108.141 145.694)"><stop stop-color="#8C8EA5"/><stop offset="1" stop-color="#000002"/></radialGradient><radialGradient id="opaint25_radial_3_443" cx="0" cy="0" r="1" gradientUnits="userSpaceOnUse" gradientTransform="matrix(0 34.2218 -31.13 0 95.987 152.638)"><stop stop-color="#8C8EA5"/><stop offset="1" stop-color="#000002"/></radialGradient><radialGradient id="opaint26_radial_3_443" cx="0" cy="0" r="1" gradientUnits="userSpaceOnUse" gradientTransform="matrix(0 26.9267 -20.4991 0 97.304 161.485)"><stop stop-color="#8C8EA5"/><stop offset="1" stop-color="#000002"/></radialGradient><radialGradient id="opaint27_radial_3_443" cx="0" cy="0" r="1" gradientUnits="userSpaceOnUse" gradientTransform="matrix(0 26.0753 -6.31717 0 115.272 166.794)"><stop stop-color="#8C8EA5"/><stop offset="1" stop-color="#000002"/></radialGradient><radialGradient id="opaint28_radial_3_443" cx="0" cy="0" r="1" gradientUnits="userSpaceOnUse" gradientTransform="matrix(0 24.2891 -18.5118 0 130.57 153.956)"><stop stop-color="#8C8EA5"/><stop offset="1" stop-color="#000002"/></radialGradient><radialGradient id="opaint29_radial_3_443" cx="0" cy="0" r="1" gradientUnits="userSpaceOnUse" gradientTransform="matrix(0 24.4894 -22.2935 0 135.289 157.246)"><stop stop-color="#8C8EA5"/><stop offset="1" stop-color="#000002"/></radialGradient><radialGradient id="opaint30_radial_3_443" cx="0" cy="0" r="1" gradientUnits="userSpaceOnUse" gradientTransform="matrix(0 28.9466 -12.2153 0 127.339 158.614)"><stop stop-color="#8C8EA5"/><stop offset="1" stop-color="#000002"/></radialGradient><radialGradient id="opaint31_radial_3_443" cx="0" cy="0" r="1" gradientUnits="userSpaceOnUse" gradientTransform="matrix(0 24.2557 -5.87719 0 125.204 111.945)"><stop stop-color="#8C8EA5"/><stop offset="1" stop-color="#000002"/></radialGradient><radialGradient id="opaint32_radial_3_443" cx="0" cy="0" r="1" gradientUnits="userSpaceOnUse" gradientTransform="matrix(0 28.9466 -12.2181 0 108.141 105.184)"><stop stop-color="#8C8EA5"/><stop offset="1" stop-color="#000002"/></radialGradient><radialGradient id="opaint33_radial_3_443" cx="0" cy="0" r="1" gradientUnits="userSpaceOnUse" gradientTransform="matrix(0 34.2218 -31.13 0 95.987 112.128)"><stop stop-color="#8C8EA5"/><stop offset="1" stop-color="#000002"/></radialGradient><radialGradient id="opaint34_radial_3_443" cx="0" cy="0" r="1" gradientUnits="userSpaceOnUse" gradientTransform="matrix(0 26.9267 -20.4991 0 97.304 120.976)"><stop stop-color="#8C8EA5"/><stop offset="1" stop-color="#000002"/></radialGradient><radialGradient id="opaint35_radial_3_443" cx="0" cy="0" r="1" gradientUnits="userSpaceOnUse" gradientTransform="matrix(0 26.0753 -6.31717 0 115.272 126.284)"><stop stop-color="#8C8EA5"/><stop offset="1" stop-color="#000002"/></radialGradient><radialGradient id="opaint36_radial_3_443" cx="0" cy="0" r="1" gradientUnits="userSpaceOnUse" gradientTransform="matrix(0 24.2891 -18.5118 0 130.57 113.446)"><stop stop-color="#8C8EA5"/><stop offset="1" stop-color="#000002"/></radialGradient><radialGradient id="opaint37_radial_3_443" cx="0" cy="0" r="1" gradientUnits="userSpaceOnUse" gradientTransform="matrix(0 24.4894 -22.2935 0 135.289 116.736)"><stop stop-color="#8C8EA5"/><stop offset="1" stop-color="#000002"/></radialGradient><radialGradient id="opaint38_radial_3_443" cx="0" cy="0" r="1" gradientUnits="userSpaceOnUse" gradientTransform="matrix(0 28.9466 -12.2153 0 127.339 118.104)"><stop stop-color="#8C8EA5"/><stop offset="1" stop-color="#000002"/></radialGradient><radialGradient id="opaint39_radial_3_443" cx="0" cy="0" r="1" gradientUnits="userSpaceOnUse" gradientTransform="matrix(0 24.2557 -5.87719 0 125.204 71.435)"><stop stop-color="#8C8EA5"/><stop offset="1" stop-color="#000002"/></radialGradient><radialGradient id="opaint40_radial_3_443" cx="0" cy="0" r="1" gradientUnits="userSpaceOnUse" gradientTransform="matrix(0 28.9466 -12.2181 0 108.141 64.674)"><stop stop-color="#8C8EA5"/><stop offset="1" stop-color="#000002"/></radialGradient><radialGradient id="opaint41_radial_3_443" cx="0" cy="0" r="1" gradientUnits="userSpaceOnUse" gradientTransform="matrix(0 34.2218 -31.13 0 95.987 71.618)"><stop stop-color="#8C8EA5"/><stop offset="1" stop-color="#000002"/></radialGradient><radialGradient id="opaint42_radial_3_443" cx="0" cy="0" r="1" gradientUnits="userSpaceOnUse" gradientTransform="matrix(0 26.9267 -20.4991 0 97.304 80.466)"><stop stop-color="#8C8EA5"/><stop offset="1" stop-color="#000002"/></radialGradient><radialGradient id="opaint43_radial_3_443" cx="0" cy="0" r="1" gradientUnits="userSpaceOnUse" gradientTransform="matrix(0 26.0753 -6.31717 0 115.272 85.775)"><stop stop-color="#8C8EA5"/><stop offset="1" stop-color="#000002"/></radialGradient><radialGradient id="opaint44_radial_3_443" cx="0" cy="0" r="1" gradientUnits="userSpaceOnUse" gradientTransform="matrix(0 24.2891 -18.5118 0 130.57 72.936)"><stop stop-color="#8C8EA5"/><stop offset="1" stop-color="#000002"/></radialGradient><radialGradient id="opaint45_radial_3_443" cx="0" cy="0" r="1" gradientUnits="userSpaceOnUse" gradientTransform="matrix(0 24.4894 -22.2935 0 135.289 76.226)"><stop stop-color="#8C8EA5"/><stop offset="1" stop-color="#000002"/></radialGradient><radialGradient id="opaint46_radial_3_443" cx="0" cy="0" r="1" gradientUnits="userSpaceOnUse" gradientTransform="matrix(0 28.9466 -12.2153 0 127.339 77.594)"><stop stop-color="#8C8EA5"/><stop offset="1" stop-color="#000002"/></radialGradient><radialGradient id="opaint47_radial_3_443" cx="0" cy="0" r="1" gradientUnits="userSpaceOnUse" gradientTransform="matrix(0 24.2557 -5.87719 0 125.204 30.925)"><stop stop-color="#8C8EA5"/><stop offset="1" stop-color="#000002"/></radialGradient><radialGradient id="opaint48_radial_3_443" cx="0" cy="0" r="1" gradientUnits="userSpaceOnUse" gradientTransform="matrix(0 28.9466 -12.2181 0 108.141 24.165)"><stop stop-color="#8C8EA5"/><stop offset="1" stop-color="#000002"/></radialGradient><radialGradient id="opaint49_radial_3_443" cx="0" cy="0" r="1" gradientUnits="userSpaceOnUse" gradientTransform="matrix(0 34.2218 -31.13 0 95.987 31.109)"><stop stop-color="#8C8EA5"/><stop offset="1" stop-color="#000002"/></radialGradient><radialGradient id="opaint50_radial_3_443" cx="0" cy="0" r="1" gradientUnits="userSpaceOnUse" gradientTransform="matrix(0 26.9267 -20.4991 0 97.304 39.956)"><stop stop-color="#8C8EA5"/><stop offset="1" stop-color="#000002"/></radialGradient><radialGradient id="opaint51_radial_3_443" cx="0" cy="0" r="1" gradientUnits="userSpaceOnUse" gradientTransform="matrix(0 26.0753 -6.31717 0 115.272 45.265)"><stop stop-color="#8C8EA5"/><stop offset="1" stop-color="#000002"/></radialGradient><radialGradient id="opaint52_radial_3_443" cx="0" cy="0" r="1" gradientUnits="userSpaceOnUse" gradientTransform="matrix(0 24.2891 -18.5118 0 130.57 32.427)"><stop stop-color="#8C8EA5"/><stop offset="1" stop-color="#000002"/></radialGradient><radialGradient id="opaint53_radial_3_443" cx="0" cy="0" r="1" gradientUnits="userSpaceOnUse" gradientTransform="matrix(0 24.4894 -22.2935 0 135.289 35.716)"><stop stop-color="#8C8EA5"/><stop offset="1" stop-color="#000002"/></radialGradient><radialGradient id="opaint54_radial_3_443" cx="0" cy="0" r="1" gradientUnits="userSpaceOnUse" gradientTransform="matrix(0 28.9466 -12.2153 0 127.339 37.084)"><stop stop-color="#8C8EA5"/><stop offset="1" stop-color="#000002"/></radialGradient><radialGradient id="opaint55_radial_3_443" cx="0" cy="0" r="1" gradientUnits="userSpaceOnUse" gradientTransform="matrix(0 122.264 -3527.76 0 123.851 59.986)"><stop stop-color="#000002" stop-opacity="0"/><stop offset="1" stop-color="#000002"/></radialGradient><linearGradient id="opaint1_linear_3_443" x1="90.734" y1="46.757" x2="90.734" y2="164.587" gradientUnits="userSpaceOnUse"><stop stop-color="#8C8EA5"/><stop offset="1" stop-color="#8C8EA5" stop-opacity="0"/></linearGradient><linearGradient id="opaint2_linear_3_443" x1="82.199" y1="39.946" x2="82.199" y2="157.777" gradientUnits="userSpaceOnUse"><stop stop-color="#8C8EA5"/><stop offset="1" stop-color="#8C8EA5" stop-opacity="0"/></linearGradient><linearGradient id="opaint3_linear_3_443" x1="23.633" y1="48.66" x2="23.633" y2="166.491" gradientUnits="userSpaceOnUse"><stop stop-color="#8C8EA5"/><stop offset="1" stop-color="#8C8EA5" stop-opacity="0"/></linearGradient><linearGradient id="opaint4_linear_3_443" x1="90.734" y1="61.848" x2="90.734" y2="179.679" gradientUnits="userSpaceOnUse"><stop stop-color="#8C8EA5"/><stop offset="1" stop-color="#8C8EA5" stop-opacity="0"/></linearGradient><linearGradient id="opaint5_linear_3_443" x1="89.168" y1="50.649" x2="89.168" y2="60.52" gradientUnits="userSpaceOnUse"><stop stop-color="#8C8EA5"/><stop offset="1" stop-color="#8C8EA5" stop-opacity="0"/></linearGradient><linearGradient id="opaint6_linear_3_443" x1="98.398" y1="45.488" x2="98.398" y2="163.319" gradientUnits="userSpaceOnUse"><stop stop-color="#8C8EA5"/><stop offset="1" stop-color="#8C8EA5" stop-opacity="0"/></linearGradient><linearGradient id="opaint7_linear_3_443" x1="125.566" y1="41.415" x2="125.566" y2="159.246" gradientUnits="userSpaceOnUse"><stop stop-color="#8C8EA5"/><stop offset="1" stop-color="#8C8EA5" stop-opacity="0"/></linearGradient><linearGradient id="opaint8_linear_3_443" x1="151" y1="35.638" x2="151" y2="153.469" gradientUnits="userSpaceOnUse"><stop stop-color="#8C8EA5"/><stop offset="1" stop-color="#8C8EA5" stop-opacity="0"/></linearGradient><linearGradient id="opaint9_linear_3_443" x1="135.164" y1="40.447" x2="135.164" y2="158.278" gradientUnits="userSpaceOnUse"><stop stop-color="#8C8EA5"/><stop offset="1" stop-color="#8C8EA5" stop-opacity="0"/></linearGradient><linearGradient id="opaint10_linear_3_443" x1="217.398" y1="39.612" x2="217.398" y2="157.443" gradientUnits="userSpaceOnUse"><stop stop-color="#8C8EA5"/><stop offset="1" stop-color="#8C8EA5" stop-opacity="0"/></linearGradient><linearGradient id="opaint11_linear_3_443" x1="159.867" y1="51.431" x2="159.867" y2="169.262" gradientUnits="userSpaceOnUse"><stop stop-color="#8C8EA5"/><stop offset="1" stop-color="#8C8EA5" stop-opacity="0"/></linearGradient><linearGradient id="opaint12_linear_3_443" x1="141.035" y1="43.217" x2="141.035" y2="161.048" gradientUnits="userSpaceOnUse"><stop stop-color="#8C8EA5"/><stop offset="1" stop-color="#8C8EA5" stop-opacity="0"/></linearGradient><linearGradient id="opaint13_linear_3_443" x1="182.801" y1="59.51" x2="182.801" y2="177.341" gradientUnits="userSpaceOnUse"><stop stop-color="#8C8EA5"/><stop offset="1" stop-color="#8C8EA5" stop-opacity="0"/></linearGradient><linearGradient id="opaint14_linear_3_443" x1="165.469" y1="55.705" x2="165.469" y2="173.535" gradientUnits="userSpaceOnUse"><stop stop-color="#8C8EA5"/><stop offset="1" stop-color="#8C8EA5" stop-opacity="0"/></linearGradient><linearGradient id="opaint56_linear_3_443" x1="91.535" y1="65.887" x2="91.535" y2="183.718" gradientUnits="userSpaceOnUse"><stop stop-color="#8C8EA5"/><stop offset="1" stop-color="#8C8EA5" stop-opacity="0"/></linearGradient><linearGradient id="opaint57_linear_3_443" x1="74.5" y1="66.354" x2="74.5" y2="184.185" gradientUnits="userSpaceOnUse"><stop stop-color="#8C8EA5"/><stop offset="1" stop-color="#8C8EA5" stop-opacity="0"/></linearGradient><linearGradient id="opaint58_linear_3_443" x1="197.23" y1="81.479" x2="197.23" y2="199.31" gradientUnits="userSpaceOnUse"><stop stop-color="#8C8EA5"/><stop offset="1" stop-color="#8C8EA5" stop-opacity="0"/></linearGradient><linearGradient id="opaint59_linear_3_443" x1="145.066" y1="67.691" x2="145.066" y2="185.522" gradientUnits="userSpaceOnUse"><stop stop-color="#8C8EA5"/><stop offset="1" stop-color="#8C8EA5" stop-opacity="0"/></linearGradient><linearGradient id="opaint60_linear_3_443" x1="138.664" y1="71.53" x2="138.664" y2="189.361" gradientUnits="userSpaceOnUse"><stop stop-color="#8C8EA5"/><stop offset="1" stop-color="#8C8EA5" stop-opacity="0"/></linearGradient><linearGradient id="opaint61_linear_3_443" x1="131.93" y1="78.608" x2="131.93" y2="196.439" gradientUnits="userSpaceOnUse"><stop stop-color="#8C8EA5"/><stop offset="1" stop-color="#8C8EA5" stop-opacity="0"/></linearGradient><linearGradient id="opaint62_linear_3_443" x1="129.969" y1="70.195" x2="129.969" y2="188.026" gradientUnits="userSpaceOnUse"><stop stop-color="#8C8EA5"/><stop offset="1" stop-color="#8C8EA5" stop-opacity="0"/></linearGradient><linearGradient id="opaint63_linear_3_443" x1="71.301" y1="86.921" x2="71.301" y2="204.752" gradientUnits="userSpaceOnUse"><stop stop-color="#8C8EA5"/><stop offset="1" stop-color="#8C8EA5" stop-opacity="0"/></linearGradient></defs></svg>