<?xml version="1.0" encoding="utf-8"?><svg width="240" height="225" fill="none" xmlns="http://www.w3.org/2000/svg" viewBox="0 0 240 225"><path fill="url(#mpaint0_radial_3_88)" d="M0 3.672h240v160H0z"/><path d="M81.77 158.587l6.48 6.713c.188.195.73.301 1.244.244.45-.05.74-.209.745-.38V45.855l-4.184-3.422c-1.334-.584-3.905-3.349-4.34-3.288V158.47c0 .039.018.079.055.117z" fill="#000002"/><path d="M90.234 46.23v118.358" stroke="url(#mpaint1_linear_3_88)" stroke-width=".8" stroke-linecap="round"/><path d="M81.7 39.42v118.357" stroke="url(#mpaint2_linear_3_88)" stroke-width=".8" stroke-linecap="round"/><path d="M81.77 39.269l6.48 6.712c.188.195.73.301 1.244.244.584-.065.896-.312.672-.532l-6.796-6.665c-.17-.167-.65-.252-1.086-.191-.45.063-.683.257-.514.431z" fill="#8C8EA5"/><path fill-rule="evenodd" clip-rule="evenodd" d="M89.254 50.312l-66.121-2.404V168.41c.02-.365.42-.716 1.127-.968 5.409-1.93 13.024-2.614 20.06-1.802l44.894 5.181.04.002V50.313z" fill="#000002"/><path fill-rule="evenodd" clip-rule="evenodd" d="M23.204 168.713c1.477 2.797 6.618 5.087 13.543 6.033l54.335 7.42c-4.256-3.255-5.329-7.142-2.21-10.891.125-.151.256-.3.393-.447L44.32 165.64c-7.036-.812-14.651-.128-20.06 1.802-.902.322-1.303.805-1.057 1.271z" fill="#CECFDB"/><path d="M36.8 53.83c-3.435-.47-6.413-1.27-8.705-2.292-2.305-1.027-3.861-2.252-4.537-3.532a.164.164 0 01-.024-.105.302.302 0 01.076-.142c.116-.14.365-.31.785-.46 5.34-1.905 12.891-2.588 19.88-1.782l44.192 5.101c-1.547 1.913-2.08 3.903-1.646 5.854.36 1.623 1.378 3.168 2.936 4.589L36.8 53.829z" fill="#000002" stroke="#8C8EA5" stroke-width=".8" stroke-linejoin="round"/><path fill-rule="evenodd" clip-rule="evenodd" d="M36.747 54.225c-6.925-.945-12.067-3.236-13.543-6.033a.585.585 0 01-.071-.26V62.66c0 32.125.002 105.48 0 105.776 0 .092.023.184.072.276 1.476 2.796 6.617 5.087 13.542 6.032l54.336 7.421V61.647l-.01-.003-54.326-7.419z" fill="#000002"/><path d="M23.133 48.134V166.49" stroke="url(#mpaint3_linear_3_88)" stroke-width=".8" stroke-linecap="round"/><path d="M90.234 61.322V179.68" stroke="url(#mpaint4_linear_3_88)" stroke-width=".4" stroke-linecap="round"/><path d="M88.668 50.605v9.916" stroke="url(#mpaint5_linear_3_88)" stroke-width=".8" stroke-linecap="round"/><path d="M99.717 22.653c.079-1.24 1-2.51 2.784-3.668 1.771-1.15 4.322-2.14 7.487-2.837a8.055 8.055 0 013.26 0c3.164.697 5.715 1.687 7.487 2.837 1.783 1.158 2.705 2.427 2.783 3.668l1.126 17.803a98.375 98.375 0 00-.788-.003c-9.875 0-18.862 1.508-25.515 3.977l1.376-21.777z" fill="#000002" stroke="#8C8EA5" stroke-width=".8" stroke-linejoin="round"/><path fill-rule="evenodd" clip-rule="evenodd" d="M97.903 45.024v120.519c6.65-2.578 15.823-4.171 25.953-4.171.406 0 .811.002 1.214.007V40.863v-.003a95.98 95.98 0 00-1.214-.007c-10.13 0-19.303 1.593-25.953 4.17zm27.164-4.22l-.236-3.727c.193.85.201 1.735.208 2.584.003.391.006.774.028 1.143z" fill="#000002"/><path d="M97.898 44.962v118.357" stroke="url(#mpaint6_linear_3_88)" stroke-width=".8" stroke-linecap="round"/><path d="M125.066 40.889v118.357" stroke="url(#mpaint7_linear_3_88)" stroke-width=".8" stroke-linecap="round"/><path fill-rule="evenodd" clip-rule="evenodd" d="M109.901 136.276c-6.385 1.407-10.403 4.016-10.583 6.87l-1.416 22.397c6.651-2.578 15.824-4.172 25.954-4.172.406 0 .811.003 1.214.008l-1.152-18.233c-.181-2.854-4.199-5.463-10.584-6.87a8.447 8.447 0 00-3.433 0z" fill="#CECFDB"/><path d="M149.088 35.116l-14.65 4.295v120.511c-.001.079.059.158.181.227.345.195 1.047.231 1.51.078l14.056-4.638c.2-.066.303-.16.303-.255V34.82c-.297-.146-1.029.178-1.4.296z" fill="#000002"/><path d="M150.5 35.112V153.47" stroke="url(#mpaint8_linear_3_88)" stroke-width=".8" stroke-linecap="round"/><path d="M134.664 39.92v118.358" stroke="url(#mpaint9_linear_3_88)" stroke-width=".8" stroke-linecap="round"/><path d="M149.091 34.557l-14.273 4.537c-.414.132-.499.365-.196.536.345.195 1.047.231 1.51.078l14.056-4.638c.353-.116.405-.32.119-.461-.297-.147-.845-.17-1.216-.052z" fill="#8C8EA5"/><path fill-rule="evenodd" clip-rule="evenodd" d="M216.88 38.658a.561.561 0 01-.064.337c-1.449 2.8-6.568 5.097-13.484 6.053l-44.174 6.106-.002-.002V171.67l.002.003 44.175-6.106c6.915-.956 12.034-3.254 13.484-6.053a.583.583 0 00.068-.26c.005-.327.001-86.735 0-113.12v-1.482-5.992l-.005-.002zM140.523 42.407c8.369 1.656 15.119 4.55 18.274 8.295.126.15.246.3.358.45V171.67a10.01 10.01 0 00-.357-.449c-3.156-3.745-9.906-6.639-18.274-8.295l-.001-120.51h.044l-.044-.009z" fill="#000002"/><path d="M216.898 39.086v118.357" stroke="url(#mpaint10_linear_3_88)" stroke-width=".8" stroke-linecap="round"/><path d="M159.367 50.905v118.358" stroke="url(#mpaint11_linear_3_88)" stroke-width=".8" stroke-linecap="round"/><path d="M140.535 42.691V161.05" stroke="url(#mpaint12_linear_3_88)" stroke-width=".8" stroke-linecap="round"/><path d="M195.715 36.351c6.981-.817 14.539-.145 19.897 1.752.422.15.674.32.793.46a.302.302 0 01.077.145.158.158 0 01-.022.104c-.663 1.28-2.205 2.506-4.501 3.536-2.281 1.025-5.251 1.83-8.682 2.304l-43.945 6.074c-.074-.094-.15-.187-.229-.28-1.631-1.937-4.167-3.628-7.325-5.04-2.559-1.144-5.542-2.112-8.816-2.881l52.753-6.174z" fill="#000002" stroke="#8C8EA5" stroke-width=".8" stroke-linejoin="round"/><path d="M182.312 58.693l-10.439-2.354c-2.25-.785-6.585-1.716-6.915-1.553 0 3.206-.002 120.434 0 120.521.002.131.168.259.476.335l15.561 3.843c.39.097.906.055 1.167-.093.102-.058.15-.123.15-.188V58.693z" fill="#000002"/><path d="M182.301 58.984v118.358" stroke="url(#mpaint13_linear_3_88)" stroke-width=".8" stroke-linecap="round"/><path d="M164.969 55.179v118.357" stroke="url(#mpaint14_linear_3_88)" stroke-width=".8" stroke-linecap="round"/><path d="M181.927 58.406l-15.376-3.953c-.447-.115-1.045-.078-1.375.086-.375.186-.255.457.258.584l15.56 3.843c.391.097.907.055 1.168-.093.271-.154.165-.364-.235-.467z" fill="#8C8EA5"/><path d="M130.613 144.87c.564-.899 1.311-1.501 1.799-1.45v21.545a.161.161 0 01-.032.088l-5.372 7.788c-.131.19-.633.302-1.121.251-.405-.042-.673-.183-.678-.339l-.002-21.55 5.406-6.333z" fill="url(#mpaint15_radial_3_88)"/><path d="M130.611 143.327c.131-.19.633-.302 1.121-.251.488.05.778.245.647.435l-5.373 7.788c-.131.19-.632.302-1.121.252-.488-.051-.777-.246-.647-.436l5.373-7.788z" fill="#CECFDB"/><path d="M108.275 166.285c-.083-.055-.122-.116-.123-.176l.001-21.539c.437-.098 3.507 1.847 3.76 2.017l8.449 4.966v21.541c-.003.121-.167.239-.458.304-.437.098-.997.04-1.25-.13l-10.379-6.983z" fill="url(#mpaint16_radial_3_88)"/><path d="M108.274 144.743c-.253-.17-.103-.387.335-.485.437-.098.997-.04 1.25.13l10.379 6.983c.253.17.103.387-.335.485-.438.098-.997.04-1.25-.13l-10.379-6.983z" fill="#CECFDB"/><path d="M95.05 173.42c-.41-.043-.68-.187-.679-.345l.002-21.539c.13-.189 4.831.483 5.32.534l16.559 1.55v21.55a.156.156 0 01-.031.085c-.131.19-.632.302-1.12.251l-20.052-2.086z" fill="url(#mpaint17_radial_3_88)"/><path d="M95.052 151.883c-.488-.051-.778-.246-.647-.435.13-.19.632-.303 1.12-.252l20.052 2.087c.488.051.777.246.647.435-.131.19-.633.303-1.121.252l-20.051-2.087z" fill="#CECFDB"/><path d="M98.696 182.103c-.438.098-.997.04-1.25-.13-.08-.053-.12-.111-.123-.169-.007-.126 0-21.05 0-21.55l18.435-3.8c.438-.098 1.12-.404 1.373-.234v21.546c-.003.122-.166.24-.458.306l-17.977 4.031z" fill="url(#mpaint18_radial_3_88)"/><path d="M98.695 160.562c-.438.098-.997.039-1.25-.131s-.103-.387.335-.485l17.977-4.032c.438-.098.997-.039 1.25.131s.103.387-.335.485l-17.977 4.032z" fill="#CECFDB"/><path d="M117.076 187.239c-.13.189-.632.302-1.12.251-.41-.043-.68-.187-.679-.344v-21.542l5.383-6.667c.131-.19 1.332-1.168 1.82-1.117v21.544a.159.159 0 01-.031.086l-5.373 7.789z" fill="url(#mpaint19_radial_3_88)"/><path d="M117.077 165.697c-.131.189-.633.302-1.121.251-.488-.051-.778-.246-.647-.435l5.373-7.789c.131-.189.632-.302 1.12-.251.488.051.778.246.647.435l-5.372 7.789z" fill="#CECFDB"/><path d="M145.692 149.637c.437-.098 4.418-1.036 4.671-.866 0 .633.002 21.484-.001 21.545-.004.122-.168.239-.457.304l-17.977 4.031c-.438.098-.998.04-1.25-.13-.083-.056-.123-.116-.123-.176v-21.541l15.137-3.167z" fill="url(#mpaint20_radial_3_88)"/><path d="M148.993 148.462c.437-.098.997-.04 1.25.13.252.17.102.387-.335.485l-17.978 4.032c-.437.098-.997.04-1.25-.13-.252-.17-.102-.387.335-.486l17.978-4.031z" fill="#9EC0F4"/><path d="M153.319 157.487c0 1.7.003 21.384 0 21.542 0 .029-.01.059-.031.089-.131.19-.633.302-1.121.252l-20.051-2.087c-.406-.043-.675-.185-.678-.34v-21.539c.423-.117 3.873.25 5.873.633l16.008 1.45z" fill="url(#mpaint21_radial_3_88)"/><path d="M152.64 157.14c.488.051.777.246.647.436-.131.189-.633.302-1.121.251l-20.051-2.087c-.488-.051-.778-.246-.647-.435.131-.19.632-.302 1.12-.251l20.052 2.086z" fill="#64A2FF"/><path d="M139.542 164.454c0 .55.002 21.488 0 21.55-.005.121-.168.238-.458.303-.437.098-.997.04-1.25-.13l-10.379-6.983c-.083-.056-.122-.117-.123-.177V157.47c.438-.098 4.265 1.132 4.928 3.034l7.282 3.95z" fill="url(#mpaint22_radial_3_88)"/><path d="M139.418 164.279c.252.17.102.387-.335.485-.438.099-.997.04-1.25-.13l-10.379-6.983c-.253-.17-.103-.387.335-.485.437-.098.997-.04 1.249.13l10.38 6.983z" fill="url(#mpaint23_linear_3_88)"/><path d="M130.613 111.431c.564-.898 1.311-1.5 1.799-1.449v21.544a.159.159 0 01-.032.088l-5.372 7.789c-.131.189-.633.302-1.121.251-.405-.042-.673-.184-.678-.339l-.002-21.55 5.406-6.334z" fill="url(#mpaint24_radial_3_88)"/><path d="M130.611 109.889c.131-.19.633-.303 1.121-.252.488.051.778.246.647.435l-5.373 7.789c-.131.189-.632.302-1.121.251-.488-.051-.777-.246-.647-.435l5.373-7.788z" fill="#CECFDB"/><path d="M108.275 132.847c-.083-.056-.122-.117-.123-.176l.001-21.539c.437-.099 3.507 1.846 3.76 2.016l8.449 4.967v21.54c-.003.122-.167.24-.458.305-.437.098-.997.04-1.25-.13l-10.379-6.983z" fill="url(#mpaint25_radial_3_88)"/><path d="M108.274 111.305c-.253-.17-.103-.388.335-.486.437-.098.997-.04 1.25.13l10.379 6.983c.253.17.103.388-.335.486-.438.098-.997.04-1.25-.13l-10.379-6.983z" fill="#CECFDB"/><path d="M95.05 139.981c-.41-.043-.68-.187-.679-.344l.002-21.539c.13-.19 4.831.482 5.32.533l16.559 1.55v21.55a.162.162 0 01-.031.086c-.131.189-.632.302-1.12.251l-20.052-2.087z" fill="url(#mpaint26_radial_3_88)"/><path d="M95.052 118.444c-.488-.05-.778-.245-.647-.435.13-.189.632-.302 1.12-.251l20.052 2.087c.488.051.777.245.647.435-.131.19-.633.302-1.121.251l-20.051-2.087z" fill="#CECFDB"/><path d="M98.696 148.665c-.438.098-.997.04-1.25-.13-.08-.054-.12-.112-.123-.17-.007-.125 0-21.05 0-21.55l18.435-3.8c.438-.098 1.12-.403 1.373-.233v21.546c-.003.122-.166.24-.458.305l-17.977 4.032z" fill="url(#mpaint27_radial_3_88)"/><path d="M98.695 127.123c-.438.098-.997.04-1.25-.13s-.103-.387.335-.485l17.977-4.032c.438-.098.997-.04 1.25.13s.103.387-.335.486l-17.977 4.031z" fill="#CECFDB"/><path d="M117.076 153.8c-.13.19-.632.302-1.12.251-.41-.042-.68-.186-.679-.344v-21.542l5.383-6.667c.131-.189 1.332-1.167 1.82-1.116v21.544a.162.162 0 01-.031.086l-5.373 7.788z" fill="url(#mpaint28_radial_3_88)"/><path d="M117.077 132.258c-.131.19-.633.302-1.121.252-.488-.051-.778-.246-.647-.436l5.373-7.788c.131-.19.632-.302 1.12-.251.488.05.778.245.647.435l-5.372 7.788z" fill="#CECFDB"/><path d="M145.692 116.199c.437-.098 4.418-1.037 4.671-.867 0 .633.002 21.484-.001 21.546-.004.121-.168.238-.457.303l-17.977 4.032c-.438.098-.998.04-1.25-.13-.083-.056-.123-.117-.123-.177v-21.54l15.137-3.167z" fill="url(#mpaint29_radial_3_88)"/><path d="M148.993 115.023c.437-.098.997-.039 1.25.13.252.17.102.388-.335.486l-17.978 4.032c-.437.098-.997.039-1.25-.131-.252-.17-.102-.387.335-.485l17.978-4.032z" fill="#9EC0F4"/><path d="M153.319 124.049c0 1.7.003 21.383 0 21.541 0 .03-.01.06-.031.09-.131.189-.633.302-1.121.251l-20.051-2.087c-.406-.042-.675-.184-.678-.34v-21.539c.423-.116 3.873.25 5.873.634l16.008 1.45z" fill="url(#mpaint30_radial_3_88)"/><path d="M152.64 123.702c.488.051.777.246.647.435-.131.19-.633.302-1.121.252l-20.051-2.087c-.488-.051-.778-.246-.647-.436.131-.189.632-.302 1.12-.251l20.052 2.087z" fill="#64A2FF"/><path d="M139.542 131.015c0 .55.002 21.488 0 21.55-.005.121-.168.238-.458.303-.437.098-.997.04-1.25-.13l-10.379-6.983c-.083-.055-.122-.116-.123-.176v-21.547c.438-.098 4.265 1.132 4.928 3.033l7.282 3.95z" fill="url(#mpaint31_radial_3_88)"/><path d="M139.418 130.84c.252.17.102.388-.335.486-.438.098-.997.04-1.25-.13l-10.379-6.983c-.253-.17-.103-.387.335-.486.437-.098.997-.039 1.249.131l10.38 6.982z" fill="url(#mpaint32_linear_3_88)"/><path d="M130.613 77.993c.564-.899 1.311-1.5 1.799-1.45v21.545a.16.16 0 01-.032.088l-5.372 7.788c-.131.19-.633.302-1.121.251-.405-.042-.673-.183-.678-.339l-.002-21.55 5.406-6.333z" fill="url(#mpaint33_radial_3_88)"/><path d="M130.611 76.45c.131-.19.633-.302 1.121-.251.488.05.778.245.647.435l-5.373 7.788c-.131.19-.632.303-1.121.252-.488-.051-.777-.246-.647-.436l5.373-7.788z" fill="#CECFDB"/><path d="M108.275 99.408c-.083-.055-.122-.116-.123-.176l.001-21.539c.437-.098 3.507 1.847 3.76 2.017l8.449 4.966v21.541c-.003.121-.167.239-.458.304-.437.098-.997.04-1.25-.13l-10.379-6.983z" fill="url(#mpaint34_radial_3_88)"/><path d="M108.274 77.866c-.253-.17-.103-.387.335-.485.437-.098.997-.04 1.25.13l10.379 6.983c.253.17.103.387-.335.485-.438.098-.997.04-1.25-.13l-10.379-6.983z" fill="#CECFDB"/><path d="M95.05 106.543c-.41-.043-.68-.187-.679-.345l.002-21.539c.13-.19 4.831.483 5.32.534l16.559 1.55v21.55a.156.156 0 01-.031.085c-.131.19-.632.302-1.12.251l-20.052-2.086z" fill="url(#mpaint35_radial_3_88)"/><path d="M95.052 85.006c-.488-.05-.778-.246-.647-.435.13-.19.632-.302 1.12-.252l20.052 2.087c.488.051.777.246.647.435-.131.19-.633.303-1.121.252l-20.051-2.087z" fill="#CECFDB"/><path d="M98.696 115.226c-.438.098-.997.04-1.25-.13-.08-.053-.12-.111-.123-.169-.007-.126 0-21.05 0-21.55l18.435-3.8c.438-.098 1.12-.403 1.373-.233v21.545c-.003.122-.166.24-.458.306l-17.977 4.031z" fill="url(#mpaint36_radial_3_88)"/><path d="M98.695 93.685c-.438.098-.997.04-1.25-.13s-.103-.388.335-.486l17.977-4.032c.438-.098.997-.04 1.25.13s.103.388-.335.486l-17.977 4.032z" fill="#CECFDB"/><path d="M117.076 120.362c-.13.189-.632.302-1.12.251-.41-.043-.68-.187-.679-.344V98.727l5.383-6.667c.131-.19 1.332-1.168 1.82-1.117v21.544a.159.159 0 01-.031.086l-5.373 7.789z" fill="url(#mpaint37_radial_3_88)"/><path d="M117.077 98.82c-.131.19-.633.302-1.121.251-.488-.05-.778-.246-.647-.435l5.373-7.788c.131-.19.632-.303 1.12-.252.488.051.778.246.647.435l-5.372 7.789z" fill="#CECFDB"/><path d="M145.692 82.76c.437-.098 4.418-1.036 4.671-.866 0 .633.002 21.484-.001 21.545-.004.122-.168.239-.457.304l-17.977 4.031c-.438.098-.998.04-1.25-.13-.083-.056-.123-.116-.123-.176V85.927l15.137-3.167z" fill="url(#mpaint38_radial_3_88)"/><path d="M148.993 81.585c.437-.098.997-.04 1.25.13.252.17.102.387-.335.486l-17.978 4.031c-.437.098-.997.04-1.25-.13-.252-.17-.102-.387.335-.486l17.978-4.031z" fill="#9EC0F4"/><path d="M153.319 90.61c0 1.7.003 21.384 0 21.542 0 .029-.01.059-.031.089-.131.19-.633.302-1.121.252l-20.051-2.087c-.406-.042-.675-.185-.678-.34v-21.54c.423-.116 3.873.25 5.873.634l16.008 1.45z" fill="url(#mpaint39_radial_3_88)"/><path d="M152.64 90.263c.488.051.777.246.647.436-.131.19-.633.302-1.121.251l-20.051-2.087c-.488-.05-.778-.245-.647-.435s.632-.302 1.12-.251l20.052 2.086z" fill="#64A2FF"/><path d="M139.542 97.577c0 .55.002 21.488 0 21.55-.005.121-.168.238-.458.303-.437.098-.997.04-1.25-.13l-10.379-6.983c-.083-.056-.122-.117-.123-.177V90.593c.438-.098 4.265 1.132 4.928 3.034l7.282 3.95z" fill="url(#mpaint40_radial_3_88)"/><path d="M139.418 97.402c.252.17.102.387-.335.485-.438.099-.997.04-1.25-.13l-10.379-6.983c-.253-.17-.103-.387.335-.485.437-.098.997-.04 1.249.13l10.38 6.983z" fill="url(#mpaint41_linear_3_88)"/><path d="M130.613 44.554c.564-.898 1.311-1.5 1.799-1.45V64.65a.16.16 0 01-.032.088l-5.372 7.789c-.131.19-.633.302-1.121.251-.405-.042-.673-.184-.678-.339l-.002-21.55 5.406-6.334z" fill="url(#mpaint42_radial_3_88)"/><path d="M130.611 43.011c.131-.189.633-.302 1.121-.25.488.05.778.245.647.434l-5.373 7.789c-.131.19-.632.302-1.121.251-.488-.05-.777-.245-.647-.435l5.373-7.788z" fill="#CECFDB"/><path d="M108.275 65.97c-.083-.056-.122-.117-.123-.177l.001-21.538c.437-.099 3.507 1.846 3.76 2.016l8.449 4.967v21.54c-.003.122-.167.24-.458.305-.437.098-.997.04-1.25-.13l-10.379-6.983z" fill="url(#mpaint43_radial_3_88)"/><path d="M108.274 44.428c-.253-.17-.103-.387.335-.486.437-.098.997-.04 1.25.13l10.379 6.983c.253.17.103.388-.335.486-.438.098-.997.04-1.25-.13l-10.379-6.983z" fill="#CECFDB"/><path d="M95.05 73.104c-.41-.043-.68-.187-.679-.344l.002-21.54c.13-.189 4.831.483 5.32.534l16.559 1.55v21.55a.158.158 0 01-.031.086c-.131.19-.632.302-1.12.251l-20.052-2.087z" fill="url(#mpaint44_radial_3_88)"/><path d="M95.052 51.567c-.488-.05-.778-.245-.647-.435.13-.19.632-.302 1.12-.251l20.052 2.087c.488.05.777.245.647.435-.131.19-.633.302-1.121.251l-20.051-2.087z" fill="#CECFDB"/><path d="M98.696 81.788c-.438.098-.997.04-1.25-.13-.08-.054-.12-.112-.123-.17-.007-.125 0-21.05 0-21.55l18.435-3.8c.438-.098 1.12-.403 1.373-.233v21.546c-.003.122-.166.24-.458.305l-17.977 4.032z" fill="url(#mpaint45_radial_3_88)"/><path d="M98.695 60.246c-.438.098-.997.04-1.25-.13s-.103-.387.335-.485l17.977-4.032c.438-.098.997-.04 1.25.13s.103.387-.335.486l-17.977 4.031z" fill="#CECFDB"/><path d="M117.076 86.923c-.13.19-.632.302-1.12.251-.41-.042-.68-.186-.679-.344V65.288l5.383-6.666c.131-.19 1.332-1.168 1.82-1.117v21.544a.16.16 0 01-.031.086l-5.373 7.788z" fill="url(#mpaint46_radial_3_88)"/><path d="M117.077 65.381c-.131.19-.633.302-1.121.252-.488-.051-.778-.246-.647-.436l5.373-7.788c.131-.19.632-.302 1.12-.251.488.05.778.245.647.435l-5.372 7.788z" fill="#CECFDB"/><path d="M145.692 49.322c.437-.098 4.418-1.037 4.671-.867 0 .633.002 21.484-.001 21.546-.004.121-.168.238-.457.303l-17.977 4.032c-.438.098-.998.04-1.25-.13-.083-.056-.123-.117-.123-.177V52.49l15.137-3.167z" fill="url(#mpaint47_radial_3_88)"/><path d="M148.993 48.146c.437-.098.997-.04 1.25.13.252.17.102.388-.335.486l-17.978 4.032c-.437.098-.997.04-1.25-.13-.252-.17-.102-.388.335-.486l17.978-4.032z" fill="#9EC0F4"/><path d="M153.319 57.172c0 1.7.003 21.383 0 21.541 0 .03-.01.06-.031.09-.131.19-.633.302-1.121.251l-20.051-2.087c-.406-.042-.675-.184-.678-.34V55.088c.423-.116 3.873.25 5.873.634l16.008 1.45z" fill="url(#mpaint48_radial_3_88)"/><path d="M152.64 56.825c.488.05.777.246.647.435-.131.19-.633.302-1.121.252l-20.051-2.087c-.488-.051-.778-.246-.647-.436s.632-.302 1.12-.25l20.052 2.086z" fill="#64A2FF"/><path d="M139.542 64.138c0 .55.002 21.488 0 21.55-.005.121-.168.238-.458.303-.437.098-.997.04-1.25-.13l-10.379-6.983c-.083-.055-.122-.116-.123-.176V57.155c.438-.098 4.265 1.132 4.928 3.033l7.282 3.95z" fill="url(#mpaint49_radial_3_88)"/><path d="M139.418 63.964c.252.17.102.387-.335.485-.438.098-.997.04-1.25-.13l-10.379-6.983c-.253-.17-.103-.387.335-.486.437-.098.997-.04 1.249.13l10.38 6.984z" fill="url(#mpaint50_linear_3_88)"/><path fill="url(#mpaint51_radial_3_88)" d="M94.168 59.986h59.367v127.639H94.168z"/><path d="M74.734 186.006l15.459-.204c.448-.006.812-.17.836-.378l.001-.022-.001-120.516-17.035.267c0 2.32-.004 120.344 0 120.523.005.187.338.335.74.33z" fill="#000002"/><path d="M91.035 65.361V183.72" stroke="url(#mpaint52_linear_3_88)" stroke-width=".8" stroke-linecap="round"/><path d="M74 65.828v118.357" stroke="url(#mpaint53_linear_3_88)" stroke-width=".8" stroke-linecap="round"/><path d="M74.736 65.487l15.458-.204c.449-.006.813-.17.836-.379.027-.236-.391-.43-.9-.42l-15.448.336c-.388.008-.69.157-.686.337.005.187.338.335.74.33z" fill="#8C8EA5"/><path fill-rule="evenodd" clip-rule="evenodd" d="M194.886 204.284c3.02-2.602 2.307-5.631-1.877-7.976l-32.83-18.407c-1.458 3.608-6.446 7.001-14.624 9.327-.328.093-.659.184-.993.272l28.587 14.455c4.476 2.263 11.676 3.447 18.966 3.117 1.215-.055 2.267-.354 2.771-.788z" fill="#CECFDB"/><path opacity=".5" fill-rule="evenodd" clip-rule="evenodd" d="M144.562 66.98l.09-.023v120.518l-.09.024.001-120.51h.016l-.017-.008zm.09 120.565l-.09-.045v-.001l.09.046zm15.534 7.854v.001l12.963 6.555c4.476 2.263 11.676 3.446 18.966 3.117 1.215-.055 2.267-.355 2.771-.789.806-.694 1.346-1.419 1.625-2.153-.279.734-.819 1.459-1.625 2.153-.504.434-1.556.733-2.771.788-7.29.33-14.49-.853-18.966-3.116l-12.963-6.556zm36.55 5.539l-.001-106.845V80.478c.03-1.649-1.231-3.29-3.726-4.69l-32.823-18.403v120.519l32.823 18.403c2.466 1.382 3.726 3.002 3.727 4.631z" fill="#CECFDB"/><path fill-rule="evenodd" clip-rule="evenodd" d="M196.735 80.46c-.014 1.123-.624 2.249-1.85 3.305-.503.433-1.555.733-2.771.788-7.29.33-14.49-.854-18.965-3.117l-28.57-14.447h-.016l-.001 120.511 28.587 14.455c4.476 2.263 11.676 3.446 18.966 3.117 1.215-.055 2.267-.355 2.771-.788 1.24-1.069 1.851-2.21 1.85-3.346l-.001-107.739V80.461z" fill="#000002"/><path d="M196.73 80.953V199.31" stroke="url(#mpaint54_linear_3_88)" stroke-width=".8" stroke-linecap="round"/><path d="M144.566 67.165v118.357" stroke="url(#mpaint55_linear_3_88)" stroke-width=".8" stroke-linecap="round"/><path d="M192.813 76.137c2.053 1.151 3.161 2.42 3.447 3.635.277 1.18-.193 2.447-1.635 3.69-.19.163-.517.326-.967.454-.444.126-.98.21-1.561.237-7.251.328-14.375-.853-18.767-3.074l-27.662-13.987c4.113-1.17 7.443-2.614 9.936-4.23 2.31-1.498 3.926-3.16 4.764-4.916l32.445 18.191z" fill="#000002" stroke="#8C8EA5" stroke-width=".8" stroke-linejoin="round"/><path d="M132.931 198.223l5.2-6.879a.186.186 0 00.042-.112V70.695c-1.804 1.019-2.221 1.119-2.588 2.154l-4.335 4.757v120.525c.002.142.238.272.603.316.457.056.943-.045 1.078-.224z" fill="#000002"/><path d="M138.164 71.004V189.36" stroke="url(#mpaint56_linear_3_88)" stroke-width=".8" stroke-linecap="round"/><path d="M131.43 78.082v118.357" stroke="url(#mpaint57_linear_3_88)" stroke-width=".8" stroke-linecap="round"/><path d="M132.931 77.704l5.2-6.88c.151-.2-.118-.41-.617-.485-.567-.085-1.198.04-1.359.267l-4.874 6.916c-.123.173.13.353.572.406.457.056.943-.045 1.078-.224z" fill="#8C8EA5"/><path opacity=".5" fill-rule="evenodd" clip-rule="evenodd" d="M101.21 66.43l.012-.008v120.556l-.014-.004-26.7 14.991c-2.423 1.36-3.68 2.949-3.72 4.551V85.971c.04-1.602 1.297-3.19 3.72-4.55l26.7-14.992h.002zM70.789 206.673v.008-.008z" fill="#CECFDB"/><path d="M94.197 86.707c-4.389 2.222-11.51 3.404-18.762 3.079a6.958 6.958 0 01-1.562-.237c-.45-.128-.777-.29-.968-.455-1.444-1.242-1.916-2.509-1.64-3.69.283-1.214 1.388-2.483 3.44-3.634l26.552-14.908c.267.08.538.16.812.237 7.681 2.181 16.786 3.04 25.534 2.692L94.197 86.707z" fill="#000002" stroke="#8C8EA5" stroke-width=".8" stroke-linejoin="round"/><path fill-rule="evenodd" clip-rule="evenodd" d="M94.376 87.063c-4.471 2.264-11.67 3.449-18.96 3.121-1.215-.054-2.268-.353-2.772-.787-1.23-1.058-1.843-2.186-1.856-3.31v13.749c-.002 31.646-.005 105.417 0 106.745.004 1.132.617 2.269 1.856 3.335.504.434 1.556.733 2.772.787 7.29.328 14.489-.857 18.96-3.121l35.086-17.766V69.31l-.04.008-35.046 17.745z" fill="#000002"/><path d="M129.469 69.669v118.357" stroke="url(#mpaint58_linear_3_88)" stroke-width=".8" stroke-linecap="round"/><path d="M70.8 86.395v118.358" stroke="url(#mpaint59_linear_3_88)" stroke-width=".8" stroke-linecap="round"/><path d="M132.931 197.919l5.2-6.868a.186.186 0 00.042-.112V70.597c-1.804 1.016-2.221 1.116-2.588 2.15l-4.335 4.75v120.33c.002.141.238.272.603.316.457.056.943-.045 1.078-.224z" fill="url(#mpaint60_radial_3_88)"/><path d="M138.164 70.905v118.167" stroke="url(#mpaint61_linear_3_88)" stroke-width=".8" stroke-linecap="round"/><path d="M132.931 77.594l5.2-6.868c.151-.2-.118-.41-.617-.485-.567-.085-1.198.04-1.359.267l-4.874 6.904c-.123.173.13.353.572.406.457.056.943-.045 1.078-.224z" fill="#64A2FF"/><path d="M138.173 190.94a.19.19 0 01-.042.111l-5.2 6.868c-.135.179-.621.28-1.078.224-.365-.044-.601-.174-.603-.316" stroke="url(#mpaint62_linear_3_88)" stroke-width=".8" stroke-linecap="round"/><path d="M115.258 177.368l15.683-37.865" stroke="#64A2FF" stroke-width="2" stroke-linecap="round" stroke-linejoin="round"/><path d="M136.477 123.85c.559-.501 1.433-.043 1.519.796l1.669 16.273c.072.702-.47 1.232-1.08 1.057l-15.022-4.335c-.763-.22-1.026-1.329-.44-1.854l13.354-11.937zM147.347 112.155c-.128-.681-1.311-.707-1.953-.044l-5.645 5.826c-.48.495-.348 1.092.272 1.23l7.043 1.576c.811.181 1.808-.522 1.682-1.187l-1.399-7.401z" fill="#64A2FF"/><path d="M144.199 119.063c-2.263 3.07-5.176 11.12 1.273 18.769" stroke="#64A2FF" stroke-width="2" stroke-linecap="round"/><defs><radialGradient id="mpaint0_radial_3_88" cx="0" cy="0" r="1" gradientUnits="userSpaceOnUse" gradientTransform="matrix(0 80 -120 0 120 83.672)"><stop stop-color="#347DFE"/><stop offset=".229" stop-color="#347DFE"/><stop offset="1" stop-color="#347DFE" stop-opacity="0"/></radialGradient><radialGradient id="mpaint15_radial_3_88" cx="0" cy="0" r="1" gradientUnits="userSpaceOnUse" gradientTransform="matrix(0 24.2167 -5.87719 0 125.204 151.303)"><stop stop-color="#8C8EA5"/><stop offset="1" stop-color="#000002"/></radialGradient><radialGradient id="mpaint16_radial_3_88" cx="0" cy="0" r="1" gradientUnits="userSpaceOnUse" gradientTransform="matrix(0 28.9 -12.2181 0 108.141 144.553)"><stop stop-color="#8C8EA5"/><stop offset="1" stop-color="#000002"/></radialGradient><radialGradient id="mpaint17_radial_3_88" cx="0" cy="0" r="1" gradientUnits="userSpaceOnUse" gradientTransform="matrix(0 34.1667 -31.13 0 95.987 151.486)"><stop stop-color="#8C8EA5"/><stop offset="1" stop-color="#000002"/></radialGradient><radialGradient id="mpaint18_radial_3_88" cx="0" cy="0" r="1" gradientUnits="userSpaceOnUse" gradientTransform="matrix(0 26.8833 -20.4991 0 97.304 160.32)"><stop stop-color="#8C8EA5"/><stop offset="1" stop-color="#000002"/></radialGradient><radialGradient id="mpaint19_radial_3_88" cx="0" cy="0" r="1" gradientUnits="userSpaceOnUse" gradientTransform="matrix(0 26.0333 -6.31717 0 115.272 165.62)"><stop stop-color="#8C8EA5"/><stop offset="1" stop-color="#000002"/></radialGradient><radialGradient id="mpaint20_radial_3_88" cx="0" cy="0" r="1" gradientUnits="userSpaceOnUse" gradientTransform="matrix(0 24.25 -18.5118 0 130.57 152.804)"><stop stop-color="#8C8EA5"/><stop offset="1" stop-color="#3F5F97"/></radialGradient><radialGradient id="mpaint21_radial_3_88" cx="0" cy="0" r="1" gradientUnits="userSpaceOnUse" gradientTransform="matrix(0 24.45 -22.2935 0 135.289 156.087)"><stop stop-color="#347DFE"/><stop offset="1" stop-color="#2353AA"/></radialGradient><radialGradient id="mpaint22_radial_3_88" cx="0" cy="0" r="1" gradientUnits="userSpaceOnUse" gradientTransform="matrix(0 28.9 -12.2153 0 127.339 157.454)"><stop stop-color="#8C8EA5"/><stop offset="1" stop-color="#347DFE"/></radialGradient><radialGradient id="mpaint24_radial_3_88" cx="0" cy="0" r="1" gradientUnits="userSpaceOnUse" gradientTransform="matrix(0 24.2167 -5.87719 0 125.204 117.865)"><stop stop-color="#8C8EA5"/><stop offset="1" stop-color="#000002"/></radialGradient><radialGradient id="mpaint25_radial_3_88" cx="0" cy="0" r="1" gradientUnits="userSpaceOnUse" gradientTransform="matrix(0 28.9 -12.2181 0 108.141 111.115)"><stop stop-color="#8C8EA5"/><stop offset="1" stop-color="#000002"/></radialGradient><radialGradient id="mpaint26_radial_3_88" cx="0" cy="0" r="1" gradientUnits="userSpaceOnUse" gradientTransform="matrix(0 34.1667 -31.13 0 95.987 118.048)"><stop stop-color="#8C8EA5"/><stop offset="1" stop-color="#000002"/></radialGradient><radialGradient id="mpaint27_radial_3_88" cx="0" cy="0" r="1" gradientUnits="userSpaceOnUse" gradientTransform="matrix(0 26.8833 -20.4991 0 97.304 126.882)"><stop stop-color="#8C8EA5"/><stop offset="1" stop-color="#000002"/></radialGradient><radialGradient id="mpaint28_radial_3_88" cx="0" cy="0" r="1" gradientUnits="userSpaceOnUse" gradientTransform="matrix(0 26.0333 -6.31717 0 115.272 132.182)"><stop stop-color="#8C8EA5"/><stop offset="1" stop-color="#000002"/></radialGradient><radialGradient id="mpaint29_radial_3_88" cx="0" cy="0" r="1" gradientUnits="userSpaceOnUse" gradientTransform="matrix(0 24.25 -18.5118 0 130.57 119.366)"><stop stop-color="#8C8EA5"/><stop offset="1" stop-color="#3F5F97"/></radialGradient><radialGradient id="mpaint30_radial_3_88" cx="0" cy="0" r="1" gradientUnits="userSpaceOnUse" gradientTransform="matrix(0 24.45 -22.2935 0 135.289 122.649)"><stop stop-color="#347DFE"/><stop offset="1" stop-color="#2353AA"/></radialGradient><radialGradient id="mpaint31_radial_3_88" cx="0" cy="0" r="1" gradientUnits="userSpaceOnUse" gradientTransform="matrix(0 28.9 -12.2153 0 127.339 124.015)"><stop stop-color="#8C8EA5"/><stop offset="1" stop-color="#347DFE"/></radialGradient><radialGradient id="mpaint33_radial_3_88" cx="0" cy="0" r="1" gradientUnits="userSpaceOnUse" gradientTransform="matrix(0 24.2167 -5.87719 0 125.204 84.426)"><stop stop-color="#8C8EA5"/><stop offset="1" stop-color="#000002"/></radialGradient><radialGradient id="mpaint34_radial_3_88" cx="0" cy="0" r="1" gradientUnits="userSpaceOnUse" gradientTransform="matrix(0 28.9 -12.2181 0 108.141 77.676)"><stop stop-color="#8C8EA5"/><stop offset="1" stop-color="#000002"/></radialGradient><radialGradient id="mpaint35_radial_3_88" cx="0" cy="0" r="1" gradientUnits="userSpaceOnUse" gradientTransform="matrix(0 34.1667 -31.13 0 95.987 84.61)"><stop stop-color="#8C8EA5"/><stop offset="1" stop-color="#000002"/></radialGradient><radialGradient id="mpaint36_radial_3_88" cx="0" cy="0" r="1" gradientUnits="userSpaceOnUse" gradientTransform="matrix(0 26.8833 -20.4991 0 97.304 93.444)"><stop stop-color="#8C8EA5"/><stop offset="1" stop-color="#000002"/></radialGradient><radialGradient id="mpaint37_radial_3_88" cx="0" cy="0" r="1" gradientUnits="userSpaceOnUse" gradientTransform="matrix(0 26.0333 -6.31717 0 115.272 98.743)"><stop stop-color="#8C8EA5"/><stop offset="1" stop-color="#000002"/></radialGradient><radialGradient id="mpaint38_radial_3_88" cx="0" cy="0" r="1" gradientUnits="userSpaceOnUse" gradientTransform="matrix(0 24.25 -18.5118 0 130.57 85.927)"><stop stop-color="#8C8EA5"/><stop offset="1" stop-color="#3F5F97"/></radialGradient><radialGradient id="mpaint39_radial_3_88" cx="0" cy="0" r="1" gradientUnits="userSpaceOnUse" gradientTransform="matrix(0 24.45 -22.2935 0 135.289 89.21)"><stop stop-color="#347DFE"/><stop offset="1" stop-color="#2353AA"/></radialGradient><radialGradient id="mpaint40_radial_3_88" cx="0" cy="0" r="1" gradientUnits="userSpaceOnUse" gradientTransform="matrix(0 28.9 -12.2153 0 127.339 90.577)"><stop stop-color="#8C8EA5"/><stop offset="1" stop-color="#347DFE"/></radialGradient><radialGradient id="mpaint42_radial_3_88" cx="0" cy="0" r="1" gradientUnits="userSpaceOnUse" gradientTransform="matrix(0 24.2167 -5.87719 0 125.204 50.988)"><stop stop-color="#8C8EA5"/><stop offset="1" stop-color="#000002"/></radialGradient><radialGradient id="mpaint43_radial_3_88" cx="0" cy="0" r="1" gradientUnits="userSpaceOnUse" gradientTransform="matrix(0 28.9 -12.2181 0 108.141 44.238)"><stop stop-color="#8C8EA5"/><stop offset="1" stop-color="#000002"/></radialGradient><radialGradient id="mpaint44_radial_3_88" cx="0" cy="0" r="1" gradientUnits="userSpaceOnUse" gradientTransform="matrix(0 34.1667 -31.13 0 95.987 51.17)"><stop stop-color="#8C8EA5"/><stop offset="1" stop-color="#000002"/></radialGradient><radialGradient id="mpaint45_radial_3_88" cx="0" cy="0" r="1" gradientUnits="userSpaceOnUse" gradientTransform="matrix(0 26.8833 -20.4991 0 97.304 60.005)"><stop stop-color="#8C8EA5"/><stop offset="1" stop-color="#000002"/></radialGradient><radialGradient id="mpaint46_radial_3_88" cx="0" cy="0" r="1" gradientUnits="userSpaceOnUse" gradientTransform="matrix(0 26.0333 -6.31717 0 115.272 65.305)"><stop stop-color="#8C8EA5"/><stop offset="1" stop-color="#000002"/></radialGradient><radialGradient id="mpaint47_radial_3_88" cx="0" cy="0" r="1" gradientUnits="userSpaceOnUse" gradientTransform="matrix(0 24.25 -18.5118 0 130.57 52.489)"><stop stop-color="#8C8EA5"/><stop offset="1" stop-color="#3F5F97"/></radialGradient><radialGradient id="mpaint48_radial_3_88" cx="0" cy="0" r="1" gradientUnits="userSpaceOnUse" gradientTransform="matrix(0 24.45 -22.2935 0 135.289 55.772)"><stop stop-color="#347DFE"/><stop offset="1" stop-color="#2353AA"/></radialGradient><radialGradient id="mpaint49_radial_3_88" cx="0" cy="0" r="1" gradientUnits="userSpaceOnUse" gradientTransform="matrix(0 28.9 -12.2153 0 127.339 57.138)"><stop stop-color="#8C8EA5"/><stop offset="1" stop-color="#347DFE"/></radialGradient><radialGradient id="mpaint51_radial_3_88" cx="0" cy="0" r="1" gradientUnits="userSpaceOnUse" gradientTransform="matrix(0 122.264 -3527.76 0 123.851 59.986)"><stop stop-color="#000002" stop-opacity="0"/><stop offset="1" stop-color="#000002"/></radialGradient><radialGradient id="mpaint60_radial_3_88" cx="0" cy="0" r="1" gradientUnits="userSpaceOnUse" gradientTransform="matrix(0 105.683 -5.73605 0 131.264 77.305)"><stop stop-color="#347DFE"/><stop offset="1" stop-color="#2353AA"/></radialGradient><linearGradient id="mpaint1_linear_3_88" x1="90.734" y1="46.757" x2="90.734" y2="164.587" gradientUnits="userSpaceOnUse"><stop stop-color="#8C8EA5"/><stop offset="1" stop-color="#8C8EA5" stop-opacity="0"/></linearGradient><linearGradient id="mpaint2_linear_3_88" x1="82.199" y1="39.946" x2="82.199" y2="157.777" gradientUnits="userSpaceOnUse"><stop stop-color="#8C8EA5"/><stop offset="1" stop-color="#8C8EA5" stop-opacity="0"/></linearGradient><linearGradient id="mpaint3_linear_3_88" x1="23.633" y1="48.66" x2="23.633" y2="166.491" gradientUnits="userSpaceOnUse"><stop stop-color="#8C8EA5"/><stop offset="1" stop-color="#8C8EA5" stop-opacity="0"/></linearGradient><linearGradient id="mpaint4_linear_3_88" x1="90.734" y1="61.848" x2="90.734" y2="179.679" gradientUnits="userSpaceOnUse"><stop stop-color="#8C8EA5"/><stop offset="1" stop-color="#8C8EA5" stop-opacity="0"/></linearGradient><linearGradient id="mpaint5_linear_3_88" x1="89.168" y1="50.649" x2="89.168" y2="60.52" gradientUnits="userSpaceOnUse"><stop stop-color="#8C8EA5"/><stop offset="1" stop-color="#8C8EA5" stop-opacity="0"/></linearGradient><linearGradient id="mpaint6_linear_3_88" x1="98.398" y1="45.488" x2="98.398" y2="163.319" gradientUnits="userSpaceOnUse"><stop stop-color="#8C8EA5"/><stop offset="1" stop-color="#8C8EA5" stop-opacity="0"/></linearGradient><linearGradient id="mpaint7_linear_3_88" x1="125.566" y1="41.415" x2="125.566" y2="159.246" gradientUnits="userSpaceOnUse"><stop stop-color="#8C8EA5"/><stop offset="1" stop-color="#8C8EA5" stop-opacity="0"/></linearGradient><linearGradient id="mpaint8_linear_3_88" x1="151" y1="35.638" x2="151" y2="153.469" gradientUnits="userSpaceOnUse"><stop stop-color="#8C8EA5"/><stop offset="1" stop-color="#8C8EA5" stop-opacity="0"/></linearGradient><linearGradient id="mpaint9_linear_3_88" x1="135.164" y1="40.447" x2="135.164" y2="158.278" gradientUnits="userSpaceOnUse"><stop stop-color="#8C8EA5"/><stop offset="1" stop-color="#8C8EA5" stop-opacity="0"/></linearGradient><linearGradient id="mpaint10_linear_3_88" x1="217.398" y1="39.612" x2="217.398" y2="157.443" gradientUnits="userSpaceOnUse"><stop stop-color="#8C8EA5"/><stop offset="1" stop-color="#8C8EA5" stop-opacity="0"/></linearGradient><linearGradient id="mpaint11_linear_3_88" x1="159.867" y1="51.431" x2="159.867" y2="169.262" gradientUnits="userSpaceOnUse"><stop stop-color="#8C8EA5"/><stop offset="1" stop-color="#8C8EA5" stop-opacity="0"/></linearGradient><linearGradient id="mpaint12_linear_3_88" x1="141.035" y1="43.217" x2="141.035" y2="161.048" gradientUnits="userSpaceOnUse"><stop stop-color="#8C8EA5"/><stop offset="1" stop-color="#8C8EA5" stop-opacity="0"/></linearGradient><linearGradient id="mpaint13_linear_3_88" x1="182.801" y1="59.51" x2="182.801" y2="177.341" gradientUnits="userSpaceOnUse"><stop stop-color="#8C8EA5"/><stop offset="1" stop-color="#8C8EA5" stop-opacity="0"/></linearGradient><linearGradient id="mpaint14_linear_3_88" x1="165.469" y1="55.705" x2="165.469" y2="173.535" gradientUnits="userSpaceOnUse"><stop stop-color="#8C8EA5"/><stop offset="1" stop-color="#8C8EA5" stop-opacity="0"/></linearGradient><linearGradient id="mpaint23_linear_3_88" x1="139.083" y1="164.764" x2="136.92" y2="155.118" gradientUnits="userSpaceOnUse"><stop stop-color="#64A2FF"/><stop offset="1" stop-color="#DEDFE8"/></linearGradient><linearGradient id="mpaint32_linear_3_88" x1="139.083" y1="131.326" x2="136.92" y2="121.68" gradientUnits="userSpaceOnUse"><stop stop-color="#64A2FF"/><stop offset="1" stop-color="#DEDFE8"/></linearGradient><linearGradient id="mpaint41_linear_3_88" x1="139.083" y1="97.887" x2="136.92" y2="88.241" gradientUnits="userSpaceOnUse"><stop stop-color="#64A2FF"/><stop offset="1" stop-color="#DEDFE8"/></linearGradient><linearGradient id="mpaint50_linear_3_88" x1="139.083" y1="64.449" x2="136.92" y2="54.803" gradientUnits="userSpaceOnUse"><stop stop-color="#64A2FF"/><stop offset="1" stop-color="#DEDFE8"/></linearGradient><linearGradient id="mpaint52_linear_3_88" x1="91.535" y1="65.887" x2="91.535" y2="183.718" gradientUnits="userSpaceOnUse"><stop stop-color="#8C8EA5"/><stop offset="1" stop-color="#8C8EA5" stop-opacity="0"/></linearGradient><linearGradient id="mpaint53_linear_3_88" x1="74.5" y1="66.354" x2="74.5" y2="184.185" gradientUnits="userSpaceOnUse"><stop stop-color="#8C8EA5"/><stop offset="1" stop-color="#8C8EA5" stop-opacity="0"/></linearGradient><linearGradient id="mpaint54_linear_3_88" x1="197.23" y1="81.479" x2="197.23" y2="199.31" gradientUnits="userSpaceOnUse"><stop stop-color="#8C8EA5"/><stop offset="1" stop-color="#8C8EA5" stop-opacity="0"/></linearGradient><linearGradient id="mpaint55_linear_3_88" x1="145.066" y1="67.691" x2="145.066" y2="185.522" gradientUnits="userSpaceOnUse"><stop stop-color="#8C8EA5"/><stop offset="1" stop-color="#8C8EA5" stop-opacity="0"/></linearGradient><linearGradient id="mpaint56_linear_3_88" x1="138.664" y1="71.53" x2="138.664" y2="189.361" gradientUnits="userSpaceOnUse"><stop stop-color="#8C8EA5"/><stop offset="1" stop-color="#8C8EA5" stop-opacity="0"/></linearGradient><linearGradient id="mpaint57_linear_3_88" x1="131.93" y1="78.608" x2="131.93" y2="196.439" gradientUnits="userSpaceOnUse"><stop stop-color="#8C8EA5"/><stop offset="1" stop-color="#8C8EA5" stop-opacity="0"/></linearGradient><linearGradient id="mpaint58_linear_3_88" x1="129.969" y1="70.195" x2="129.969" y2="188.026" gradientUnits="userSpaceOnUse"><stop stop-color="#8C8EA5"/><stop offset="1" stop-color="#8C8EA5" stop-opacity="0"/></linearGradient><linearGradient id="mpaint59_linear_3_88" x1="71.301" y1="86.921" x2="71.301" y2="204.752" gradientUnits="userSpaceOnUse"><stop stop-color="#8C8EA5"/><stop offset="1" stop-color="#8C8EA5" stop-opacity="0"/></linearGradient><linearGradient id="mpaint61_linear_3_88" x1="138.664" y1="71.43" x2="138.664" y2="189.072" gradientUnits="userSpaceOnUse"><stop stop-color="#64A2FF"/><stop offset="1" stop-color="#64A2FF" stop-opacity="0"/></linearGradient><linearGradient id="mpaint62_linear_3_88" x1="131.263" y1="198.159" x2="138.163" y2="198.159" gradientUnits="userSpaceOnUse"><stop stop-color="#64A2FF"/><stop offset="1" stop-color="#64A2FF" stop-opacity="0"/></linearGradient></defs></svg>